<svg width="24" height="24" viewBox="0 0 24 24" fill="none" xmlns="http://www.w3.org/2000/svg">
<path d="M10.5714 7H7.71429C7.3198 7 7 7.3198 7 7.71429V16.2857C7 16.6802 7.3198 17 7.71429 17H16.2857C16.6802 17 17 16.6802 17 16.2857V13.4286" stroke="#0D1320" stroke-width="1.6" stroke-linecap="round" stroke-linejoin="round"/>
<path d="M16.2 10C16.2 10.4418 16.5582 10.8 17 10.8C17.4418 10.8 17.8 10.4418 17.8 10L16.2 10ZM17 7L17.8 7C17.8 6.78783 17.7157 6.58434 17.5657 6.43431C17.4157 6.28429 17.2122 6.2 17 6.2V7ZM14 6.2C13.5582 6.2 13.2 6.55817 13.2 7C13.2 7.44183 13.5582 7.8 14 7.8V6.2ZM17.8 10L17.8 7L16.2 7L16.2 10L17.8 10ZM17 6.2H14V7.8H17V6.2Z" fill="#0D1320"/>
<path d="M11.4343 11.4343C11.1219 11.7467 11.1219 12.2533 11.4343 12.5657C11.7467 12.8781 12.2533 12.8781 12.5657 12.5657L11.4343 11.4343ZM16.5657 8.56569C16.8781 8.25327 16.8781 7.74673 16.5657 7.43431C16.2533 7.1219 15.7467 7.1219 15.4343 7.43431L16.5657 8.56569ZM12.5657 12.5657L16.5657 8.56569L15.4343 7.43431L11.4343 11.4343L12.5657 12.5657Z" fill="#0D1320"/>
</svg>
