<svg width="35" height="16" viewBox="0 0 35 16" fill="none" xmlns="http://www.w3.org/2000/svg">
<path d="M17.364 3.6H18.564V12H17.184V5.076L15.492 5.556L15.156 4.38L17.364 3.6ZM25.6688 10.968C25.0928 11.76 24.2848 12.156 23.2448 12.156C22.2048 12.156 21.3928 11.76 20.8088 10.968C20.2328 10.176 19.9448 9.12 19.9448 7.8C19.9448 6.48 20.2328 5.424 20.8088 4.632C21.3928 3.84 22.2048 3.444 23.2448 3.444C24.2848 3.444 25.0928 3.84 25.6688 4.632C26.2528 5.424 26.5448 6.48 26.5448 7.8C26.5448 9.12 26.2528 10.176 25.6688 10.968ZM23.2448 10.812C23.8688 10.812 24.3448 10.552 24.6728 10.032C25.0008 9.512 25.1648 8.768 25.1648 7.8C25.1648 6.832 25.0008 6.088 24.6728 5.568C24.3448 5.048 23.8688 4.788 23.2448 4.788C22.6288 4.788 22.1528 5.048 21.8168 5.568C21.4888 6.088 21.3248 6.832 21.3248 7.8C21.3248 8.768 21.4888 9.512 21.8168 10.032C22.1528 10.552 22.6288 10.812 23.2448 10.812Z" fill="url(#paint0_linear_5158_166979)"/>
<path d="M13.12 11H11.62L10.132 8.948L8.632 11H7.12L9.376 7.916L7.24 5H8.74L10.12 6.896L11.5 5H13.012L10.876 7.928L13.12 11Z" fill="url(#paint1_linear_5158_166979)"/>
<rect x="0.5" y="0.5" width="34" height="15" rx="7.5" stroke="url(#paint2_linear_5158_166979)"/>
<defs>
<linearGradient id="paint0_linear_5158_166979" x1="15" y1="2" x2="24.3753" y2="-3.82946" gradientUnits="userSpaceOnUse">
<stop stop-color="#2680EB"/>
<stop offset="1" stop-color="#7FFFD4"/>
</linearGradient>
<linearGradient id="paint1_linear_5158_166979" x1="7" y1="5" x2="11.8829" y2="2.6645" gradientUnits="userSpaceOnUse">
<stop stop-color="#2680EB"/>
<stop offset="1" stop-color="#7FFFD4"/>
</linearGradient>
<linearGradient id="paint2_linear_5158_166979" x1="0" y1="0" x2="16.7089" y2="-17.4821" gradientUnits="userSpaceOnUse">
<stop stop-color="#2680EB"/>
<stop offset="1" stop-color="#7FFFD4"/>
</linearGradient>
</defs>
</svg>
