<svg width="24" height="24" viewBox="0 0 24 24" fill="none" xmlns="http://www.w3.org/2000/svg">
<path d="M12 21C16.9706 21 21 16.9706 21 12C21 7.02944 16.9706 3 12 3C7.02944 3 3 7.02944 3 12C3 16.9706 7.02944 21 12 21Z" stroke="#616D8B" stroke-width="1.5" stroke-miterlimit="10" stroke-linecap="round" stroke-linejoin="round"/>
<path d="M13.0046 13.36H11.6246C11.6246 13.04 11.6966 12.74 11.8406 12.46C11.9846 12.172 12.1606 11.928 12.3686 11.728C12.5766 11.52 12.7846 11.324 12.9926 11.14C13.2006 10.948 13.3766 10.74 13.5206 10.516C13.6646 10.292 13.7366 10.064 13.7366 9.832C13.7366 9.504 13.6206 9.248 13.3886 9.064C13.1566 8.88 12.8446 8.788 12.4526 8.788C12.0766 8.788 11.7526 8.884 11.4806 9.076C11.2086 9.268 11.0126 9.54 10.8926 9.892L9.70461 9.22C9.92061 8.66 10.2766 8.224 10.7726 7.912C11.2766 7.6 11.8486 7.444 12.4886 7.444C13.2086 7.444 13.8246 7.648 14.3366 8.056C14.8566 8.464 15.1166 9.028 15.1166 9.748C15.1166 10.076 15.0446 10.388 14.9006 10.684C14.7566 10.98 14.5806 11.232 14.3726 11.44C14.1646 11.648 13.9566 11.852 13.7486 12.052C13.5406 12.244 13.3646 12.452 13.2206 12.676C13.0766 12.9 13.0046 13.128 13.0046 13.36ZM12.3206 14.344C12.5686 14.344 12.7806 14.432 12.9566 14.608C13.1326 14.784 13.2206 14.996 13.2206 15.244C13.2206 15.492 13.1326 15.704 12.9566 15.88C12.7806 16.056 12.5686 16.144 12.3206 16.144C12.0726 16.144 11.8606 16.056 11.6846 15.88C11.5086 15.704 11.4206 15.492 11.4206 15.244C11.4206 14.996 11.5046 14.784 11.6726 14.608C11.8486 14.432 12.0646 14.344 12.3206 14.344Z" fill="#616D8B"/>
</svg>
