<svg width="9" height="14" viewBox="0 0 9 14" fill="none" xmlns="http://www.w3.org/2000/svg">
<path d="M7.45584 13.3197C7.81648 13.6202 8.35246 13.5715 8.65299 13.2108C8.95352 12.8502 8.90479 12.3142 8.54416 12.0137L7.45584 13.3197ZM1 6.83333L0.455843 6.18035C0.26205 6.34184 0.15 6.58107 0.15 6.83333C0.15 7.0856 0.26205 7.32483 0.455843 7.48632L1 6.83333ZM8.54416 1.65299C8.90479 1.35246 8.95352 0.816479 8.65299 0.455843C8.35246 0.0952079 7.81648 0.0464824 7.45584 0.347012L8.54416 1.65299ZM8.54416 12.0137L1.54416 6.18035L0.455843 7.48632L7.45584 13.3197L8.54416 12.0137ZM1.54416 7.48632L8.54416 1.65299L7.45584 0.347012L0.455843 6.18035L1.54416 7.48632Z" fill="#666F87"/>
</svg>
