<svg xmlns="http://www.w3.org/2000/svg" width="20.458" height="17.9" viewBox="0 0 20.458 17.9">
  <path id="camera-solid" d="M20.458,36.475V47.982A1.918,1.918,0,0,1,18.54,49.9H1.918A1.918,1.918,0,0,1,0,47.982V36.475a1.918,1.918,0,0,1,1.918-1.918H5.434l.491-1.315A1.915,1.915,0,0,1,7.72,32h5.015a1.915,1.915,0,0,1,1.794,1.243l.5,1.315H18.54A1.918,1.918,0,0,1,20.458,36.475Zm-5.434,5.754a4.795,4.795,0,1,0-4.795,4.795A4.8,4.8,0,0,0,15.024,42.229Zm-1.279,0a3.516,3.516,0,1,1-3.516-3.516A3.521,3.521,0,0,1,13.745,42.229Z" transform="translate(0 -32)" fill="#c2c3c4"/>
</svg>
