<svg width="12" height="12" viewBox="0 0 12 12" fill="none" xmlns="http://www.w3.org/2000/svg">
<path d="M7.87105 9.57177C8.18683 9.91913 8.72441 9.94473 9.07177 9.62895C9.41913 9.31317 9.44473 8.77559 9.12895 8.42823L7.87105 9.57177ZM6 6.25L5.37105 5.67823C5.07632 6.00244 5.07632 6.49756 5.37105 6.82177L6 6.25ZM9.12895 4.07177C9.44473 3.72441 9.41913 3.18683 9.07177 2.87105C8.72441 2.55527 8.18683 2.58087 7.87105 2.92823L9.12895 4.07177ZM9.12895 8.42823L6.62895 5.67823L5.37105 6.82177L7.87105 9.57177L9.12895 8.42823ZM6.62895 6.82177L9.12895 4.07177L7.87105 2.92823L5.37105 5.67823L6.62895 6.82177Z" fill="#616D8B"/>
<path d="M4.12895 2.92823C3.81317 2.58087 3.27559 2.55527 2.92823 2.87105C2.58087 3.18683 2.55527 3.72441 2.87105 4.07177L4.12895 2.92823ZM6 6.25L6.62895 6.82177C6.92368 6.49756 6.92368 6.00244 6.62895 5.67823L6 6.25ZM2.87105 8.42823C2.55527 8.77559 2.58087 9.31317 2.92823 9.62895C3.27559 9.94473 3.81317 9.91913 4.12895 9.57177L2.87105 8.42823ZM2.87105 4.07177L5.37105 6.82177L6.62895 5.67823L4.12895 2.92823L2.87105 4.07177ZM5.37105 5.67823L2.87105 8.42823L4.12895 9.57177L6.62895 6.82177L5.37105 5.67823Z" fill="#616D8B"/>
</svg>
