<svg width="28" height="24" viewBox="0 0 28 24" fill="none" xmlns="http://www.w3.org/2000/svg">
<path d="M18.7848 18.6048C19.1188 18.9346 19.657 18.9313 19.9869 18.5973C20.3167 18.2633 20.3134 17.7251 19.9794 17.3952L18.7848 18.6048ZM13.813 12.5L13.2157 11.8952C13.054 12.0549 12.963 12.2727 12.963 12.5C12.963 12.7273 13.054 12.9451 13.2157 13.1048L13.813 12.5ZM19.9794 7.60478C20.3134 7.27491 20.3167 6.73673 19.9869 6.40272C19.657 6.06871 19.1188 6.06535 18.7848 6.39522L19.9794 7.60478ZM19.9794 17.3952L14.4103 11.8952L13.2157 13.1048L18.7848 18.6048L19.9794 17.3952ZM14.4103 13.1048L19.9794 7.60478L18.7848 6.39522L13.2157 11.8952L14.4103 13.1048Z" fill="#616D8B"/>
<path d="M8.84116 6.39522C8.50714 6.06535 7.96897 6.06871 7.6391 6.40272C7.30923 6.73673 7.31259 7.27491 7.6466 7.60478L8.84116 6.39522ZM13.813 12.5L14.4103 13.1048C14.572 12.9451 14.663 12.7273 14.663 12.5C14.663 12.2727 14.572 12.0549 14.4103 11.8952L13.813 12.5ZM7.6466 17.3952C7.31259 17.7251 7.30923 18.2633 7.6391 18.5973C7.96897 18.9313 8.50715 18.9346 8.84116 18.6048L7.6466 17.3952ZM7.6466 7.60478L13.2157 13.1048L14.4103 11.8952L8.84116 6.39522L7.6466 7.60478ZM13.2157 11.8952L7.6466 17.3952L8.84116 18.6048L14.4103 13.1048L13.2157 11.8952Z" fill="#616D8B"/>
</svg>
