<svg width="14" height="14" viewBox="0 0 14 14" fill="none" xmlns="http://www.w3.org/2000/svg">
<path d="M12.936 11.9027L8.03329 7L12.936 2.09729C13.2213 1.81195 13.2213 1.34934 12.936 1.064C12.6507 0.778666 12.188 0.778666 11.9027 1.064L7 5.96671L2.09729 1.064C1.81195 0.778666 1.34934 0.778666 1.064 1.064C0.778666 1.34934 0.778666 1.81195 1.064 2.09729L5.96671 7L1.064 11.9027C0.778666 12.188 0.778666 12.6507 1.064 12.936C1.34934 13.2213 1.81195 13.2213 2.09729 12.936L7 8.03329L11.9027 12.936C12.188 13.2213 12.6507 13.2213 12.936 12.936C13.2213 12.6507 13.2213 12.188 12.936 11.9027Z" fill="#666F87" stroke="#666F87" stroke-width="0.3"/>
</svg>
