<svg width="16" height="16" viewBox="0 0 16 16" fill="none" xmlns="http://www.w3.org/2000/svg">
<path d="M12.3348 2.66699H5.66649C5.40138 2.66699 5.14713 2.77231 4.95967 2.95977C4.77221 3.14723 4.66689 3.40148 4.66689 3.66659V4.66619H3.66623C3.53487 4.66619 3.4048 4.69208 3.28345 4.74238C3.1621 4.79268 3.05186 4.86641 2.95902 4.95934C2.86619 5.05228 2.79258 5.1626 2.74241 5.284C2.69224 5.4054 2.66649 5.5355 2.66663 5.66686V12.3351C2.66663 12.6002 2.77194 12.8545 2.9594 13.042C3.14686 13.2294 3.40112 13.3347 3.66623 13.3347H10.3345C10.5996 13.3347 10.8539 13.2294 11.0413 13.042C11.2288 12.8545 11.3341 12.6002 11.3341 12.3351V11.3345H12.3337C12.5988 11.3345 12.8531 11.2291 13.0405 11.0417C13.228 10.8542 13.3333 10.6 13.3333 10.3349V3.66659C13.3333 3.40167 13.2281 3.14758 13.0409 2.96015C12.8537 2.77271 12.5997 2.66728 12.3348 2.66699V2.66699ZM10.2095 12.3351H3.79224C3.7591 12.3351 3.72732 12.322 3.70389 12.2985C3.68046 12.2751 3.66729 12.2433 3.66729 12.2102V5.79288C3.66729 5.75974 3.68046 5.72796 3.70389 5.70452C3.72732 5.68109 3.7591 5.66793 3.79224 5.66793H4.66689V10.3349C4.66689 10.6 4.77221 10.8542 4.95967 11.0417C5.14713 11.2291 5.40138 11.3345 5.66649 11.3345H10.3345V12.2091C10.3346 12.2256 10.3315 12.242 10.3253 12.2573C10.3191 12.2725 10.3099 12.2864 10.2983 12.2982C10.2867 12.3099 10.2728 12.3192 10.2576 12.3255C10.2424 12.3319 10.226 12.3351 10.2095 12.3351ZM12.2098 10.3349H5.79251C5.75937 10.3349 5.72759 10.3217 5.70416 10.2983C5.68072 10.2748 5.66756 10.243 5.66756 10.2099V3.79261C5.66742 3.77611 5.67055 3.75975 5.67676 3.74447C5.68298 3.72918 5.69216 3.71528 5.70378 3.70357C5.71539 3.69185 5.72922 3.68255 5.74445 3.6762C5.75968 3.66986 5.77601 3.66659 5.79251 3.66659H12.2098C12.2262 3.66659 12.2425 3.66982 12.2576 3.6761C12.2728 3.68238 12.2866 3.69159 12.2982 3.70319C12.3098 3.71479 12.319 3.72857 12.3252 3.74373C12.3315 3.75888 12.3348 3.77513 12.3348 3.79154V10.2099C12.3348 10.243 12.3216 10.2748 12.2982 10.2983C12.2747 10.3217 12.2429 10.3349 12.2098 10.3349Z" fill="#616D8B"/>
</svg>
