<svg xmlns="http://www.w3.org/2000/svg" xmlns:xlink="http://www.w3.org/1999/xlink" width="133" height="133" viewBox="0 0 133 133">
  <defs>
    <linearGradient id="linear-gradient" x1="1" x2="-0.014" gradientUnits="objectBoundingBox">
      <stop offset="0" stop-color="#333e40"/>
      <stop offset="1" stop-color="gray"/>
    </linearGradient>
    <filter id="Ellipse_737" x="0" y="0" width="133" height="133" filterUnits="userSpaceOnUse">
      <feOffset dy="3" input="SourceAlpha"/>
      <feGaussianBlur stdDeviation="3.5" result="blur"/>
      <feFlood flood-opacity="0.161"/>
      <feComposite operator="in" in2="blur"/>
      <feComposite in="SourceGraphic"/>
    </filter>
    <clipPath id="clip-path">
      <rect id="Rectangle_5951" data-name="Rectangle 5951" width="110" height="110" rx="55" transform="translate(14.153 309.396)" fill="none"/>
    </clipPath>
    <radialGradient id="radial-gradient" cx="0.5" cy="0.5" r="0.5" gradientUnits="objectBoundingBox">
      <stop offset="0" stop-color="#a3a3a3"/>
      <stop offset="1" stop-color="#777"/>
    </radialGradient>
    <filter id="Path_10384" x="-18.826" y="39.336" width="129.257" height="108.499" filterUnits="userSpaceOnUse">
      <feOffset dy="3" input="SourceAlpha"/>
      <feGaussianBlur stdDeviation="3" result="blur-2"/>
      <feFlood flood-opacity="0.102"/>
      <feComposite operator="in" in2="blur-2"/>
      <feComposite in="SourceGraphic"/>
    </filter>
    <filter id="Path_10385" x="2.362" y="-19.483" width="149.837" height="133.713" filterUnits="userSpaceOnUse">
      <feOffset dy="3" input="SourceAlpha"/>
      <feGaussianBlur stdDeviation="3" result="blur-3"/>
      <feFlood flood-opacity="0.161"/>
      <feComposite operator="in" in2="blur-3"/>
      <feComposite in="SourceGraphic"/>
    </filter>
  </defs>
  <g id="Component_97_39" data-name="Component 97 – 39" transform="translate(0 0) scale(1.192)">
    <g transform="matrix(1, 0, 0, 1, -10.5, -7.5)" filter="url(#Ellipse_737)">
      <circle id="Ellipse_737-2" data-name="Ellipse 737" cx="56" cy="56" r="56" transform="translate(10.5 7.5)" fill="url(#linear-gradient)"/>
    </g>
    <g id="Mask_Group_9" data-name="Mask Group 9" transform="translate(-13.153 -308.395)" opacity="0.6" clip-path="url(#clip-path)">
      <rect id="Rectangle_5950" data-name="Rectangle 5950" width="110" height="110" transform="translate(14.153 309.396)" fill="none"/>
      <g id="Group_11369" data-name="Group 11369" transform="translate(-34.842 336.207) rotate(-30)">
        <g transform="matrix(0.87, 0.5, -0.5, 0.87, 50.13, -11.83)" filter="url(#Path_10384)">
          <path id="Path_10384-2" data-name="Path 10384" d="M26.784,0A30.183,30.183,0,0,0,58.09,18.49a30.444,30.444,0,0,0,14.879-6.027l27.813,7.655A56,56,0,0,1,58.114,44.353,55.707,55.707,0,0,1,15.755,28.721,56.009,56.009,0,0,1,0,.27Z" transform="matrix(0.87, 0.5, -0.5, 0.87, 13.2, 46.08)" stroke="rgba(0,0,0,0)" stroke-width="1" fill="url(#radial-gradient)"/>
        </g>
        <g transform="matrix(0.87, 0.5, -0.5, 0.87, 50.13, -11.83)" filter="url(#Path_10385)">
          <path id="Path_10385-2" data-name="Path 10385" d="M29.515,67.3l-28.34.283A64.024,64.024,0,0,1,0,56.043,55.073,55.073,0,0,1,16.609,16.19,56.085,56.085,0,0,1,57.161.011a55.88,55.88,0,0,1,54.473,56,60.95,60.95,0,0,1-1.063,10.975ZM27.4,45.9l56.908.167A29.952,29.952,0,0,0,73.149,31.226,30.12,30.12,0,0,0,27.4,45.9Z" transform="matrix(0.87, 0.5, -0.5, 0.87, 45.84, -12.8)" fill="#7fffd4" stroke="rgba(0,0,0,0)" stroke-width="1"/>
        </g>
      </g>
    </g>
  </g>
</svg>
