<svg width="100" height="100" viewBox="0 0 100 100" fill="none" xmlns="http://www.w3.org/2000/svg">
<circle cx="50" cy="50" r="50" fill="#232731"/>
<circle cx="50" cy="50" r="50" fill="url(#paint0_linear_604_30023)" fill-opacity="0.1"/>
<path d="M23.2742 46.6087C21.3655 61.3756 31.8128 74.8365 46.5797 76.7451C48.9906 77.0465 51.4015 77.0465 53.712 76.6447L71.9948 94.827C47.1824 106.982 17.2469 96.8361 5.09186 72.0238C-0.533606 60.4715 -1.53815 47.2114 2.27913 35.0564L23.2742 46.6087Z" fill="url(#paint1_radial_604_30023)"/>
<path d="M24.4795 47.3119L2.37939 35.0564C3.4844 31.7414 4.89077 28.6273 6.49804 25.5132C13.0276 13.8604 23.9772 5.22133 36.9359 1.80586C63.4559 -5.52734 90.8801 10.1436 98.2133 36.6637C101.729 49.4214 100.021 63.0833 93.3915 74.6356C91.7842 77.4483 89.8755 80.1606 87.766 82.672L24.4795 47.3119ZM32.3149 29.6318L76.515 54.7456C79.1269 40.0791 69.4832 26.1159 54.8168 23.4036C46.7804 21.9973 38.5431 24.3077 32.3149 29.6318Z" fill="#7FFFD4"/>
<defs>
<linearGradient id="paint0_linear_604_30023" x1="6.33568e-07" y1="87.5" x2="98.9646" y2="86.9042" gradientUnits="userSpaceOnUse">
<stop stop-color="#FEFEFF" stop-opacity="0.4"/>
<stop offset="1" stop-color="#EFF7FF" stop-opacity="0.5"/>
</linearGradient>
<radialGradient id="paint1_radial_604_30023" cx="0" cy="0" r="1" gradientUnits="userSpaceOnUse" gradientTransform="translate(29.4912 73.4061) rotate(29.4366) scale(44.8373 19.7836)">
<stop stop-color="#979797"/>
<stop offset="1" stop-color="#777777"/>
</radialGradient>
</defs>
</svg>
