<svg  viewBox="0 0 79 79" fill="none" xmlns="http://www.w3.org/2000/svg">
<g opacity="0.03">
<circle cx="39.5" cy="39.5" r="39.5" fill="#1D2129"/>
<path d="M18.3866 36.8209C16.8788 48.4867 25.1321 59.1209 36.798 60.6287C38.7026 60.8668 40.6072 60.8668 42.4325 60.5493L56.8759 74.9134C37.2741 84.5158 13.625 76.5005 4.02257 56.8988C-0.421549 47.7725 -1.21514 37.2971 1.80051 27.6946L18.3866 36.8209Z" fill="#3AFFD6"/>
<path d="M19.3387 37.3764L1.87964 27.6946C2.75259 25.0757 3.86362 22.6156 5.13337 20.1554C10.2917 10.9497 18.9419 4.12485 29.1792 1.42663C50.1301 -4.3666 71.7952 8.01345 77.5884 28.9643C80.366 39.0429 79.0169 49.8358 73.7792 58.9621C72.5094 61.1842 71.0016 63.3269 69.335 65.3109L19.3387 37.3764ZM25.5287 23.4092L60.4468 43.249C62.5101 31.6625 54.8917 20.6316 43.3052 18.4889C36.9565 17.3779 30.449 19.2031 25.5287 23.4092Z" fill="#3AFFD6"/>
</g>
</svg>
