<svg width="89" height="27" viewBox="0 0 89 27" fill="none" xmlns="http://www.w3.org/2000/svg">
<g clip-path="url(#clip0_2843_118912)">
<g filter="url(#filter0_d_2843_118912)">
<path d="M6.22747 12.6329C6.03007 14.1982 6.32391 15.7794 7.06448 17.1369C7.80505 18.4944 8.95203 19.5544 10.3317 20.1563C11.4799 20.6498 12.7389 20.8091 13.9773 20.6178L18.6265 25.4577C16.8693 26.3736 14.9431 26.862 12.994 26.8857C11.0448 26.9095 9.12392 26.4679 7.37698 25.5946C5.77857 24.7972 4.36317 23.6551 3.22189 22.2417C2.08062 20.8283 1.23876 19.1751 0.7505 17.3883C0.0541214 14.8429 0.0976916 12.125 0.8757 9.57828L6.22747 12.6329Z" fill="url(#paint0_radial_2843_118912)"/>
</g>
<g filter="url(#filter1_d_2843_118912)">
<path d="M6.45141 13.0124L0.795543 9.78523C1.0831 8.90146 1.44623 8.04542 1.88046 7.22766C2.71669 5.66406 3.84315 4.28796 5.1922 3.18197C6.54126 2.07598 8.08509 1.26292 9.73102 0.791584C12.1729 0.0679093 14.7522 0.115498 17.1424 0.928323C19.5326 1.74115 21.6261 3.28265 23.1579 5.35764C24.6896 7.43262 25.5908 9.94776 25.7471 12.5846C25.9035 15.2214 25.3081 17.8613 24.0363 20.1699C23.6107 20.9409 23.12 21.671 22.57 22.3515L6.45141 13.0124ZM8.47807 8.27726L19.7496 14.9111C20.0283 13.4138 19.8474 11.8709 19.2329 10.5047C18.7833 9.50119 18.1157 8.6246 17.2827 7.94372C16.4497 7.26284 15.4738 6.79621 14.4318 6.58045C13.3897 6.36469 12.3098 6.40569 11.2768 6.70023C10.2438 6.99476 9.28591 7.53481 8.47826 8.27798L8.47807 8.27726Z" fill="#7FFFD4"/>
</g>
<path d="M39.4191 0.260962C40.4739 0.23502 41.5221 0.441588 42.4949 0.867123C43.4677 1.29266 44.3432 1.92755 45.0639 2.73016C45.809 3.53851 46.3929 4.49273 46.7817 5.5376C47.1705 6.58248 47.3565 7.69728 47.3289 8.81751C47.3566 9.93762 47.1707 11.0523 46.782 12.0971C46.3933 13.1419 45.8095 14.0961 45.0644 14.9043C44.6706 15.3318 44.2352 15.7155 43.7651 16.0491L40.7565 17.2701C40.3145 17.3425 39.8675 17.3774 39.4201 17.3746H32.8938V0.260962H39.4191ZM40.7565 17.2701L43.7651 16.0491L42.1725 13.3172C42.4357 13.1303 42.6775 12.9127 42.8931 12.6686C43.8083 11.6187 44.289 10.2353 44.231 8.81855C44.289 7.40158 43.8081 6.01796 42.8926 4.968C42.4476 4.47869 41.9076 4.09371 41.3086 3.83869C40.7096 3.58367 40.0653 3.46446 39.4186 3.48899H36.1331V14.1481H38.9803L40.7565 17.2701ZM52.049 12.5573C52.4558 14.0893 53.559 14.8552 55.3585 14.8552C55.8589 14.8883 56.3594 14.7944 56.8172 14.5815C57.275 14.3687 57.6763 14.0432 57.9866 13.6332L60.4282 15.1002C59.2702 16.8441 57.5644 17.7161 55.3109 17.7161C54.4536 17.7572 53.5972 17.6158 52.794 17.3005C51.9909 16.9852 51.258 16.5027 50.6399 15.8825C50.0594 15.2782 49.6037 14.5566 49.301 13.7619C48.9983 12.9673 48.855 12.1166 48.8799 11.2622C48.8567 10.4118 48.9986 9.56532 49.297 8.77346C49.5955 7.98159 50.0444 7.26064 50.6169 6.65383C51.1972 6.04178 51.893 5.56171 52.6605 5.24395C53.428 4.92619 54.2503 4.77764 55.0757 4.80767C55.8723 4.78349 56.6645 4.93675 57.3996 5.2572C58.1347 5.57766 58.7955 6.05791 59.338 6.66584C60.4577 7.90728 61.0605 9.55957 61.0148 11.2622C61.0124 11.6968 60.9732 12.1304 60.8975 12.5579L52.049 12.5573ZM52.0019 10.1127H57.9861C57.8685 9.37491 57.4869 8.71095 56.918 8.25452C56.3833 7.84866 55.7368 7.63409 55.0752 7.64297C54.3511 7.61353 53.639 7.84214 53.0564 8.29108C52.5088 8.74907 52.1347 9.39424 52.0004 10.1122L52.0019 10.1127ZM75.7789 17.3741H72.0938L68.9011 11.8001L65.7089 17.3735H62.0483L67.0698 8.59712L62.3051 0.260962H65.9656L68.9001 5.3952L71.835 0.260962H75.4956L70.7319 8.57309L75.7789 17.3741ZM79.1822 12.5589C79.589 14.0908 80.6922 14.8568 82.4917 14.8568C82.9923 14.89 83.4931 14.7961 83.951 14.5831C84.409 14.3702 84.8104 14.0445 85.1208 13.6342L87.5619 15.1012C86.4042 16.8448 84.6988 17.7167 82.4456 17.7167C81.5883 17.7577 80.7319 17.6163 79.9288 17.301C79.1256 16.9858 78.3927 16.5033 77.7747 15.883C77.194 15.2788 76.7382 14.5571 76.4355 13.7625C76.1327 12.9679 75.9893 12.1172 76.0141 11.2627C75.9909 10.4123 76.1328 9.56585 76.4312 8.77398C76.7297 7.98211 77.1786 7.26116 77.7511 6.65435C78.3314 6.04235 79.0273 5.56232 79.7947 5.24456C80.5622 4.9268 81.3846 4.77822 82.2099 4.80819C83.0065 4.78401 83.7988 4.93727 84.5338 5.25772C85.2689 5.57818 85.9297 6.05843 86.4722 6.66636C87.5923 7.90745 88.1956 9.55954 88.1506 11.2622C88.1481 11.6968 88.1089 12.1304 88.0332 12.5579L79.1822 12.5589ZM79.1351 10.1143H85.1208C85.0032 9.37648 84.6216 8.71252 84.0527 8.25609C83.5182 7.84983 82.8716 7.63507 82.2099 7.64401C81.4858 7.61457 80.7737 7.84319 80.1911 8.29212C79.6435 8.75011 79.2694 9.39528 79.1351 10.1132V10.1143Z" fill="white"/>
<path d="M35.5811 20.8599C35.8646 20.8447 36.1479 20.8921 36.4126 20.999C36.6772 21.106 36.9171 21.27 37.1165 21.4803C37.5067 21.9372 37.7085 22.5357 37.6782 23.1463V26.566H36.9716V23.1448C36.9969 22.7214 36.8605 22.3048 36.592 21.9859C36.4501 21.8431 36.2811 21.7327 36.0959 21.6616C35.9107 21.5906 35.7134 21.5605 35.5164 21.5733C35.2852 21.5636 35.0546 21.6036 34.8389 21.6908C34.6232 21.7781 34.4271 21.9107 34.2628 22.0804C34.0877 22.2958 33.955 22.5451 33.8724 22.8139C33.7898 23.0827 33.7589 23.3659 33.7814 23.6472V26.566H33.0774V20.9936H33.7834V21.8632C33.9673 21.5416 34.2317 21.2783 34.5485 21.1015C34.8652 20.9247 35.2222 20.8412 35.5811 20.8599V20.8599ZM44.4627 20.8599C44.8253 20.8469 45.1861 20.9187 45.5186 21.0701C45.8511 21.2215 46.1467 21.4486 46.3837 21.7347C46.868 22.3041 47.1299 23.0417 47.1179 23.8023C47.1179 23.8841 47.1107 23.9993 47.0963 24.148H42.3978C42.4487 24.6728 42.6967 25.1554 43.0877 25.4907C43.4959 25.8284 44.0059 26.004 44.5269 25.9863C44.8937 25.9963 45.2568 25.9063 45.5799 25.7252C45.8606 25.5666 46.0927 25.3288 46.2494 25.039L46.8701 25.4181C46.6337 25.813 46.3014 26.136 45.9069 26.3545C45.4787 26.5904 45.0001 26.7093 44.5159 26.7002C44.1373 26.7159 43.7597 26.6509 43.4061 26.5091C43.0526 26.3673 42.7306 26.1517 42.4599 25.8756C42.1977 25.6008 41.9922 25.2729 41.8563 24.9121C41.7204 24.5514 41.6569 24.1655 41.6697 23.7782C41.6592 23.394 41.723 23.0116 41.8572 22.6535C41.9914 22.2955 42.1933 21.9692 42.4509 21.6939C42.7121 21.4167 43.0259 21.1993 43.3723 21.0554C43.7187 20.9115 44.09 20.8444 44.4627 20.8583V20.8599ZM44.4627 21.5733C43.9564 21.5545 43.4619 21.736 43.0788 22.0812C42.6956 22.4265 42.4522 22.91 42.3973 23.4346H46.3893C46.3473 22.9079 46.1142 22.4177 45.7374 22.0637C45.385 21.7406 44.9296 21.5658 44.4602 21.5733H44.4627ZM53.8578 21.707H52.3168V25.0839C52.2959 25.3156 52.3567 25.5473 52.4878 25.7356C52.5553 25.8046 52.6359 25.8581 52.7244 25.8926C52.813 25.9271 52.9074 25.942 53.0018 25.9362C53.2301 25.94 53.5155 25.9344 53.8578 25.9195V26.566C53.2938 26.7077 52.7006 26.6488 52.1724 26.3989C51.9731 26.2533 51.8156 26.0541 51.7167 25.8224C51.6177 25.5908 51.5811 25.3355 51.6108 25.0839V21.707H50.4876V20.9936H51.6108V19.6561L52.3168 19.4331V20.9931H53.8583L53.8578 21.707ZM64.4177 20.9936H65.1453L63.4996 26.566H62.7288L61.3484 22.0747L59.9684 26.566H59.1977L57.5479 20.9936H58.278L59.5938 25.6192L60.9953 20.9941H61.7014L63.1054 25.6192L64.4177 20.9936ZM73.4352 25.8584C72.9001 26.3981 72.1844 26.6999 71.4394 26.6999C70.6945 26.6999 69.9788 26.3981 69.4437 25.8584C69.1769 25.5892 68.9665 25.2654 68.8256 24.9074C68.6848 24.5495 68.6166 24.165 68.6253 23.7782C68.6168 23.3918 68.6851 23.0076 68.826 22.6499C68.9668 22.2922 69.1771 21.9687 69.4437 21.6997C69.9788 21.16 70.6945 20.8582 71.4394 20.8582C72.1844 20.8582 72.9001 21.16 73.4352 21.6997C73.7019 21.9687 73.9123 22.2922 74.0532 22.6499C74.1941 23.0075 74.2625 23.3917 74.2541 23.7782C74.2626 24.1647 74.1943 24.5489 74.0534 24.9066C73.9126 25.2643 73.7023 25.5878 73.4357 25.8568L73.4352 25.8584ZM69.9416 25.345C70.3406 25.7555 70.8789 25.9857 71.4397 25.9857C72.0005 25.9857 72.5388 25.7555 72.9378 25.345C73.1362 25.1406 73.2926 24.8963 73.3974 24.627C73.5022 24.3576 73.5533 24.0688 73.5475 23.7782C73.5532 23.4876 73.5021 23.1988 73.3972 22.9295C73.2922 22.6601 73.1358 22.4158 72.9373 22.2115C72.5383 21.801 72 21.5708 71.4392 21.5708C70.8784 21.5708 70.3401 21.801 69.9411 22.2115C69.7426 22.4158 69.5861 22.6601 69.4812 22.9295C69.3763 23.1988 69.3252 23.4876 69.3309 23.7782C69.3252 24.0689 69.3765 24.3577 69.4815 24.6271C69.5865 24.8964 69.743 25.1407 69.9416 25.345V25.345ZM79.0805 21.9185C79.2329 21.5931 79.4754 21.3227 79.7768 21.1422C80.0782 20.9617 80.4246 20.8794 80.7713 20.9059V21.6193C80.3284 21.6035 79.8961 21.7628 79.5613 22.0653C79.3887 22.2494 79.2563 22.4702 79.1733 22.7126C79.0902 22.955 79.0584 23.2132 79.08 23.4696V26.566H78.3739V20.9936H79.08L79.0805 21.9185ZM89.0001 26.5665H88.0583L85.3831 23.8801V26.566H84.6761V18.7646H85.3831V23.4565L87.9295 20.9936H88.8927L86.1303 23.6686L89.0001 26.5665Z" fill="#7FFFD4"/>
</g>
<defs>
<filter id="filter0_d_2843_118912" x="-5.84452" y="6.52665" width="30.5739" height="29.5145" filterUnits="userSpaceOnUse" color-interpolation-filters="sRGB">
<feFlood flood-opacity="0" result="BackgroundImageFix"/>
<feColorMatrix in="SourceAlpha" type="matrix" values="0 0 0 0 0 0 0 0 0 0 0 0 0 0 0 0 0 0 127 0" result="hardAlpha"/>
<feOffset dy="3.05147"/>
<feGaussianBlur stdDeviation="3.05147"/>
<feColorMatrix type="matrix" values="0 0 0 0 0 0 0 0 0 0 0 0 0 0 0 0 0 0 0.102 0"/>
<feBlend mode="normal" in2="BackgroundImageFix" result="effect1_dropShadow_2843_118912"/>
<feBlend mode="normal" in="SourceGraphic" in2="effect1_dropShadow_2843_118912" result="shape"/>
</filter>
<filter id="filter1_d_2843_118912" x="-5.30741" y="-2.77022" width="37.182" height="34.2762" filterUnits="userSpaceOnUse" color-interpolation-filters="sRGB">
<feFlood flood-opacity="0" result="BackgroundImageFix"/>
<feColorMatrix in="SourceAlpha" type="matrix" values="0 0 0 0 0 0 0 0 0 0 0 0 0 0 0 0 0 0 127 0" result="hardAlpha"/>
<feOffset dy="3.05147"/>
<feGaussianBlur stdDeviation="3.05147"/>
<feColorMatrix type="matrix" values="0 0 0 0 0 0 0 0 0 0 0 0 0 0 0 0 0 0 0.161 0"/>
<feBlend mode="normal" in2="BackgroundImageFix" result="effect1_dropShadow_2843_118912"/>
<feBlend mode="normal" in="SourceGraphic" in2="effect1_dropShadow_2843_118912" result="shape"/>
</filter>
<radialGradient id="paint0_radial_2843_118912" cx="0" cy="0" r="1" gradientUnits="userSpaceOnUse" gradientTransform="translate(8.37363 20.0483) rotate(30.3171) scale(11.5968 5.31799)">
<stop stop-color="#979797"/>
<stop offset="1" stop-color="#777777"/>
</radialGradient>
<clipPath id="clip0_2843_118912">
<rect width="89" height="26.7" fill="white"/>
</clipPath>
</defs>
</svg>
