<svg width="57" height="57" viewBox="0 0 57 57" fill="none" xmlns="http://www.w3.org/2000/svg">
<g opacity="0.03">
<circle cx="26" cy="28" r="31" fill="#1D2129"/>
<path d="M9.43 25.8978C8.24664 35.0532 14.724 43.399 23.8794 44.5824C25.3742 44.7692 26.869 44.7692 28.3014 44.5201L39.6368 55.7931C24.2531 63.3293 5.69308 57.0388 -1.84304 41.6551C-5.33084 34.4927 -5.95366 26.2715 -3.58694 18.7354L9.43 25.8978Z" fill="#3AFFD6"/>
<path d="M10.1773 26.3334L-3.52478 18.735C-2.83968 16.6797 -1.96773 14.7489 -0.971218 12.8182C3.07711 5.59347 9.86585 0.237222 17.9002 -1.88037C34.3427 -6.42695 51.3456 3.28904 55.8922 19.7315C58.0721 27.6413 57.0133 36.1117 52.9027 43.2741C51.9062 45.018 50.7228 46.6996 49.4149 48.2566L10.1773 26.3334ZM15.0353 15.3717L42.4393 30.9422C44.0587 21.8491 38.0796 13.1919 28.9864 11.5103C24.0039 10.6383 18.8967 12.0708 15.0353 15.3717Z" fill="#3AFFD6"/>
</g>
</svg>
