<svg width="26" height="26" viewBox="0 0 26 26" fill="none" xmlns="http://www.w3.org/2000/svg">
<circle cx="13" cy="13" r="13" fill="#1D2129"/>
<path d="M6.05129 12.1179C5.55504 15.9572 8.27134 19.4571 12.1107 19.9533C12.7376 20.0317 13.3644 20.0317 13.9651 19.9272L18.7186 24.6546C12.2674 27.8149 4.48419 25.177 1.32388 18.7258C-0.138738 15.7222 -0.39992 12.2746 0.592574 9.11426L6.05129 12.1179Z" fill="url(#paint0_radial_3761_64539)"/>
<path d="M6.36467 12.3011L0.618652 9.11467C0.905953 8.25276 1.27161 7.4431 1.6895 6.63343C3.38719 3.60371 6.23408 1.35754 9.60333 0.469524C16.4985 -1.43711 23.6288 2.63734 25.5355 9.53256C26.4496 12.8496 26.0056 16.4017 24.2818 19.4053C23.8639 20.1366 23.3676 20.8418 22.8192 21.4947L6.36467 12.3011ZM8.40189 7.70428L19.8939 14.2338C20.573 10.4206 18.0656 6.79014 14.2524 6.08495C12.1629 5.71929 10.0212 6.32001 8.40189 7.70428Z" fill="#3AFFD6"/>
<defs>
<radialGradient id="paint0_radial_3761_64539" cx="0" cy="0" r="1" gradientUnits="userSpaceOnUse" gradientTransform="translate(7.66771 19.0852) rotate(29.4366) scale(11.6577 5.14374)">
<stop stop-color="#979797"/>
<stop offset="1" stop-color="#777777"/>
</radialGradient>
</defs>
</svg>
