<svg width="40" height="41" viewBox="0 0 40 41" fill="none" xmlns="http://www.w3.org/2000/svg">
<g opacity="0.5">
<g opacity="0.8">
<path d="M19.9336 10.769L19.8107 11.1867V23.3064L19.9336 23.4291L25.5594 20.1037L19.9336 10.769Z" fill="white"/>
<path d="M19.9336 10.769L14.3077 20.1037L19.9336 23.4291V17.5466V10.769Z" fill="white"/>
<path d="M19.9335 25.2593L19.8643 25.3437V29.661L19.9335 29.8632L25.5627 21.9355L19.9335 25.2593Z" fill="white"/>
<path d="M19.9336 29.8633V25.2593L14.3077 21.9355L19.9336 29.8633Z" fill="white"/>
<path d="M19.9337 23.4293L25.5595 20.104L19.9337 17.5469V23.4293Z" fill="white"/>
<path d="M14.3077 20.104L19.9335 23.4294V17.5469L14.3077 20.104Z" fill="white"/>
</g>
<circle cx="20" cy="21" r="19" fill="url(#paint0_linear_3165_98796)" stroke="#2F3E56" stroke-width="2"/>
<circle cx="20" cy="21" r="20" fill="#20232D"/>
<path d="M9.30968 19.6434C8.54622 25.5501 12.7251 30.9345 18.6319 31.698C19.5962 31.8185 20.5606 31.8185 21.4848 31.6578L28.7979 38.9307C18.873 43.7927 6.89876 39.7343 2.03675 29.8094C-0.213442 25.1885 -0.615262 19.8845 0.911652 15.0225L9.30968 19.6434Z" fill="url(#paint1_radial_3165_98796)"/>
<path d="M9.79181 19.9248L0.951782 15.0226C1.39378 13.6966 1.95633 12.4509 2.59924 11.2053C5.21107 6.54418 9.5909 3.08853 14.7744 1.72234C25.3824 -1.21094 36.3521 5.05744 39.2853 15.6655C40.6917 20.7686 40.0086 26.2333 37.3566 30.8542C36.7137 31.9793 35.9502 33.0643 35.1064 34.0688L9.79181 19.9248ZM12.926 12.8527L30.606 22.8982C31.6508 17.0317 27.7933 11.4464 21.9267 10.3615C18.7122 9.79891 15.4173 10.7231 12.926 12.8527Z" fill="#3AFFD6"/>
<circle cx="20" cy="21" r="20" fill="#181E2C" fill-opacity="0.9"/>
</g>
<defs>
<linearGradient id="paint0_linear_3165_98796" x1="0" y1="1" x2="32.5529" y2="-14.57" gradientUnits="userSpaceOnUse">
<stop stop-color="#191E2B"/>
<stop offset="1" stop-color="#272E3E"/>
</linearGradient>
<radialGradient id="paint1_radial_3165_98796" cx="0" cy="0" r="1" gradientUnits="userSpaceOnUse" gradientTransform="translate(11.7965 30.3623) rotate(29.4366) scale(17.9349 7.91344)">
<stop stop-color="#979797"/>
<stop offset="1" stop-color="#777777"/>
</radialGradient>
</defs>
</svg>
