<svg width="13" height="12" viewBox="0 0 13 12" fill="none" xmlns="http://www.w3.org/2000/svg">
<path d="M11.744 2.32L11.7533 2.30867L9.08667 0.148667L8.24667 1.18467L9.62467 2.30067C9.28318 2.50813 9.01192 2.81343 8.84609 3.17695C8.68026 3.54048 8.6275 3.94545 8.69467 4.33933C8.794 4.93867 9.20533 5.45667 9.738 5.74733C10.336 6.074 10.8613 6.04467 11.3273 5.87867L11.3173 10C11.3181 10.1104 11.2914 10.2192 11.2396 10.3167C11.1877 10.4142 11.1124 10.4972 11.0204 10.5582C10.9284 10.6192 10.8226 10.6563 10.7127 10.6662C10.6027 10.676 10.4921 10.6583 10.3907 10.6147C10.3113 10.5807 10.2392 10.5316 10.1787 10.47C10.117 10.4082 10.0682 10.335 10.0349 10.2543C10.0016 10.1737 9.98454 10.0872 9.98467 10L10 8.66667C10.0007 8.40425 9.94935 8.14431 9.849 7.90184C9.74865 7.65937 9.60126 7.43919 9.41533 7.254C9.22961 7.06787 9.00901 6.92019 8.76615 6.81941C8.52329 6.71863 8.26294 6.66672 8 6.66667H7.33333V1.33333C7.33333 0.598 6.73533 0 6 0H1.33333C0.598 0 0 0.598 0 1.33333V10.6667C0 11.402 0.598 12 1.33333 12H6C6.73533 12 7.33333 11.402 7.33333 10.6667V8H8C8.09067 8 8.178 8.018 8.26067 8.052C8.41933 8.12146 8.54581 8.24841 8.61467 8.40733C8.64925 8.48941 8.66694 8.57761 8.66667 8.66667L8.65067 10C8.65067 10.2707 8.70333 10.5327 8.808 10.7787C8.90867 11.018 9.05333 11.232 9.23533 11.4127C9.42039 11.5997 9.64087 11.748 9.88388 11.8488C10.1269 11.9496 10.3876 12.001 10.6507 12C10.9213 12 11.1827 11.948 11.4293 11.8427C11.668 11.7427 11.8827 11.598 12.0633 11.4153C12.25 11.23 12.398 11.0095 12.4988 10.7665C12.5996 10.5236 12.6512 10.263 12.6507 10L12.6667 4C12.666 3.66508 12.5812 3.3357 12.4199 3.04214C12.2587 2.74858 12.0263 2.50026 11.744 2.32ZM1.33333 1.33333H6L6.00067 4H1.33333V1.33333ZM1.33333 10.6667V5.33333H6.00067L6.00133 10.6667H1.33333ZM10.6667 4.66667C10.4899 4.66667 10.3203 4.59643 10.1953 4.4714C10.0702 4.34638 10 4.17681 10 4C10 3.82319 10.0702 3.65362 10.1953 3.5286C10.3203 3.40357 10.4899 3.33333 10.6667 3.33333C10.8435 3.33333 11.013 3.40357 11.1381 3.5286C11.2631 3.65362 11.3333 3.82319 11.3333 4C11.3333 4.17681 11.2631 4.34638 11.1381 4.4714C11.013 4.59643 10.8435 4.66667 10.6667 4.66667Z" fill="#E4F2FF"/>
</svg>
