<svg width="68" height="68" viewBox="0 0 68 68" fill="none" xmlns="http://www.w3.org/2000/svg">
<path d="M66.5 33.7143C66.5 51.4938 51.9612 65.9286 34 65.9286C16.0388 65.9286 1.5 51.4938 1.5 33.7143C1.5 15.9347 16.0388 1.5 34 1.5C51.9612 1.5 66.5 15.9347 66.5 33.7143Z" stroke="#282D35" stroke-width="3"/>
<path d="M43.6078 24.8747C44.5553 23.9351 46.0917 23.9351 47.0393 24.8747C47.9869 25.8144 47.9869 27.3378 47.0393 28.2775L32.4805 42.7139C31.5329 43.6536 29.9965 43.6536 29.0489 42.7139L20.9607 34.6937C20.0131 33.754 20.0131 32.2306 20.9607 31.291C21.9083 30.3513 23.4446 30.3513 24.3922 31.291L30.7647 37.6099L43.6078 24.8747Z" fill="#282D35"/>
</svg>
