<svg width="17" height="18" viewBox="0 0 17 18" fill="none" xmlns="http://www.w3.org/2000/svg">
<path fill-rule="evenodd" clip-rule="evenodd" d="M16.999 17.0269H13.6029V11.0068C13.6029 9.40721 12.8784 8.46626 11.5899 8.46626C10.1882 8.46626 9.35082 9.40721 9.35082 11.0068V17.0269H5.94625V5.92637H9.35182V7.1505C9.73725 6.58855 10.2562 6.13102 10.8621 5.81913C11.4679 5.50724 12.1417 5.35081 12.823 5.36361C15.2311 5.36361 17 6.77516 17 9.78534L16.999 17.0269ZM2.06947 4.13948C1.6605 4.13767 1.26121 4.01476 0.922038 3.78622C0.582871 3.55769 0.319016 3.23396 0.163765 2.85559C0.00851329 2.47723 -0.0311785 2.06125 0.0497188 1.66035C0.130616 1.25946 0.32846 0.891444 0.618289 0.602895C0.908118 0.314346 1.27695 0.118261 1.67819 0.0391387C2.07944 -0.0399837 2.49514 0.00140665 2.87281 0.158331C3.25049 0.315255 3.57322 0.580787 3.80025 0.920962C4.02728 1.26114 4.14844 1.66075 4.14845 2.06972C4.14522 2.61908 3.92499 3.14487 3.53576 3.53257C3.14653 3.92027 2.61984 4.13842 2.07047 4.13948H2.06947ZM0 17.0269H4.25212V5.92637H0V17.0269Z" fill="#616D8B"/>
</svg>
