<svg width="16" height="16" viewBox="0 0 16 16" fill="none" xmlns="http://www.w3.org/2000/svg">
<path d="M6.85714 4H4.57143C4.25584 4 4 4.25584 4 4.57143V11.4286C4 11.7442 4.25584 12 4.57143 12H11.4286C11.7442 12 12 11.7442 12 11.4286V9.14286" stroke="#616D8B" stroke-width="1.1" stroke-linecap="round" stroke-linejoin="round"/>
<path d="M12.1168 6.66658C12.1168 6.97034 12.3631 7.21659 12.6668 7.21659C12.9706 7.21659 13.2168 6.97034 13.2168 6.66659L12.1168 6.66658ZM12.6668 3.33325L13.2168 3.33325C13.2168 3.18738 13.1589 3.04749 13.0557 2.94434C12.9526 2.8412 12.8127 2.78325 12.6668 2.78325V3.33325ZM9.3335 2.78325C9.02974 2.78325 8.7835 3.0295 8.7835 3.33325C8.7835 3.63701 9.02974 3.88325 9.3335 3.88325V2.78325ZM13.2168 6.66659L13.2168 3.33325L12.1168 3.33325L12.1168 6.66658L13.2168 6.66659ZM12.6668 2.78325H9.3335V3.88325H12.6668V2.78325Z" fill="#616D8B"/>
<path d="M8.2776 6.94442C8.06281 7.15921 8.06281 7.50745 8.2776 7.72224C8.49238 7.93703 8.84062 7.93703 9.05541 7.72224L8.2776 6.94442ZM12.3887 4.38891C12.6035 4.17412 12.6035 3.82588 12.3887 3.61109C12.174 3.3963 11.8257 3.3963 11.6109 3.61109L12.3887 4.38891ZM9.05541 7.72224L12.3887 4.38891L11.6109 3.61109L8.2776 6.94442L9.05541 7.72224Z" fill="#616D8B"/>
</svg>
