<svg xmlns="http://www.w3.org/2000/svg" width="15.004" height="15.004" viewBox="0 0 15.004 15.004">
  <path id="Path_10299" data-name="Path 10299" d="M12.66-2.873h-.938a.469.469,0,0,0-.469.469V.878H1.875V-8.5H6.1a.469.469,0,0,0,.469-.469v-.938a.469.469,0,0,0-.469-.469H1.407A1.407,1.407,0,0,0,0-8.968V1.347A1.407,1.407,0,0,0,1.407,2.754H11.722a1.407,1.407,0,0,0,1.407-1.407V-2.4A.469.469,0,0,0,12.66-2.873ZM14.3-12.25H10.55a.7.7,0,0,0-.5,1.2L11.1-10,3.956-2.862a.808.808,0,0,0-.207.5.808.808,0,0,0,.207.5L4.62-1.2a.808.808,0,0,0,.5.207.808.808,0,0,0,.5-.207l7.139-7.141L13.8-7.3A.7.7,0,0,0,15-7.8v-3.751A.7.7,0,0,0,14.3-12.25Z" transform="translate(0 12.25)" fill="#0065c2" opacity="0.996"/>
</svg>
