<svg width="16" height="16" viewBox="0 0 16 16" fill="none" xmlns="http://www.w3.org/2000/svg">
<path d="M6.85714 4H4.57143C4.25584 4 4 4.25584 4 4.57143V11.4286C4 11.7442 4.25584 12 4.57143 12H11.4286C11.7442 12 12 11.7442 12 11.4286V9.14286" stroke="url(#paint0_linear_2053_111468)" stroke-width="1.3" stroke-linecap="round" stroke-linejoin="round"/>
<path d="M12.0168 6.66667C12.0168 7.02565 12.3078 7.31667 12.6668 7.31667C13.0258 7.31667 13.3168 7.02565 13.3168 6.66667L12.0168 6.66667ZM12.6668 3.33333L13.3168 3.33333C13.3168 3.16094 13.2483 2.99561 13.1264 2.87371C13.0046 2.75181 12.8392 2.68333 12.6668 2.68333V3.33333ZM9.3335 2.68333C8.97451 2.68333 8.6835 2.97435 8.6835 3.33333C8.6835 3.69232 8.97451 3.98333 9.3335 3.98333V2.68333ZM13.3168 6.66667L13.3168 3.33333L12.0168 3.33333L12.0168 6.66667L13.3168 6.66667ZM12.6668 2.68333H9.3335V3.98333H12.6668V2.68333Z" fill="url(#paint1_linear_2053_111468)"/>
<path d="M8.20688 6.87371C7.95304 7.12755 7.95304 7.53911 8.20688 7.79295C8.46073 8.04679 8.87228 8.04679 9.12612 7.79295L8.20688 6.87371ZM12.4595 4.45962C12.7133 4.20578 12.7133 3.79422 12.4595 3.54038C12.2056 3.28654 11.7941 3.28654 11.5402 3.54038L12.4595 4.45962ZM9.12612 7.79295L12.4595 4.45962L11.5402 3.54038L8.20688 6.87371L9.12612 7.79295Z" fill="url(#paint2_linear_2053_111468)"/>
<defs>
<linearGradient id="paint0_linear_2053_111468" x1="4" y1="8.95997" x2="10.4226" y2="5.96942" gradientUnits="userSpaceOnUse">
<stop stop-color="#A4EBD4"/>
<stop offset="1" stop-color="#63B49B"/>
</linearGradient>
<linearGradient id="paint1_linear_2053_111468" x1="9.3335" y1="5.39999" x2="12.0096" y2="4.15392" gradientUnits="userSpaceOnUse">
<stop stop-color="#A4EBD4"/>
<stop offset="1" stop-color="#63B49B"/>
</linearGradient>
<linearGradient id="paint2_linear_2053_111468" x1="8.6665" y1="6.06666" x2="11.3426" y2="4.82059" gradientUnits="userSpaceOnUse">
<stop stop-color="#A4EBD4"/>
<stop offset="1" stop-color="#63B49B"/>
</linearGradient>
</defs>
</svg>
