<svg width="9" height="12" viewBox="0 0 9 12" fill="none" xmlns="http://www.w3.org/2000/svg">
<path d="M7.15625 4.26025V3.19775C7.15625 1.71025 5.9875 0.541504 4.5 0.541504C3.0125 0.541504 1.84375 1.71025 1.84375 3.19775V4.26025C0.940625 4.26025 0.25 4.95088 0.25 5.854V9.57275C0.25 10.4759 0.940625 11.1665 1.84375 11.1665H7.15625C8.05937 11.1665 8.75 10.4759 8.75 9.57275V5.854C8.75 4.95088 8.05937 4.26025 7.15625 4.26025ZM2.90625 3.19775C2.90625 2.29463 3.59687 1.604 4.5 1.604C5.40312 1.604 6.09375 2.29463 6.09375 3.19775V4.26025H2.90625V3.19775Z" fill="#666F87"/>
</svg>
