<svg width="120" height="36" viewBox="0 0 120 36" fill="none" xmlns="http://www.w3.org/2000/svg">
<g filter="url(#filter0_d_448_50645)">
<path d="M8.3966 17.0343C8.13044 19.1449 8.52662 21.2768 9.52515 23.1071C10.5237 24.9375 12.0702 26.3667 13.9305 27.1782C15.4785 27.8436 17.176 28.0585 18.8459 27.8005L25.1144 34.3262C22.7452 35.5612 20.148 36.2197 17.52 36.2517C14.8919 36.2836 12.3019 35.6883 9.94651 34.5108C7.79134 33.4357 5.88293 31.8957 4.34414 29.99C2.80534 28.0844 1.67025 25.8552 1.01192 23.4461C0.0729828 20.0141 0.131728 16.3495 1.18073 12.9158L8.3966 17.0343Z" fill="url(#paint0_radial_448_50645)"/>
</g>
<g filter="url(#filter1_d_448_50645)">
<path d="M8.69848 17.545L1.07258 13.1937C1.4603 12.0021 1.94991 10.8479 2.53539 9.74532C3.66289 7.63709 5.18171 5.78168 7.00066 4.29046C8.81961 2.79925 10.9012 1.70298 13.1204 1.06748C16.4128 0.0917407 19.8906 0.155906 23.1133 1.25185C26.336 2.34779 29.1587 4.42622 31.224 7.22395C33.2894 10.0217 34.5043 13.4129 34.7152 16.9681C34.926 20.5234 34.1232 24.0827 32.4084 27.1955C31.8347 28.235 31.1729 29.2195 30.4314 30.1369L8.69848 17.545ZM11.4311 11.1605L26.6286 20.105C27.0044 18.0862 26.7605 16.0059 25.9319 14.1638C25.3257 12.8108 24.4257 11.6288 23.3025 10.7108C22.1793 9.79276 20.8635 9.16359 19.4585 8.87268C18.0535 8.58178 16.5974 8.63706 15.2046 9.03418C13.8118 9.4313 12.5203 10.1595 11.4313 11.1615L11.4311 11.1605Z" fill="#7FFFD4"/>
</g>
<path d="M53.1494 0.352082C54.5716 0.317103 55.9849 0.595622 57.2965 1.16938C58.6082 1.74313 59.7886 2.59916 60.7603 3.68133C61.765 4.77124 62.5522 6.05782 63.0764 7.46665C63.6006 8.87547 63.8514 10.3786 63.8143 11.889C63.8516 13.3993 63.6009 14.9022 63.0768 16.3109C62.5527 17.7197 61.7656 19.0061 60.761 20.0959C60.23 20.6723 59.6429 21.1896 59.0092 21.6394L54.9525 23.2858C54.3566 23.3834 53.754 23.4305 53.1507 23.4266H44.3512V0.352082H53.1494ZM54.9525 23.2858L59.0092 21.6394L56.8619 17.956C57.2167 17.704 57.5426 17.4106 57.8334 17.0814C59.0673 15.6658 59.7155 13.8006 59.6373 11.8904C59.7155 9.97987 59.0671 8.11432 57.8327 6.69864C57.2327 6.0389 56.5047 5.51983 55.697 5.17598C54.8893 4.83213 54.0206 4.6714 53.1487 4.70447H48.7188V19.0763H52.5578L54.9525 23.2858ZM70.1784 16.9314C70.727 18.997 72.2144 20.0297 74.6407 20.0297C75.3153 20.0744 75.9902 19.9477 76.6075 19.6607C77.2247 19.3737 77.7658 18.9349 78.1842 18.382L81.4762 20.36C79.9148 22.7114 77.6149 23.8871 74.5765 23.8871C73.4205 23.9425 72.2658 23.7518 71.183 23.3267C70.1001 22.9016 69.1119 22.2511 68.2786 21.4148C67.4958 20.6 66.8814 19.627 66.4733 18.5556C66.0652 17.4843 65.8719 16.3372 65.9055 15.1851C65.8742 14.0386 66.0655 12.8973 66.4679 11.8296C66.8703 10.7619 67.4756 9.78984 68.2475 8.97166C69.0299 8.14643 69.9681 7.49915 71.0029 7.07071C72.0377 6.64227 73.1465 6.44197 74.2594 6.48247C75.3334 6.44986 76.4016 6.6565 77.3927 7.08858C78.3838 7.52065 79.2749 8.16818 80.0063 8.98786C81.516 10.6617 82.3288 12.8895 82.2672 15.1851C82.264 15.7712 82.211 16.3558 82.109 16.9322L70.1784 16.9314ZM70.1149 13.6353H78.1835C78.025 12.6405 77.5104 11.7453 76.7434 11.1299C76.0225 10.5827 75.1508 10.2934 74.2587 10.3053C73.2824 10.2656 72.3222 10.5739 71.5367 11.1792C70.7984 11.7967 70.294 12.6666 70.1129 13.6346L70.1149 13.6353ZM102.174 23.4259H97.2051L92.9003 15.9104L88.5962 23.4252H83.6607L90.4312 11.5918L84.0068 0.352082H88.9424L92.899 7.27464L96.8562 0.352082H101.792L95.3688 11.5594L102.174 23.4259ZM106.763 16.9336C107.311 18.9991 108.799 20.0318 111.225 20.0318C111.9 20.0766 112.575 19.95 113.192 19.6628C113.81 19.3757 114.351 18.9366 114.77 18.3834L118.061 20.3614C116.5 22.7123 114.201 23.8878 111.163 23.8878C110.007 23.9432 108.852 23.7525 107.769 23.3274C106.686 22.9023 105.698 22.2518 104.865 21.4155C104.082 20.6008 103.467 19.6278 103.059 18.5564C102.651 17.485 102.457 16.338 102.491 15.1858C102.46 14.0393 102.651 12.898 103.053 11.8303C103.456 10.7626 104.061 9.79054 104.833 8.97237C105.615 8.14721 106.554 7.49997 107.588 7.07154C108.623 6.6431 109.732 6.44276 110.845 6.48317C111.919 6.45056 112.987 6.65721 113.978 7.08928C114.969 7.52135 115.86 8.16889 116.592 8.98856C118.102 10.6619 118.915 12.8895 118.855 15.1851C118.851 15.7712 118.798 16.3558 118.696 16.9322L106.763 16.9336ZM106.699 13.6374H114.77C114.611 12.6427 114.097 11.7474 113.33 11.132C112.609 10.5843 111.737 10.2947 110.845 10.3067C109.868 10.267 108.908 10.5753 108.123 11.1806C107.385 11.7981 106.88 12.668 106.699 13.636V13.6374Z" fill="white"/>
<path d="M47.9744 28.1254C48.3566 28.1049 48.7387 28.1688 49.0955 28.313C49.4523 28.4572 49.7758 28.6784 50.0447 28.962C50.5708 29.5779 50.8428 30.3849 50.8019 31.2082V35.819H49.8493V31.2061C49.8834 30.6353 49.6994 30.0736 49.3375 29.6436C49.1461 29.4511 48.9183 29.3022 48.6686 29.2064C48.4189 29.1106 48.1528 29.0701 47.8872 29.0873C47.5755 29.0742 47.2645 29.1281 46.9737 29.2457C46.6828 29.3634 46.4184 29.5422 46.1969 29.771C45.9608 30.0615 45.7819 30.3975 45.6706 30.76C45.5592 31.1225 45.5175 31.5043 45.5479 31.8835V35.819H44.5986V28.3057H45.5506V29.4781C45.7984 29.0445 46.1551 28.6895 46.5821 28.4512C47.0092 28.2128 47.4905 28.1002 47.9744 28.1254ZM59.9496 28.1254C60.4385 28.1079 60.925 28.2047 61.3733 28.4088C61.8215 28.613 62.2201 28.9191 62.5398 29.3049C63.1927 30.0726 63.5458 31.0672 63.5296 32.0926C63.5296 32.203 63.5199 32.3583 63.5005 32.5588H57.1654C57.2341 33.2664 57.5685 33.9171 58.0957 34.3692C58.646 34.8245 59.3337 35.0613 60.0362 35.0374C60.5308 35.0509 61.0202 34.9295 61.456 34.6854C61.8345 34.4716 62.1473 34.1508 62.3586 33.7601L63.1956 34.2713C62.8768 34.8038 62.4288 35.2393 61.8968 35.5339C61.3195 35.8519 60.6742 36.0123 60.0213 36C59.5109 36.0212 59.0017 35.9335 58.525 35.7423C58.0483 35.5511 57.6142 35.2604 57.2492 34.8881C56.8956 34.5176 56.6186 34.0755 56.4354 33.5891C56.2521 33.1027 56.1665 32.5824 56.1837 32.0603C56.1696 31.5422 56.2556 31.0265 56.4365 30.5438C56.6175 30.061 56.8897 29.621 57.2371 29.25C57.5892 28.8762 58.0123 28.583 58.4794 28.389C58.9464 28.195 59.4471 28.1045 59.9496 28.1233V28.1254ZM59.9496 29.0873C59.2669 29.062 58.6003 29.3066 58.0837 29.7722C57.5671 30.2377 57.2388 30.8896 57.1647 31.5969H62.5472C62.4906 30.8868 62.1763 30.2258 61.6683 29.7485C61.1931 29.3129 60.5792 29.0772 59.9462 29.0873H59.9496ZM72.6171 29.2676H70.5395V33.8206C70.5112 34.133 70.5932 34.4454 70.77 34.6994C70.861 34.7924 70.9697 34.8645 71.089 34.9111C71.2084 34.9576 71.3358 34.9777 71.463 34.9698C71.7709 34.975 72.1556 34.9675 72.6171 34.9473V35.819C71.8567 36.01 71.0569 35.9307 70.3447 35.5937C70.076 35.3975 69.8636 35.1288 69.7302 34.8165C69.5968 34.5041 69.5475 34.1599 69.5875 33.8206V29.2676H68.073V28.3057H69.5875V26.5023L70.5395 26.2017V28.305H72.6178L72.6171 29.2676ZM86.8552 28.3057H87.8363L85.6173 35.819H84.5781L82.7168 29.7633L80.8562 35.819H79.817L77.5926 28.3057H78.577L80.3511 34.5424L82.2408 28.3064H83.1928L85.0859 34.5424L86.8552 28.3057ZM99.0137 34.8649C98.2921 35.5926 97.3271 35.9995 96.3228 35.9995C95.3184 35.9995 94.3534 35.5926 93.6319 34.8649C93.2721 34.502 92.9884 34.0654 92.7985 33.5828C92.6086 33.1001 92.5167 32.5817 92.5284 32.0603C92.517 31.5391 92.6091 31.0212 92.7989 30.5389C92.9888 30.0566 93.2724 29.6204 93.6319 29.2577C94.3534 28.53 95.3184 28.1231 96.3228 28.1231C97.3271 28.1231 98.2921 28.53 99.0137 29.2577C99.3732 29.6204 99.6569 30.0565 99.8469 30.5388C100.037 31.0211 100.129 31.5391 100.118 32.0603C100.129 32.5814 100.037 33.0993 99.8472 33.5816C99.6574 34.0639 99.3738 34.5001 99.0143 34.8628L99.0137 34.8649ZM94.3032 34.1727C94.8412 34.7262 95.5669 35.0366 96.3231 35.0366C97.0793 35.0366 97.805 34.7262 98.343 34.1727C98.6105 33.8972 98.8213 33.5678 98.9627 33.2046C99.104 32.8414 99.1729 32.4521 99.1651 32.0603C99.1728 31.6684 99.1038 31.279 98.9624 30.9159C98.8209 30.5527 98.6099 30.2233 98.3423 29.9478C97.8043 29.3943 97.0786 29.0839 96.3224 29.0839C95.5662 29.0839 94.8405 29.3943 94.3025 29.9478C94.0349 30.2233 93.8239 30.5527 93.6825 30.9159C93.541 31.279 93.472 31.6684 93.4797 32.0603C93.4721 32.4522 93.5412 32.8416 93.6828 33.2047C93.8244 33.5679 94.0355 33.8973 94.3032 34.1727ZM106.625 29.5528C106.831 29.114 107.158 28.7493 107.564 28.506C107.971 28.2626 108.438 28.1516 108.905 28.1874V29.1493C108.308 29.128 107.725 29.3428 107.274 29.7506C107.041 29.9989 106.862 30.2967 106.75 30.6235C106.638 30.9503 106.595 31.2984 106.625 31.6441V35.819H105.673V28.3057H106.625L106.625 29.5528ZM120 35.8197H118.73L115.123 32.1976V35.819H114.17V25.3004H115.123V31.6265L118.556 28.3057H119.855L116.131 31.9124L120 35.8197Z" fill="#7FFFD4"/>
<defs>
<filter id="filter0_d_448_50645" x="-5.75456" y="9.8643" width="36.9719" height="35.543" filterUnits="userSpaceOnUse" color-interpolation-filters="sRGB">
<feFlood flood-opacity="0" result="BackgroundImageFix"/>
<feColorMatrix in="SourceAlpha" type="matrix" values="0 0 0 0 0 0 0 0 0 0 0 0 0 0 0 0 0 0 127 0" result="hardAlpha"/>
<feOffset dy="3.05147"/>
<feGaussianBlur stdDeviation="3.05147"/>
<feColorMatrix type="matrix" values="0 0 0 0 0 0 0 0 0 0 0 0 0 0 0 0 0 0 0.102 0"/>
<feBlend mode="normal" in2="BackgroundImageFix" result="effect1_dropShadow_448_50645"/>
<feBlend mode="normal" in="SourceGraphic" in2="effect1_dropShadow_448_50645" result="shape"/>
</filter>
<filter id="filter1_d_448_50645" x="-5.03031" y="-2.6715" width="45.8814" height="41.9629" filterUnits="userSpaceOnUse" color-interpolation-filters="sRGB">
<feFlood flood-opacity="0" result="BackgroundImageFix"/>
<feColorMatrix in="SourceAlpha" type="matrix" values="0 0 0 0 0 0 0 0 0 0 0 0 0 0 0 0 0 0 127 0" result="hardAlpha"/>
<feOffset dy="3.05147"/>
<feGaussianBlur stdDeviation="3.05147"/>
<feColorMatrix type="matrix" values="0 0 0 0 0 0 0 0 0 0 0 0 0 0 0 0 0 0 0.161 0"/>
<feBlend mode="normal" in2="BackgroundImageFix" result="effect1_dropShadow_448_50645"/>
<feBlend mode="normal" in="SourceGraphic" in2="effect1_dropShadow_448_50645" result="shape"/>
</filter>
<radialGradient id="paint0_radial_448_50645" cx="0" cy="0" r="1" gradientUnits="userSpaceOnUse" gradientTransform="translate(11.2903 27.0327) rotate(30.3171) scale(15.6361 7.17031)">
<stop stop-color="#979797"/>
<stop offset="1" stop-color="#777777"/>
</radialGradient>
</defs>
</svg>
