<svg width="21" height="20" viewBox="0 0 21 20" fill="none" xmlns="http://www.w3.org/2000/svg">
<path fill-rule="evenodd" clip-rule="evenodd" d="M20.9607 9.99976C20.9607 4.48076 16.4799 0 10.9609 0H10.9605C5.44145 0 0.960693 4.48076 0.960693 9.99976C0.960693 15.5188 5.44145 19.9995 10.9605 19.9995H10.9609C16.4799 19.9995 20.9607 15.5188 20.9607 9.99976ZM11.9648 9.99984C11.9648 12.458 9.98561 14.4506 7.54431 14.4506C5.10301 14.4506 3.1237 12.4575 3.1237 9.99984C3.1237 7.54216 5.10286 5.5489 7.54431 5.5489C9.98577 5.5489 11.9648 7.54173 11.9648 9.99984ZM16.8142 9.99984C16.8142 12.3136 15.8246 14.19 14.6039 14.19C13.3831 14.19 12.3936 12.3136 12.3936 9.99984C12.3936 7.68605 13.383 5.8096 14.6037 5.8096C15.8244 5.8096 16.814 7.68546 16.814 9.99984H16.8142ZM18.7977 9.99984C18.7977 12.0724 18.4497 13.7536 18.0203 13.7536C17.5909 13.7536 17.2431 12.0729 17.2431 9.99984C17.2431 7.9268 17.5911 6.24608 18.0203 6.24608C18.4496 6.24608 18.7977 7.92664 18.7977 9.99984Z" fill="#616D8B"/>
</svg>
