<svg width="24" height="24" viewBox="0 0 24 24" fill="none" xmlns="http://www.w3.org/2000/svg">
<path fill-rule="evenodd" clip-rule="evenodd" d="M11.4 16.7999C10.5163 16.7999 9.79991 17.5163 9.79991 18.4C9.79991 19.2836 10.5163 20 11.4 20C12.2836 20 13 19.2836 13 18.4C13 17.5163 12.2836 16.7999 11.4 16.7999ZM11.4 10.3995C10.5163 10.3995 9.79991 11.1159 9.79991 11.9996C9.79991 12.8833 10.5163 13.5996 11.4 13.5996C12.2836 13.5996 13 12.8833 13 11.9996C13 11.1159 12.2836 10.3995 11.4 10.3995ZM9.79991 5.6002C9.79991 4.71652 10.5163 4.00015 11.4 4.00015C12.2836 4.00015 13 4.71652 13 5.6002C13 6.48388 12.2836 7.20024 11.4 7.20024C10.5163 7.20024 9.79991 6.48388 9.79991 5.6002Z" fill="white"/>
</svg>
