<svg width="4" height="16" viewBox="0 0 4 16" fill="none" xmlns="http://www.w3.org/2000/svg">
<path d="M1.60005 3.20009C2.48373 3.20009 3.20009 2.48373 3.20009 1.60005C3.20009 0.716365 2.48373 0 1.60005 0C0.716365 0 0 0.716365 0 1.60005C0 2.48373 0.716365 3.20009 1.60005 3.20009Z" fill="white"/>
<path d="M1.60005 9.60045C2.48373 9.60045 3.20009 8.88409 3.20009 8.00041C3.20009 7.11672 2.48373 6.40036 1.60005 6.40036C0.716365 6.40036 0 7.11672 0 8.00041C0 8.88409 0.716365 9.60045 1.60005 9.60045Z" fill="white"/>
<path d="M1.60005 15.9998C2.48373 15.9998 3.20009 15.2835 3.20009 14.3998C3.20009 13.5161 2.48373 12.7997 1.60005 12.7997C0.716365 12.7997 0 13.5161 0 14.3998C0 15.2835 0.716365 15.9998 1.60005 15.9998Z" fill="white"/>
</svg>
