<svg width="11" height="12" viewBox="0 0 11 12" fill="none" xmlns="http://www.w3.org/2000/svg">
<path d="M9.5 4.94535V3.95628C9.5 1.77129 7.70914 0 5.5 0C3.29086 0 1.5 1.77129 1.5 3.95628V4.94535C1.47518 5.55513 1.19495 6.12721 0.7265 6.5244C0.310098 6.87534 0.0492919 7.37367 0 7.91256C0 9.1489 2.056 9.8907 5.5 9.8907C8.944 9.8907 11 9.1489 11 7.91256C10.9507 7.37367 10.6899 6.87534 10.2735 6.5244C9.80505 6.12721 9.52482 5.55513 9.5 4.94535Z" fill="#494D59"/>
<path d="M3.62207 10.6357C3.87938 11.4476 4.63993 12.0001 5.50012 12.0001C6.36031 12.0001 7.12086 11.4476 7.37817 10.6357C6.79009 10.6787 6.16517 10.7008 5.50012 10.7008C4.83507 10.7008 4.21015 10.68 3.62207 10.6357Z" fill="#494D59"/>
</svg>
