<svg width="18" height="18" viewBox="0 0 18 18" fill="none" xmlns="http://www.w3.org/2000/svg">
<path d="M3.11878 10.448C2.58403 9.55672 2.58403 8.44328 3.11878 7.55203C3.28197 7.28005 3.55231 7.08954 3.86332 7.02734L5.13309 6.77338C5.20874 6.75825 5.27693 6.71768 5.32632 6.65841L6.17084 5.64499C7.3534 4.22592 7.94468 3.51638 8.47234 3.70742C9 3.89846 9 4.82207 9 6.66928L9 11.3307C9 13.1779 9 14.1015 8.47234 14.2926C7.94468 14.4836 7.3534 13.7741 6.17085 12.355L5.32632 11.3416C5.27693 11.2823 5.20874 11.2417 5.1331 11.2266L3.86332 10.9727C3.55231 10.9105 3.28197 10.7199 3.11878 10.448Z" fill="#494D59"/>
<path d="M11.25 11.25L15.75 6.75" stroke="#494D59" stroke-width="2" stroke-linecap="round"/>
<path d="M15.75 11.25L11.25 6.75" stroke="#494D59" stroke-width="2" stroke-linecap="round"/>
</svg>
