<svg width="20" height="18" viewBox="0 0 20 18" fill="none" xmlns="http://www.w3.org/2000/svg">
<path d="M14.6429 11.7859C16.8068 12.4617 18.3571 14.2852 18.3571 16.4287" stroke="#E4F2FF" stroke-width="1.5" stroke-linecap="round" stroke-linejoin="round"/>
<path d="M1.64286 16.4287C1.64286 13.8646 4.13727 11.7859 7.21429 11.7859C10.2913 11.7859 12.7857 13.8646 12.7857 16.4287" stroke="#E4F2FF" stroke-width="1.5" stroke-linecap="round" stroke-linejoin="round"/>
<path d="M12.7857 9.0001C14.8371 9.0001 16.5 7.33716 16.5 5.28582C16.5 3.23448 14.8371 1.57153 12.7857 1.57153" stroke="#E4F2FF" stroke-width="1.5" stroke-linecap="round" stroke-linejoin="round"/>
<path d="M7.21429 9.0001C9.26563 9.0001 10.9286 7.33716 10.9286 5.28582C10.9286 3.23448 9.26563 1.57153 7.21429 1.57153C5.16294 1.57153 3.5 3.23448 3.5 5.28582C3.5 7.33716 5.16294 9.0001 7.21429 9.0001Z" stroke="#E4F2FF" stroke-width="1.5" stroke-linecap="round" stroke-linejoin="round"/>
</svg>
