<svg width="24" height="21" viewBox="0 0 24 21" fill="none" xmlns="http://www.w3.org/2000/svg">
<path d="M3 14.875L8.22999 9.53603C8.63274 9.12488 9.36128 9.12931 9.75746 9.54531L13.299 13.2639C13.6754 13.6592 14.3585 13.6863 14.7743 13.3225L16.21 12.0662C16.6314 11.6975 17.3256 11.7311 17.698 12.1384L21 15.75" stroke="#E4F2FF" stroke-width="2" stroke-linecap="round" stroke-linejoin="round"/>
<path d="M20 2.625H4C3.44772 2.625 3 3.01675 3 3.5V17.5C3 17.9832 3.44772 18.375 4 18.375H20C20.5523 18.375 21 17.9832 21 17.5V3.5C21 3.01675 20.5523 2.625 20 2.625Z" stroke="#E4F2FF" stroke-width="2" stroke-linecap="round" stroke-linejoin="round"/>
<path d="M14 7C14 6.51675 14.4477 6.125 15 6.125C15.5523 6.125 16 6.51675 16 7C16 7.48325 15.5523 7.875 15 7.875C14.4477 7.875 14 7.48325 14 7Z" stroke="#E4F2FF" stroke-width="2" stroke-linecap="round" stroke-linejoin="round"/>
</svg>
