<svg width="16" height="16" viewBox="0 0 16 16" fill="none" xmlns="http://www.w3.org/2000/svg">
<path d="M0 2C0 0.895431 0.895431 0 2 0H14C15.1046 0 16 0.895431 16 2V14C16 15.1046 15.1046 16 14 16H2C0.895431 16 0 15.1046 0 14V2Z" fill="#0F131B"/>
<path d="M2.66663 11.3743L5.76588 7.5527C6.00454 7.25841 6.43627 7.26158 6.67105 7.55935L8.76972 10.2211C8.9928 10.5041 9.39759 10.5235 9.64399 10.263L10.4948 9.36383C10.7445 9.09987 11.1559 9.12396 11.3765 9.41545L13.3333 12.0007" stroke="#616D8B" stroke-linecap="round" stroke-linejoin="round"/>
<path d="M2.66667 3.16699H13.3333C13.4527 3.16699 13.5 3.25157 13.5 3.29662V13.3707C13.5 13.4157 13.4527 13.5003 13.3333 13.5003H2.66667C2.54731 13.5003 2.5 13.4157 2.5 13.3707V3.29662C2.5 3.25157 2.54731 3.16699 2.66667 3.16699Z" stroke="#616D8B" stroke-linecap="round" stroke-linejoin="round"/>
<path d="M9.33337 5.66699C9.33337 5.11471 9.78109 4.66699 10.3334 4.66699C10.8857 4.66699 11.3334 5.11471 11.3334 5.66699C11.3334 6.21928 10.8857 6.66699 10.3334 6.66699C9.78109 6.66699 9.33337 6.21928 9.33337 5.66699Z" fill="#616D8B"/>
</svg>
