<svg xmlns="http://www.w3.org/2000/svg" width="16" height="15.059" viewBox="0 0 16 15.059">
  <path id="chart-pie" d="M15.521,8.474H8.542l4.648,4.648a.472.472,0,0,0,.653.02A7.044,7.044,0,0,0,15.993,9,.471.471,0,0,0,15.521,8.474Zm-.466-1.906A7.076,7.076,0,0,0,8.492,0,.473.473,0,0,0,8,.481V7.063h6.581A.473.473,0,0,0,15.055,6.568ZM6.586,8.474V1.5a.471.471,0,0,0-.525-.472A7.054,7.054,0,0,0,0,8.25a7.146,7.146,0,0,0,7.144,6.812,7,7,0,0,0,3.978-1.295.467.467,0,0,0,.046-.708Z" transform="translate(0.002 -0.004)" fill="#5c9c8c"/>
</svg>
