<svg width="12" height="13" viewBox="0 0 12 13" fill="none" xmlns="http://www.w3.org/2000/svg">
<path d="M0.00824498 6.63604C0.00831959 7.13239 0.410672 7.53474 0.907021 7.53482L5.09326 7.53482L5.09326 11.7211C5.10178 12.2113 5.50167 12.6043 5.99204 12.6043C6.4824 12.6043 6.88229 12.2113 6.89081 11.7211L6.89081 7.53481L11.0771 7.53481C11.4019 7.54046 11.7045 7.3704 11.8685 7.09C12.0326 6.80959 12.0326 6.46248 11.8685 6.18208C11.7045 5.90168 11.4019 5.73162 11.0771 5.73726L6.89081 5.73726L6.89081 1.55102C6.88229 1.06073 6.4824 0.667731 5.99204 0.667731C5.50167 0.667731 5.10178 1.06073 5.09326 1.55102L5.09326 5.73726L0.907021 5.73726C0.410671 5.73734 0.00831949 6.13969 0.00824498 6.63604Z" fill="#616D8B"/>
</svg>
