<svg width="24" height="25" viewBox="0 0 24 25" fill="none" xmlns="http://www.w3.org/2000/svg">
<path d="M16.6756 2.78064H7.33333C3.92889 2.78064 2 4.70953 2 8.11397V17.4473C2 20.8518 3.92889 22.7806 7.33333 22.7806H16.6756C20.08 22.7806 22 20.8518 22 17.4473V8.11397C22 4.70953 20.08 2.78064 16.6756 2.78064Z" fill="#232731"/>
<path d="M16.6756 2.78064H7.33333C3.92889 2.78064 2 4.70953 2 8.11397V17.4473C2 20.8518 3.92889 22.7806 7.33333 22.7806H16.6756C20.08 22.7806 22 20.8518 22 17.4473V8.11397C22 4.70953 20.08 2.78064 16.6756 2.78064Z" fill="url(#paint0_linear_838_78894)" fill-opacity="0.1"/>
<path d="M10.535 13.9451C10.535 13.5638 10.6477 13.1998 10.873 12.8531C11.107 12.5065 11.3583 12.2291 11.627 12.0211C11.8957 11.8045 12.1427 11.5531 12.368 11.2671C12.602 10.9811 12.719 10.6951 12.719 10.4091C12.719 10.1058 12.615 9.87179 12.407 9.70712C12.199 9.54245 11.9087 9.46012 11.536 9.46012C10.808 9.46012 10.2923 9.84579 9.989 10.6171L8.455 9.73312C8.715 9.09179 9.12667 8.59779 9.69 8.25112C10.262 7.89579 10.899 7.71812 11.601 7.71812C12.3897 7.71812 13.07 7.94779 13.642 8.40712C14.2227 8.85779 14.513 9.48179 14.513 10.2791C14.513 10.6431 14.435 10.9811 14.279 11.2931C14.1317 11.6051 13.9497 11.8738 13.733 12.0991C13.525 12.3158 13.3127 12.5238 13.096 12.7231C12.888 12.9138 12.706 13.1131 12.55 13.3211C12.4027 13.5291 12.329 13.7371 12.329 13.9451H10.535ZM12.212 16.8441C11.9953 17.0608 11.7353 17.1691 11.432 17.1691C11.1287 17.1691 10.8687 17.0608 10.652 16.8441C10.4353 16.6275 10.327 16.3675 10.327 16.0641C10.327 15.7608 10.4353 15.5008 10.652 15.2841C10.8687 15.0675 11.1287 14.9591 11.432 14.9591C11.7353 14.9591 11.9953 15.0675 12.212 15.2841C12.4287 15.5008 12.537 15.7608 12.537 16.0641C12.537 16.3675 12.4287 16.6275 12.212 16.8441Z" fill="#C5D1DC"/>
<defs>
<linearGradient id="paint0_linear_838_78894" x1="22" y1="5.78066" x2="-0.640857" y2="17.8103" gradientUnits="userSpaceOnUse">
<stop stop-color="#7A849F"/>
<stop offset="1" stop-color="#EFF7FF"/>
</linearGradient>
</defs>
</svg>
