<svg xmlns="http://www.w3.org/2000/svg" width="14" height="14" viewBox="0 0 14 14">
  <path id="rank" d="M6.119,3.575,4.229.425A.875.875,0,0,0,3.478,0H.439A.438.438,0,0,0,.081.689L3.123,5.035a5.659,5.659,0,0,1,3-1.46ZM13.562,0H10.523a.875.875,0,0,0-.75.425l-1.89,3.15a5.661,5.661,0,0,1,3,1.46L13.921.689A.438.438,0,0,0,13.562,0ZM7,4.375a4.813,4.813,0,1,0,4.812,4.812A4.813,4.813,0,0,0,7,4.375Zm2.53,4.3L8.493,9.686l.245,1.428a.314.314,0,0,1-.455.331L7,10.77l-1.282.674a.314.314,0,0,1-.455-.331l.245-1.428L4.471,8.675a.314.314,0,0,1,.174-.536l1.434-.209.641-1.3a.315.315,0,0,1,.564,0l.641,1.3,1.434.209A.314.314,0,0,1,9.531,8.675Z" transform="translate(-0.001)" fill="#cac26d"/>
</svg>
