<svg width="24" height="24" viewBox="0 0 24 24" fill="none" xmlns="http://www.w3.org/2000/svg">
<path d="M18.5906 5.40941C18.0446 4.86353 17.1594 4.86353 16.6134 5.40941L12.0088 10.014L7.40413 5.40941C6.85546 4.87949 5.98333 4.88706 5.44396 5.42644C4.90458 5.96581 4.897 6.83795 5.42692 7.38661L10.0316 11.9912L5.42692 16.5959C5.06342 16.947 4.91764 17.4668 5.04561 17.9557C5.17357 18.4446 5.55538 18.8264 6.04426 18.9544C6.53315 19.0824 7.05305 18.9366 7.40413 18.5731L12.0088 13.9684L16.6134 18.5731C17.1621 19.103 18.0342 19.0954 18.5736 18.556C19.1129 18.0167 19.1205 17.1445 18.5906 16.5959L13.986 11.9912L18.5906 7.38661C19.1365 6.84057 19.1365 5.95544 18.5906 5.40941Z" fill="#666F87"/>
</svg>
