<svg width="24" height="24" viewBox="0 0 24 24" fill="none" xmlns="http://www.w3.org/2000/svg">
<path d="M17.6491 6.35092C17.181 5.88303 16.4224 5.88303 15.9543 6.35092L12.0075 10.2977L8.06068 6.35092C7.5904 5.8967 6.84285 5.9032 6.38053 6.36552C5.91821 6.82784 5.91172 7.57538 6.36593 8.04567L10.3128 11.9925L6.36593 15.9393C6.05436 16.2402 5.92941 16.6859 6.03909 17.1049C6.14878 17.524 6.47604 17.8512 6.89508 17.9609C7.31413 18.0706 7.75976 17.9456 8.06068 17.6341L12.0075 13.6872L15.9543 17.6341C16.4246 18.0883 17.1722 18.0818 17.6345 17.6195C18.0968 17.1571 18.1033 16.4096 17.6491 15.9393L13.7023 11.9925L17.6491 8.04567C18.117 7.57763 18.117 6.81895 17.6491 6.35092Z" fill="#5A6071"/>
</svg>
