<svg width="27" height="29" viewBox="0 0 27 29" fill="none" xmlns="http://www.w3.org/2000/svg">
<g filter="url(#filter0_d_73_489)">
<path d="M12.2655 16.7466C13.7316 16.7466 15.1005 16.2983 16.2133 15.5513L20.3996 19.4858C20.5939 19.6685 20.8501 19.7598 21.115 19.7598C21.6891 19.7598 22.1042 19.3447 22.1042 18.8135C22.1042 18.5645 22.0159 18.332 21.8216 18.1494L17.6618 14.2314C18.5361 13.1523 19.0572 11.8159 19.0572 10.3633C19.0572 6.85205 16.0014 3.97998 12.2655 3.97998C8.5208 3.97998 5.47382 6.85205 5.47382 10.3633C5.47382 13.8745 8.5208 16.7466 12.2655 16.7466ZM12.2655 15.3687C9.34217 15.3687 6.9399 13.1025 6.9399 10.3633C6.9399 7.62402 9.34217 5.35791 12.2655 5.35791C15.18 5.35791 17.5911 7.62402 17.5911 10.3633C17.5911 13.1025 15.18 15.3687 12.2655 15.3687Z" fill="#5A6071" fill-opacity="0.5" stroke="#5A6071" stroke-opacity="0.5"/>
</g>
<defs>
<filter id="filter0_d_73_489" x="-2.70685" y="0" width="32.5472" height="32" filterUnits="userSpaceOnUse" color-interpolation-filters="sRGB">
<feFlood flood-opacity="0" result="BackgroundImageFix"/>
<feColorMatrix in="SourceAlpha" type="matrix" values="0 0 0 0 0 0 0 0 0 0 0 0 0 0 0 0 0 0 127 0" result="hardAlpha"/>
<feOffset dy="4"/>
<feGaussianBlur stdDeviation="2"/>
<feComposite in2="hardAlpha" operator="out"/>
<feColorMatrix type="matrix" values="0 0 0 0 0 0 0 0 0 0 0 0 0 0 0 0 0 0 0.1 0"/>
<feBlend mode="normal" in2="BackgroundImageFix" result="effect1_dropShadow_73_489"/>
<feBlend mode="normal" in="SourceGraphic" in2="effect1_dropShadow_73_489" result="shape"/>
</filter>
</defs>
</svg>
