<svg width="24" height="24" viewBox="0 0 24 24" fill="none" xmlns="http://www.w3.org/2000/svg">
<path fill-rule="evenodd" clip-rule="evenodd" d="M6.75 11.3261C6.75 8.7988 8.7988 6.75 11.3261 6.75C13.8534 6.75 15.9022 8.7988 15.9022 11.3261C15.9022 13.8534 13.8534 15.9022 11.3261 15.9022C8.7988 15.9022 6.75 13.8534 6.75 11.3261ZM11.3261 5.25C7.97037 5.25 5.25 7.97037 5.25 11.3261C5.25 14.6819 7.97037 17.4022 11.3261 17.4022C12.7783 17.4022 14.1114 16.8928 15.1567 16.0429C15.1852 16.1817 15.2533 16.314 15.361 16.4217L17.6436 18.7043C17.9365 18.9972 18.4113 18.9972 18.7042 18.7043C18.9971 18.4114 18.9971 17.9366 18.7042 17.6437L16.4216 15.361C16.3139 15.2534 16.1817 15.1853 16.0429 15.1568C16.8928 14.1115 17.4022 12.7783 17.4022 11.3261C17.4022 7.97037 14.6819 5.25 11.3261 5.25Z" fill="#E4F2FF"/>
</svg>
