<svg width="14" height="14" viewBox="0 0 14 14" fill="none" xmlns="http://www.w3.org/2000/svg">
<path fill-rule="evenodd" clip-rule="evenodd" d="M1.75 6.32612C1.75 3.7988 3.7988 1.75 6.32612 1.75C8.85343 1.75 10.9022 3.7988 10.9022 6.32612C10.9022 8.85343 8.85343 10.9022 6.32612 10.9022C3.7988 10.9022 1.75 8.85343 1.75 6.32612ZM6.32612 0.25C2.97037 0.25 0.25 2.97037 0.25 6.32612C0.25 9.68186 2.97037 12.4022 6.32612 12.4022C7.77827 12.4022 9.11144 11.8928 10.1567 11.0429C10.1852 11.1817 10.2533 11.314 10.361 11.4217L12.6436 13.7043C12.9365 13.9972 13.4113 13.9972 13.7042 13.7043C13.9971 13.4114 13.9971 12.9366 13.7042 12.6437L11.4216 10.361C11.3139 10.2534 11.1817 10.1853 11.0429 10.1568C11.8928 9.11151 12.4022 7.77831 12.4022 6.32612C12.4022 2.97037 9.68186 0.25 6.32612 0.25Z" fill="#666F87"/>
</svg>
