<svg width="12" height="12" viewBox="0 0 12 12" fill="none" xmlns="http://www.w3.org/2000/svg">
<path fill-rule="evenodd" clip-rule="evenodd" d="M11.3067 6.948C11.5327 7.062 11.7069 7.242 11.8296 7.422C12.0684 7.794 12.049 8.25 11.8166 8.652L11.3648 9.372C11.126 9.756 10.6807 9.996 10.2224 9.996C9.99649 9.996 9.74476 9.936 9.53822 9.816C9.3704 9.714 9.17677 9.678 8.97023 9.678C8.33123 9.678 7.79551 10.176 7.77615 10.77C7.77615 11.46 7.18234 12 6.44008 12H5.56227C4.81355 12 4.21974 11.46 4.21974 10.77C4.20683 10.176 3.67111 9.678 3.03212 9.678C2.81912 9.678 2.62549 9.714 2.46412 9.816C2.25758 9.936 1.9994 9.996 1.77995 9.996C1.31523 9.996 0.86987 9.756 0.631055 9.372L0.185697 8.652C-0.0531186 8.262 -0.0660275 7.794 0.172788 7.422C0.276059 7.242 0.469693 7.062 0.689145 6.948C0.86987 6.864 0.986051 6.726 1.09578 6.564C1.4185 6.048 1.22487 5.37 0.676236 5.064C0.037244 4.722 -0.169299 3.96 0.198606 3.366L0.631055 2.658C1.00541 2.064 1.80577 1.854 2.45121 2.202C3.01275 2.49 3.74211 2.298 4.07129 1.788C4.17456 1.62 4.23265 1.44 4.21974 1.26C4.20683 1.026 4.27783 0.804 4.40046 0.624C4.63928 0.252 5.07173 0.012 5.5429 0H6.45298C6.93062 0 7.36306 0.252 7.60188 0.624C7.71806 0.804 7.79551 1.026 7.77615 1.26C7.76324 1.44 7.82133 1.62 7.9246 1.788C8.25378 2.298 8.98314 2.49 9.55113 2.202C10.1901 1.854 10.9969 2.064 11.3648 2.658L11.7973 3.366C12.1716 3.96 11.9651 4.722 11.3197 5.064C10.771 5.37 10.5774 6.048 10.9066 6.564C11.0098 6.726 11.126 6.864 11.3067 6.948ZM4.17578 6.00659C4.17578 6.94859 4.9955 7.69859 6.00886 7.69859C7.02221 7.69859 7.82257 6.94859 7.82257 6.00659C7.82257 5.06459 7.02221 4.30859 6.00886 4.30859C4.9955 4.30859 4.17578 5.06459 4.17578 6.00659Z" fill="#9AE2CB"/>
</svg>
