<svg width="21" height="21" viewBox="0 0 21 21" fill="none" xmlns="http://www.w3.org/2000/svg">
<path fill-rule="evenodd" clip-rule="evenodd" d="M12.3691 2.94125V2.94126C12.4207 3.45721 12.4465 3.71519 12.5227 3.87372C12.7434 4.33313 13.2743 4.55303 13.7552 4.38425C13.9212 4.32601 14.1218 4.16184 14.5231 3.83349L14.5231 3.83348C14.7355 3.65976 14.8416 3.5729 14.9492 3.5212C15.2547 3.37425 15.614 3.39217 15.9034 3.56879C16.0053 3.63094 16.1023 3.72794 16.2963 3.92192L17.078 4.70371C17.272 4.8977 17.369 4.9947 17.4312 5.09655C17.6078 5.386 17.6257 5.74522 17.4788 6.0508C17.4271 6.15833 17.3402 6.2645 17.1665 6.47684L17.1665 6.47685C16.8381 6.87817 16.6739 7.07883 16.6157 7.2448C16.4469 7.7257 16.6668 8.25659 17.1262 8.4773C17.2847 8.55348 17.5427 8.57927 18.0587 8.63087C18.3317 8.65817 18.4682 8.67182 18.5808 8.7113C18.9008 8.82347 19.1421 9.09015 19.2219 9.4197C19.25 9.53567 19.25 9.67285 19.25 9.94721V11.0529C19.25 11.3272 19.25 11.4643 19.2219 11.5802C19.1422 11.9098 18.9008 12.1766 18.5807 12.2887C18.4682 12.3282 18.3317 12.3418 18.0588 12.3691C17.543 12.4207 17.2852 12.4465 17.1267 12.5226C16.6671 12.7433 16.4472 13.2743 16.6161 13.7553C16.6743 13.9212 16.8384 14.1218 17.1666 14.5229C17.3402 14.7351 17.4271 14.8412 17.4788 14.9487C17.6258 15.2543 17.6079 15.6137 17.4312 15.9032C17.369 16.005 17.2721 16.1019 17.0782 16.2958L17.0782 16.2958L16.2963 17.0777C16.1023 17.2717 16.0053 17.3687 15.9035 17.4308C15.614 17.6074 15.2548 17.6254 14.9492 17.4784C14.8417 17.4267 14.7355 17.3398 14.5232 17.1661L14.5232 17.1661C14.1219 16.8378 13.9212 16.6736 13.7552 16.6154C13.2743 16.4466 12.7434 16.6665 12.5227 17.1259C12.4466 17.2844 12.4208 17.5425 12.3691 18.0585L12.3691 18.0586C12.3418 18.3317 12.3282 18.4683 12.2887 18.5809C12.1765 18.9008 11.9099 19.1421 11.5804 19.2219C11.4644 19.25 11.3271 19.25 11.0527 19.25H9.94721C9.67285 19.25 9.53567 19.25 9.4197 19.2219C9.09015 19.1421 8.82347 18.9008 8.7113 18.5808C8.67182 18.4682 8.65817 18.3317 8.63087 18.0587C8.57927 17.5427 8.55347 17.2847 8.4773 17.1262C8.25659 16.6668 7.72571 16.4469 7.24481 16.6157C7.07884 16.6739 6.87816 16.8381 6.47681 17.1665C6.26446 17.3402 6.15829 17.4271 6.05075 17.4788C5.74518 17.6258 5.38596 17.6078 5.09652 17.4312C4.99467 17.3691 4.89766 17.2721 4.70366 17.0781L3.9219 16.2963C3.7279 16.1023 3.6309 16.0053 3.56874 15.9035C3.39213 15.614 3.37421 15.2548 3.52115 14.9492C3.57286 14.8417 3.65973 14.7355 3.83346 14.5232L3.83346 14.5232C4.16182 14.1218 4.326 13.9212 4.38425 13.7552C4.55302 13.2743 4.33312 12.7434 3.87372 12.5227C3.71519 12.4465 3.45721 12.4207 2.94125 12.3691H2.94124C2.66826 12.3418 2.53177 12.3282 2.41918 12.2887C2.09919 12.1765 1.85785 11.9098 1.77807 11.5803C1.75 11.4643 1.75 11.3272 1.75 11.0528V9.9473C1.75 9.67285 1.75 9.53563 1.77809 9.41963C1.85788 9.09013 2.09918 8.8235 2.4191 8.71132C2.53173 8.67183 2.66827 8.65817 2.94136 8.63086C3.45751 8.57925 3.71558 8.55344 3.87417 8.47723C4.33345 8.2565 4.5533 7.72572 4.38462 7.24488C4.32638 7.07885 4.16212 6.8781 3.83362 6.47659C3.65978 6.26412 3.57286 6.15789 3.52114 6.05029C3.37427 5.74478 3.39219 5.38565 3.56872 5.09627C3.63089 4.99435 3.72794 4.8973 3.92204 4.70321L3.92204 4.7032L4.7037 3.92155C4.8977 3.72754 4.99471 3.63054 5.09656 3.56839C5.386 3.39177 5.74522 3.37386 6.05079 3.52079C6.15833 3.5725 6.26453 3.65939 6.47692 3.83317C6.87818 4.16147 7.07882 4.32563 7.24471 4.38387C7.72569 4.55274 8.25671 4.33278 8.4774 3.87327C8.55352 3.71478 8.57931 3.45691 8.63089 2.94115V2.94114L8.63089 2.94113C8.65817 2.66826 8.67182 2.53182 8.71126 2.41927C8.82343 2.09921 9.09017 1.85781 9.4198 1.77805C9.53572 1.75 9.67284 1.75 9.94708 1.75H11.0528C11.3272 1.75 11.4643 1.75 11.5803 1.77807C11.9099 1.85785 12.1765 2.09919 12.2887 2.41918C12.3282 2.53177 12.3418 2.66827 12.3691 2.94125ZM10.5 14C12.433 14 14 12.433 14 10.5C14 8.567 12.433 7 10.5 7C8.567 7 7 8.567 7 10.5C7 12.433 8.567 14 10.5 14Z" fill="#5C6166"/>
</svg>
