<svg width="12" height="14" viewBox="0 0 12 14" fill="none" xmlns="http://www.w3.org/2000/svg">
<path opacity="0.5" d="M10 9.68067C10.5417 9.68067 11 9.88504 11.375 10.2938C11.75 10.681 11.9375 11.1435 11.9375 11.6813C11.9375 12.2407 11.7396 12.7247 11.3438 13.1334C10.9688 13.5207 10.5208 13.7143 10 13.7143C9.47917 13.7143 9.02083 13.5207 8.625 13.1334C8.25 12.7247 8.0625 12.2407 8.0625 11.6813C8.0625 11.4662 8.07292 11.3156 8.09375 11.2296L3.375 8.38992C2.97917 8.75563 2.52083 8.93849 2 8.93849C1.45833 8.93849 0.989583 8.73412 0.59375 8.32538C0.197917 7.91664 0 7.43261 0 6.87328C0 6.31395 0.197917 5.82992 0.59375 5.42118C0.989583 5.01244 1.45833 4.80807 2 4.80807C2.52083 4.80807 2.97917 4.99092 3.375 5.35664L8.0625 2.54924C8.02083 2.33412 8 2.17277 8 2.06521C8 1.50588 8.19792 1.02185 8.59375 0.613109C8.98958 0.20437 9.45833 0 10 0C10.5417 0 11.0104 0.20437 11.4062 0.613109C11.8021 1.02185 12 1.50588 12 2.06521C12 2.62454 11.8021 3.10857 11.4062 3.51731C11.0104 3.92605 10.5417 4.13042 10 4.13042C9.5 4.13042 9.04167 3.93681 8.625 3.54958L3.9375 6.38924C3.97917 6.60437 4 6.76571 4 6.87328C4 6.98084 3.97917 7.14218 3.9375 7.35731L8.6875 10.197C9.0625 9.85277 9.5 9.68067 10 9.68067Z" fill="#5A6071"/>
</svg>
