<svg width="36" height="36" viewBox="0 0 36 36" fill="none" xmlns="http://www.w3.org/2000/svg">
<path d="M18 36C27.9411 36 36 27.9411 36 18C36 8.05887 27.9411 0 18 0C8.05887 0 0 8.05887 0 18C0 27.9411 8.05887 36 18 36Z" fill="url(#paint0_linear_6_8731)"/>
<path d="M18.0088 20.0249C18.4597 20.0249 18.8309 19.6582 18.8309 19.2217V10.4395L18.7691 9.14753L19.3083 9.78481L20.5459 11.0856C20.6873 11.2427 20.8906 11.3213 21.0939 11.3213C21.5006 11.3213 21.8365 11.0332 21.8365 10.6229C21.8365 10.4046 21.7481 10.2475 21.5978 10.0991L18.6365 7.27935C18.4243 7.06984 18.221 7 18.0088 7C17.7878 7 17.5934 7.06984 17.3812 7.27935L14.411 10.0991C14.2608 10.2475 14.1724 10.4046 14.1724 10.6229C14.1724 11.0332 14.4994 11.3213 14.9061 11.3213C15.1094 11.3213 15.3215 11.2427 15.463 11.0856L16.7006 9.78481L17.2486 9.1388L17.1779 10.4395V19.2217C17.1779 19.6582 17.5492 20.0249 18.0088 20.0249ZM12.9083 27H23.0917C25.0099 27 26 26.0223 26 24.1541V15.5727C26 13.7045 25.0099 12.7268 23.0917 12.7268H20.705V14.464H22.9768C23.7812 14.464 24.2409 14.883 24.2409 15.7211V23.9969C24.2409 24.835 23.7812 25.254 22.9768 25.254H13.0232C12.2099 25.254 11.7591 24.835 11.7591 23.9969V15.7211C11.7591 14.883 12.2099 14.464 13.0232 14.464H15.3215V12.7268H12.9083C10.9989 12.7268 10 13.6958 10 15.5727V24.1541C10 26.0223 10.9989 27 12.9083 27Z" fill="#1A1E24" stroke="#1A1E24" stroke-width="0.5"/>
<defs>
<linearGradient id="paint0_linear_6_8731" x1="0" y1="0" x2="29.2976" y2="-14.013" gradientUnits="userSpaceOnUse">
<stop stop-color="#24272F"/>
<stop offset="1" stop-color="#2C313C"/>
</linearGradient>
</defs>
</svg>
