<svg xmlns="http://www.w3.org/2000/svg" xmlns:xlink="http://www.w3.org/1999/xlink" width="20" height="23" viewBox="0 0 20 23">
  <defs>
    <clipPath id="clip-path">
      <rect id="Rectangle_6117" data-name="Rectangle 6117" width="20" height="23" transform="translate(4940 -9810.336)" fill="none"/>
    </clipPath>
  </defs>
  <g id="Mask_Group_16" data-name="Mask Group 16" transform="translate(-4940 9810.336)" clip-path="url(#clip-path)">
    <rect id="Rectangle_6116" data-name="Rectangle 6116" width="20" height="23" transform="translate(4940 -9810.336)" fill="none"/>
    <g id="_1332775" data-name="1332775" transform="matrix(0.259, 0.966, -0.966, 0.259, 4958.04, -9810.62)">
      <path id="Path_10456" data-name="Path 10456" d="M14.869,22.066a3.271,3.271,0,0,0,1.465-.487,4.032,4.032,0,0,0,1.507-1.648,2.866,2.866,0,0,0,.318-1.1,2.534,2.534,0,0,0-.315-1.444C17.76,17.24,8.056,2.269,7.762,1.835A4.212,4.212,0,0,0,6.12.336,3.8,3.8,0,0,0,2.659.518a3.684,3.684,0,0,0-.672.411A4.579,4.579,0,0,0,.047,3.62,2.373,2.373,0,0,0,0,4.244a2.65,2.65,0,0,0,.116.918A4.742,4.742,0,0,0,.63,6.338c.053.086.688,1.068,1.412,2.179s2.453,3.767,3.839,5.9c1.838,2.826,2.545,3.9,2.608,3.96a.584.584,0,0,0,.95-.433.447.447,0,0,0-.035-.19c-.032-.072-2.7-4.178-6.479-9.982-.714-1.1-1.333-2.054-1.377-2.13A3.85,3.85,0,0,1,1.14,4.622a2.175,2.175,0,0,1-.03-.492,1.529,1.529,0,0,1,.046-.51,2.715,2.715,0,0,1,.471-.929A5.352,5.352,0,0,1,2.752,1.664a4.573,4.573,0,0,1,1.108-.5,2.721,2.721,0,0,1,1.131-.065A2.814,2.814,0,0,1,6.695,2.3c.165.225,10.119,15.585,10.186,15.718a2.153,2.153,0,0,1,.111.28,1.113,1.113,0,0,1,.046.41,1.576,1.576,0,0,1-.208.835A2.772,2.772,0,0,1,15.342,20.9a2.034,2.034,0,0,1-1.245,0,1.855,1.855,0,0,1-.793-.545c-.135-.164-7.613-11.7-7.731-11.923-.287-.545-.278-.951.028-1.257a2.692,2.692,0,0,1,.791-.5.974.974,0,0,1,1.1.443c.04.053,1.133,1.736,2.427,3.737,2.671,4.133,2.638,4.083,2.728,4.156a.572.572,0,0,0,.723-.04.562.562,0,0,0,.178-.575c-.028-.077-4.938-7.692-5.112-7.928a2.158,2.158,0,0,0-1.286-.874,2.552,2.552,0,0,0-.723,0,3.238,3.238,0,0,0-1.409.7,2.023,2.023,0,0,0-.735,1.519,2.859,2.859,0,0,0,.369,1.308c.123.216,7.564,11.689,7.687,11.849a2.794,2.794,0,0,0,1.671,1.038,4.313,4.313,0,0,0,.64.067C14.668,22.081,14.767,22.074,14.869,22.066Z" fill="#f5f5f5"/>
    </g>
  </g>
</svg>
