<svg width="16" height="16" viewBox="0 0 16 16" fill="none" xmlns="http://www.w3.org/2000/svg">
<path d="M4.23395 4.23395C3.92202 4.54597 3.92202 5.05176 4.23395 5.36378L6.86516 7.99499L4.23395 10.6262C3.93113 10.9397 3.93547 11.4381 4.24368 11.7463C4.55189 12.0545 5.05026 12.0589 5.36378 11.756L7.995 9.12483L10.6262 11.756C10.8268 11.9638 11.1239 12.0471 11.4033 11.9739C11.6826 11.9008 11.9008 11.6826 11.9739 11.4033C12.0471 11.1239 11.9638 10.8268 11.756 10.6262L9.12483 7.99499L11.756 5.36378C12.0589 5.05025 12.0545 4.55189 11.7463 4.24368C11.4381 3.93546 10.9397 3.93113 10.6262 4.23395L7.995 6.86516L5.36378 4.23395C5.05176 3.92202 4.54597 3.92202 4.23395 4.23395Z" fill="#DB6D6D"/>
</svg>
