<svg width="24" height="24" viewBox="0 0 24 24" fill="none" xmlns="http://www.w3.org/2000/svg">
<path d="M10.2228 6.5269L10.2219 6.52754L10.3325 9.52523C10.3437 9.81799 10.0539 10.0622 9.6861 10.0707H9.66638C9.30631 10.0707 9.01053 9.84344 9.00025 9.55615L8.94109 7.94398C7.3259 8.83009 6.33227 10.2968 6.33227 11.869C6.33227 13.6818 7.59767 15.3152 9.63295 16.1328C9.96216 16.2643 10.0942 16.5831 9.92786 16.8449C9.81041 17.0298 9.57636 17.1365 9.33203 17.1365C9.23172 17.1365 9.12884 17.1183 9.03282 17.0795C6.54489 16.0807 5 14.0842 5 11.869C5 9.96767 6.18824 8.19184 8.12407 7.10575L5.80588 7.15968H5.78616C5.42694 7.15968 5.13117 6.9324 5.12002 6.64511C5.10974 6.35237 5.39951 6.10811 5.7673 6.09962L9.46491 6.01357L9.49577 6.00729C9.50863 6.00393 9.52235 6.00058 9.53693 6.00023C9.90472 5.99174 10.2125 6.22205 10.2228 6.51479V6.5269Z" fill="#E4F2FF"/>
<path d="M15.8759 16.5612L18.1933 16.5073C18.5568 16.4921 18.8697 16.7291 18.88 17.0218C18.8903 17.3145 18.6013 17.5588 18.2336 17.5673L14.5359 17.6533L14.5051 17.6596C14.4922 17.663 14.4785 17.6663 14.4639 17.6667H14.4442C14.0841 17.6667 13.7892 17.4394 13.7781 17.1521L13.7772 17.1412V17.14L13.6666 14.1423C13.6563 13.8496 13.9461 13.6053 14.3139 13.5968C14.6791 13.5817 14.9886 13.8186 14.9998 14.1114L15.0589 15.7236C16.6732 14.8375 17.6669 13.3707 17.6669 11.7986C17.6669 9.98575 16.4023 8.35237 14.3662 7.53476C14.037 7.40264 13.905 7.08386 14.0713 6.82201C14.2367 6.56081 14.638 6.45594 14.9672 6.58747C17.4543 7.58632 19 9.58276 19 11.798C19 13.6999 17.8118 15.4751 15.8759 16.5612Z" fill="#E4F2FF"/>
<path d="M10.2228 6.5269L10.2219 6.52754L10.3325 9.52523C10.3437 9.81799 10.0539 10.0622 9.6861 10.0707H9.66638C9.30631 10.0707 9.01053 9.84344 9.00025 9.55615L8.94109 7.94398C7.3259 8.83009 6.33227 10.2968 6.33227 11.869C6.33227 13.6818 7.59767 15.3152 9.63295 16.1328C9.96216 16.2643 10.0942 16.5831 9.92786 16.8449C9.81041 17.0298 9.57636 17.1365 9.33203 17.1365C9.23172 17.1365 9.12884 17.1183 9.03282 17.0795C6.54489 16.0807 5 14.0842 5 11.869C5 9.96767 6.18824 8.19184 8.12407 7.10575L5.80588 7.15968H5.78616C5.42694 7.15968 5.13117 6.9324 5.12002 6.64511C5.10974 6.35237 5.39951 6.10811 5.7673 6.09962L9.46491 6.01357L9.49577 6.00729C9.50863 6.00393 9.52235 6.00058 9.53693 6.00023C9.90472 5.99174 10.2125 6.22205 10.2228 6.51479V6.5269Z" stroke="#E4F2FF" stroke-width="0.2"/>
<path d="M15.8759 16.5612L18.1933 16.5073C18.5568 16.4921 18.8697 16.7291 18.88 17.0218C18.8903 17.3145 18.6013 17.5588 18.2336 17.5673L14.5359 17.6533L14.5051 17.6596C14.4922 17.663 14.4785 17.6663 14.4639 17.6667H14.4442C14.0841 17.6667 13.7892 17.4394 13.7781 17.1521L13.7772 17.1412V17.14L13.6666 14.1423C13.6563 13.8496 13.9461 13.6053 14.3139 13.5968C14.6791 13.5817 14.9886 13.8186 14.9998 14.1114L15.0589 15.7236C16.6732 14.8375 17.6669 13.3707 17.6669 11.7986C17.6669 9.98575 16.4023 8.35237 14.3662 7.53476C14.037 7.40264 13.905 7.08386 14.0713 6.82201C14.2367 6.56081 14.638 6.45594 14.9672 6.58747C17.4543 7.58632 19 9.58276 19 11.798C19 13.6999 17.8118 15.4751 15.8759 16.5612Z" stroke="#E4F2FF" stroke-width="0.2"/>
</svg>
