<svg width="23" height="23" viewBox="0 0 23 23" fill="none" xmlns="http://www.w3.org/2000/svg">
<g clip-path="url(#clip0_20_8350)">
<path d="M14.9805 13.878L16.6169 12.2416C16.9098 11.9487 17.3847 11.9487 17.6776 12.2416C17.9705 12.5344 17.9705 13.0093 17.6776 13.3022L14.7608 16.219C14.4679 16.5119 13.993 16.5119 13.7001 16.219L10.7833 13.3022C10.4904 13.0093 10.4904 12.5344 10.7833 12.2416C11.0762 11.9487 11.5511 11.9487 11.844 12.2416L13.4805 13.878L13.4805 6.93825C13.4805 6.52404 13.8162 6.18825 14.2305 6.18825C14.6447 6.18825 14.9805 6.52404 14.9805 6.93825L14.9805 13.878ZM7.64682 8.74891L6.01034 10.3854C5.71744 10.6783 5.24257 10.6783 4.94968 10.3854C4.65678 10.0925 4.65678 9.61763 4.94968 9.32474L7.86649 6.40792C8.15938 6.11503 8.63426 6.11503 8.92715 6.40792L11.844 9.32474C12.1369 9.61763 12.1369 10.0925 11.844 10.3854C11.5511 10.6783 11.0762 10.6783 10.7833 10.3854L9.14682 8.74891L9.14682 15.6887C9.14682 16.1029 8.81103 16.4387 8.39682 16.4387C7.98261 16.4387 7.64682 16.1029 7.64682 15.6887L7.64682 8.74891Z" fill="white"/>
</g>
<defs>
<clipPath id="clip0_20_8350">
<rect width="16" height="16" fill="white" transform="translate(0 11.3135) rotate(-45)"/>
</clipPath>
</defs>
</svg>
