<svg width="26" height="26" viewBox="0 0 26 26" fill="none" xmlns="http://www.w3.org/2000/svg">
<rect x="0.5" y="0.5" width="25" height="25" rx="12.5" fill="#141926"/>
<g clip-path="url(#clip0_4610_156115)">
<path d="M11.2228 7.5269L11.2219 7.52754L11.3325 10.5252C11.3437 10.818 11.0539 11.0622 10.6861 11.0707H10.6664C10.3063 11.0707 10.0105 10.8434 10.0002 10.5562L9.94109 8.94398C8.3259 9.83009 7.33227 11.2968 7.33227 12.869C7.33227 14.6818 8.59767 16.3152 10.6329 17.1328C10.9622 17.2643 11.0942 17.5831 10.9279 17.8449C10.8104 18.0298 10.5764 18.1365 10.332 18.1365C10.2317 18.1365 10.1288 18.1183 10.0328 18.0795C7.54489 17.0807 6 15.0842 6 12.869C6 10.9677 7.18824 9.19184 9.12407 8.10575L6.80588 8.15968H6.78616C6.42694 8.15968 6.13117 7.9324 6.12002 7.64511C6.10974 7.35237 6.39951 7.10811 6.7673 7.09962L10.4649 7.01357L10.4958 7.00729C10.5086 7.00393 10.5224 7.00058 10.5369 7.00023C10.9047 6.99174 11.2125 7.22205 11.2228 7.51479V7.5269Z" fill="#788AB4"/>
<path d="M16.8759 17.5612L19.1933 17.5073C19.5568 17.4921 19.8697 17.7291 19.88 18.0218C19.8903 18.3145 19.6013 18.5588 19.2336 18.5673L15.5359 18.6533L15.5051 18.6596C15.4922 18.663 15.4785 18.6663 15.4639 18.6667H15.4442C15.0841 18.6667 14.7892 18.4394 14.7781 18.1521L14.7772 18.1412V18.14L14.6666 15.1423C14.6563 14.8496 14.9461 14.6053 15.3139 14.5968C15.6791 14.5817 15.9886 14.8186 15.9998 15.1114L16.0589 16.7236C17.6732 15.8375 18.6669 14.3707 18.6669 12.7986C18.6669 10.9858 17.4023 9.35237 15.3662 8.53476C15.037 8.40264 14.905 8.08386 15.0713 7.82201C15.2367 7.56081 15.638 7.45594 15.9672 7.58747C18.4543 8.58632 20 10.5828 20 12.798C20 14.6999 18.8118 16.4751 16.8759 17.5612Z" fill="#788AB4"/>
<path d="M11.2228 7.5269L11.2219 7.52754L11.3325 10.5252C11.3437 10.818 11.0539 11.0622 10.6861 11.0707H10.6664C10.3063 11.0707 10.0105 10.8434 10.0002 10.5562L9.94109 8.94398C8.3259 9.83009 7.33227 11.2968 7.33227 12.869C7.33227 14.6818 8.59767 16.3152 10.6329 17.1328C10.9622 17.2643 11.0942 17.5831 10.9279 17.8449C10.8104 18.0298 10.5764 18.1365 10.332 18.1365C10.2317 18.1365 10.1288 18.1183 10.0328 18.0795C7.54489 17.0807 6 15.0842 6 12.869C6 10.9677 7.18824 9.19184 9.12407 8.10575L6.80588 8.15968H6.78616C6.42694 8.15968 6.13117 7.9324 6.12002 7.64511C6.10974 7.35237 6.39951 7.10811 6.7673 7.09962L10.4649 7.01357L10.4958 7.00729C10.5086 7.00393 10.5224 7.00058 10.5369 7.00023C10.9047 6.99174 11.2125 7.22205 11.2228 7.51479V7.5269Z" stroke="#788AB4" stroke-width="0.2"/>
<path d="M16.8759 17.5612L19.1933 17.5073C19.5568 17.4921 19.8697 17.7291 19.88 18.0218C19.8903 18.3145 19.6013 18.5588 19.2336 18.5673L15.5359 18.6533L15.5051 18.6596C15.4922 18.663 15.4785 18.6663 15.4639 18.6667H15.4442C15.0841 18.6667 14.7892 18.4394 14.7781 18.1521L14.7772 18.1412V18.14L14.6666 15.1423C14.6563 14.8496 14.9461 14.6053 15.3139 14.5968C15.6791 14.5817 15.9886 14.8186 15.9998 15.1114L16.0589 16.7236C17.6732 15.8375 18.6669 14.3707 18.6669 12.7986C18.6669 10.9858 17.4023 9.35237 15.3662 8.53476C15.037 8.40264 14.905 8.08386 15.0713 7.82201C15.2367 7.56081 15.638 7.45594 15.9672 7.58747C18.4543 8.58632 20 10.5828 20 12.798C20 14.6999 18.8118 16.4751 16.8759 17.5612Z" stroke="#788AB4" stroke-width="0.2"/>
</g>
<rect x="0.5" y="0.5" width="25" height="25" rx="12.5" stroke="url(#paint0_radial_4610_156115)" stroke-opacity="0.5"/>
<rect x="0.5" y="0.5" width="25" height="25" rx="12.5" stroke="url(#paint1_radial_4610_156115)"/>
<rect x="0.5" y="0.5" width="25" height="25" rx="12.5" stroke="url(#paint2_radial_4610_156115)"/>
<defs>
<radialGradient id="paint0_radial_4610_156115" cx="0" cy="0" r="1" gradientUnits="userSpaceOnUse" gradientTransform="translate(13 13) rotate(-132.581) scale(24.5156 19.0182)">
<stop stop-color="#050505"/>
<stop offset="1" stop-color="#525252" stop-opacity="0"/>
</radialGradient>
<radialGradient id="paint1_radial_4610_156115" cx="0" cy="0" r="1" gradientUnits="userSpaceOnUse" gradientTransform="translate(13 13) rotate(40.6798) scale(20.5706 14.7761)">
<stop stop-color="#6D99DB"/>
<stop offset="1" stop-color="#6D99DB" stop-opacity="0"/>
</radialGradient>
<radialGradient id="paint2_radial_4610_156115" cx="0" cy="0" r="1" gradientUnits="userSpaceOnUse" gradientTransform="translate(13 13) rotate(135.957) scale(19.8216 14.8052)">
<stop stop-color="#587EB7"/>
<stop offset="1" stop-color="#587EB7" stop-opacity="0"/>
</radialGradient>
<clipPath id="clip0_4610_156115">
<rect width="24" height="24" fill="white" transform="translate(1 1)"/>
</clipPath>
</defs>
</svg>
