<svg width="26" height="26" viewBox="0 0 26 26" fill="none" xmlns="http://www.w3.org/2000/svg">
<rect x="0.5" y="0.5" width="25" height="25" rx="12.5" fill="#141926"/>
<path d="M16.4596 14.4596C16.7135 14.2058 16.7135 13.7942 16.4596 13.5404C16.2058 13.2865 15.7942 13.2865 15.5404 13.5404L16.4596 14.4596ZM13 17L12.5404 17.4596C12.6623 17.5815 12.8276 17.65 13 17.65C13.1724 17.65 13.3377 17.5815 13.4596 17.4596L13 17ZM10.4596 13.5404C10.2058 13.2865 9.79422 13.2865 9.54038 13.5404C9.28654 13.7942 9.28654 14.2058 9.54038 14.4596L10.4596 13.5404ZM15.5404 13.5404L12.5404 16.5404L13.4596 17.4596L16.4596 14.4596L15.5404 13.5404ZM13.4596 16.5404L10.4596 13.5404L9.54038 14.4596L12.5404 17.4596L13.4596 16.5404Z" fill="#788AB4"/>
<path d="M13.65 8C13.65 7.64101 13.359 7.35 13 7.35C12.641 7.35 12.35 7.64101 12.35 8H13.65ZM12.35 17C12.35 17.359 12.641 17.65 13 17.65C13.359 17.65 13.65 17.359 13.65 17H12.35ZM12.35 8V17H13.65V8H12.35Z" fill="#788AB4"/>
<rect x="0.5" y="0.5" width="25" height="25" rx="12.5" stroke="url(#paint0_radial_5339_168054)" stroke-opacity="0.5"/>
<rect x="0.5" y="0.5" width="25" height="25" rx="12.5" stroke="url(#paint1_radial_5339_168054)"/>
<rect x="0.5" y="0.5" width="25" height="25" rx="12.5" stroke="url(#paint2_radial_5339_168054)"/>
<defs>
<radialGradient id="paint0_radial_5339_168054" cx="0" cy="0" r="1" gradientUnits="userSpaceOnUse" gradientTransform="translate(13 13) rotate(-132.581) scale(24.5156 19.0182)">
<stop stop-color="#050505"/>
<stop offset="1" stop-color="#525252" stop-opacity="0"/>
</radialGradient>
<radialGradient id="paint1_radial_5339_168054" cx="0" cy="0" r="1" gradientUnits="userSpaceOnUse" gradientTransform="translate(13 13) rotate(40.6798) scale(20.5706 14.7761)">
<stop stop-color="#6D99DB"/>
<stop offset="1" stop-color="#6D99DB" stop-opacity="0"/>
</radialGradient>
<radialGradient id="paint2_radial_5339_168054" cx="0" cy="0" r="1" gradientUnits="userSpaceOnUse" gradientTransform="translate(13 13) rotate(135.957) scale(19.8216 14.8052)">
<stop stop-color="#587EB7"/>
<stop offset="1" stop-color="#587EB7" stop-opacity="0"/>
</radialGradient>
</defs>
</svg>
