<svg width="20" height="20" viewBox="0 0 20 20" fill="none" xmlns="http://www.w3.org/2000/svg">
<path fill-rule="evenodd" clip-rule="evenodd" d="M20 10C20 15.5228 15.5228 20 10 20C4.47715 20 0 15.5228 0 10C0 4.47715 4.47715 0 10 0C15.5228 0 20 4.47715 20 10ZM10.3584 7.38263C9.38571 7.78718 7.44178 8.62452 4.52658 9.89462C4.0532 10.0829 3.80522 10.267 3.78264 10.4471C3.74449 10.7514 4.1256 10.8713 4.64457 11.0345C4.71516 11.0567 4.7883 11.0797 4.86328 11.104C5.37387 11.27 6.06069 11.4642 6.41774 11.4719C6.74162 11.4789 7.10311 11.3454 7.5022 11.0713C10.226 9.23269 11.632 8.30336 11.7203 8.28333C11.7825 8.26919 11.8688 8.25142 11.9273 8.30339C11.9858 8.35536 11.98 8.45379 11.9738 8.48019C11.9361 8.64114 10.4401 10.0319 9.66593 10.7517C9.42459 10.976 9.2534 11.1352 9.2184 11.1716C9.14001 11.253 9.06011 11.33 8.98332 11.404C8.50898 11.8613 8.15326 12.2042 9.00301 12.7642C9.41137 13.0333 9.73813 13.2558 10.0641 13.4778C10.4201 13.7203 10.7752 13.9621 11.2347 14.2632C11.3517 14.34 11.4635 14.4197 11.5724 14.4973C11.9867 14.7927 12.359 15.058 12.8188 15.0157C13.086 14.9911 13.3621 14.7399 13.5022 13.9905C13.8335 12.2195 14.4847 8.38223 14.6352 6.801C14.6484 6.66246 14.6318 6.48516 14.6185 6.40733C14.6051 6.3295 14.5773 6.21861 14.4761 6.13652C14.3563 6.0393 14.1714 6.0188 14.0886 6.02026C13.7125 6.02688 13.1355 6.22753 10.3584 7.38263Z" fill="#616D8B"/>
</svg>
