<svg xmlns="http://www.w3.org/2000/svg" width="15" height="15" viewBox="0 0 15 15">
  <g id="Group_11862" data-name="Group 11862" transform="translate(-337 -474)">
    <g id="Ellipse_743" data-name="Ellipse 743" transform="translate(337 474)" fill="none" stroke="#999" stroke-width="1">
      <circle cx="7.5" cy="7.5" r="7.5" stroke="none"/>
      <circle cx="7.5" cy="7.5" r="7" fill="none"/>
    </g>
    <path id="Path_16566" data-name="Path 16566" d="M-1.907-9.747a.771.771,0,0,1-.568-.23.755.755,0,0,1-.23-.554.778.778,0,0,1,.23-.561.76.76,0,0,1,.568-.237.744.744,0,0,1,.554.237.778.778,0,0,1,.23.561.755.755,0,0,1-.23.554A.755.755,0,0,1-1.907-9.747ZM-2.5-1.759V-8.517h1.176v6.757Z" transform="translate(346.413 488.044)" fill="#999"/>
  </g>
</svg>
