<svg xmlns="http://www.w3.org/2000/svg" width="20" height="17" viewBox="0 0 20 17">
  <g id="trader-fee" transform="translate(0 0.36)">
    <g id="Group_11242" data-name="Group 11242" transform="translate(11 8)">
      <circle id="Ellipse_705" data-name="Ellipse 705" cx="4.5" cy="4.5" r="4.5" transform="translate(0 -0.36)" fill="#fff"/>
      <path id="Path_10349" data-name="Path 10349" d="M4.915-39.715a1.347,1.347,0,0,1-.4,1.011,1.739,1.739,0,0,1-1.036.465v.624H3.007v-.617a2.032,2.032,0,0,1-1.022-.333,1.606,1.606,0,0,1-.61-.787l.844-.49a.952.952,0,0,0,.787.646v-1.227H3l-.014-.007q-.248-.092-.4-.163a2.955,2.955,0,0,1-.365-.206,1.359,1.359,0,0,1-.326-.28,1.41,1.41,0,0,1-.206-.372,1.353,1.353,0,0,1-.089-.5,1.3,1.3,0,0,1,.408-1,1.671,1.671,0,0,1,1-.433V-44h.475v.631a1.609,1.609,0,0,1,1.362,1l-.823.482a.784.784,0,0,0-.539-.518v1.185a5.176,5.176,0,0,1,.887.419A1.259,1.259,0,0,1,4.915-39.715ZM2.567-41.943a.409.409,0,0,0,.1.273,1.089,1.089,0,0,0,.341.238v-.993a.571.571,0,0,0-.326.17A.453.453,0,0,0,2.567-41.943Zm.915,2.731q.454-.1.454-.5a.426.426,0,0,0-.11-.3,1.055,1.055,0,0,0-.344-.227Z" transform="translate(1.778 44.969)" fill="#2d2d2d"/>
    </g>
    <g id="Group_11243" data-name="Group 11243">
      <circle id="Ellipse_704" data-name="Ellipse 704" cx="7.5" cy="7.5" r="7.5" transform="translate(0 -0.36)" fill="#5c9c8c"/>
      <path id="Path_10350" data-name="Path 10350" d="M7.921-59.711a2.231,2.231,0,0,1-1.626.637,2.229,2.229,0,0,1-1.633-.65,2.146,2.146,0,0,1-.657-1.585A2.146,2.146,0,0,1,4.662-62.9a2.229,2.229,0,0,1,1.633-.65,2.218,2.218,0,0,1,1.626.644,2.151,2.151,0,0,1,.65,1.592A2.173,2.173,0,0,1,7.921-59.711Zm-2.954,4.4,6.179-6.87.827.461L5.78-54.833Zm.7-5.379a.827.827,0,0,0,.61.244.816.816,0,0,0,.61-.251.85.85,0,0,0,.244-.617.827.827,0,0,0-.244-.61.827.827,0,0,0-.61-.244.8.8,0,0,0-.6.244.84.84,0,0,0-.237.61A.9.9,0,0,0,5.672-60.687ZM12.5-54.359a2.206,2.206,0,0,1-1.626.65,2.206,2.206,0,0,1-1.626-.65,2.157,2.157,0,0,1-.65-1.585,2.157,2.157,0,0,1,.65-1.585,2.206,2.206,0,0,1,1.626-.65,2.206,2.206,0,0,1,1.626.65,2.157,2.157,0,0,1,.65,1.585A2.157,2.157,0,0,1,12.5-54.359Zm-2.236-.962a.827.827,0,0,0,.61.244.784.784,0,0,0,.6-.257.87.87,0,0,0,.237-.61.863.863,0,0,0-.237-.617.794.794,0,0,0-.6-.251.794.794,0,0,0-.6.251.863.863,0,0,0-.237.617A.9.9,0,0,0,10.265-55.321Z" transform="translate(-1.055 65.756)" fill="#fff"/>
    </g>
  </g>
</svg>
