<svg width="14" height="15" viewBox="0 0 14 15" fill="none" xmlns="http://www.w3.org/2000/svg">
<path opacity="0.5" fill-rule="evenodd" clip-rule="evenodd" d="M13.1912 8.53263C13.4548 8.67263 13.6581 8.89369 13.8011 9.11474C14.0798 9.57158 14.0572 10.1316 13.7861 10.6253L13.259 11.5095C12.9804 11.9811 12.4608 12.2758 11.9261 12.2758C11.6626 12.2758 11.3689 12.2021 11.1279 12.0547C10.9321 11.9295 10.7062 11.8853 10.4653 11.8853C9.71977 11.8853 9.09477 12.4968 9.07218 13.2263C9.07218 14.0737 8.3794 14.7368 7.51342 14.7368H6.48931C5.61581 14.7368 4.92303 14.0737 4.92303 13.2263C4.90797 12.4968 4.28296 11.8853 3.53747 11.8853C3.28897 11.8853 3.06307 11.9295 2.87481 12.0547C2.63384 12.2021 2.33264 12.2758 2.07661 12.2758C1.53443 12.2758 1.01485 11.9811 0.736231 11.5095L0.216646 10.6253C-0.0619717 10.1463 -0.0770321 9.57158 0.201586 9.11474C0.322069 8.89369 0.547976 8.67263 0.804003 8.53263C1.01485 8.42948 1.15039 8.26 1.27841 8.06106C1.65492 7.42737 1.42901 6.59474 0.788942 6.21895C0.0434513 5.79895 -0.197516 4.86316 0.231707 4.13369L0.736231 3.26421C1.17298 2.53474 2.10673 2.27684 2.85975 2.70421C3.51488 3.0579 4.36579 2.82211 4.74983 2.19579C4.87032 1.98947 4.93809 1.76842 4.92303 1.54737C4.90797 1.26 4.9908 0.987369 5.13387 0.766316C5.41249 0.309474 5.91702 0.0147368 6.46672 0H7.52848C8.08572 0 8.59024 0.309474 8.86886 0.766316C9.0044 0.987369 9.09477 1.26 9.07218 1.54737C9.05712 1.76842 9.12489 1.98947 9.24537 2.19579C9.62941 2.82211 10.4803 3.0579 11.143 2.70421C11.8885 2.27684 12.8298 2.53474 13.259 3.26421L13.7635 4.13369C14.2003 4.86316 13.9593 5.79895 13.2063 6.21895C12.5662 6.59474 12.3403 7.42737 12.7243 8.06106C12.8448 8.26 12.9804 8.42948 13.1912 8.53263ZM4.87109 7.37548C4.87109 8.53233 5.82743 9.45338 7.00967 9.45338C8.19192 9.45338 9.12566 8.53233 9.12566 7.37548C9.12566 6.21864 8.19192 5.29022 7.00967 5.29022C5.82743 5.29022 4.87109 6.21864 4.87109 7.37548Z" fill="#5A6071"/>
</svg>
