<svg width="19" height="16" viewBox="0 0 19 16" fill="none" xmlns="http://www.w3.org/2000/svg">
<path d="M5.97721 15.4381C13.1453 15.4381 17.067 9.49797 17.067 4.3483C17.067 4.18131 17.0633 4.01061 17.0558 3.84362C17.8187 3.2919 18.4771 2.60853 19 1.82561C18.2895 2.14172 17.5351 2.34817 16.7627 2.43791C17.576 1.95038 18.185 1.1845 18.4768 0.282229C17.7116 0.735688 16.8748 1.05556 16.0023 1.22815C15.4144 0.603482 14.6371 0.18988 13.7906 0.0512869C12.9441 -0.0873065 12.0754 0.0568281 11.319 0.461406C10.5626 0.865984 9.96059 1.50847 9.60596 2.28954C9.25133 3.0706 9.16388 3.94673 9.35713 4.78248C7.80781 4.70474 6.29212 4.30226 4.90832 3.60116C3.52452 2.90005 2.30351 1.91597 1.32443 0.712697C0.826816 1.57065 0.674545 2.58588 0.898566 3.55207C1.12259 4.51826 1.70609 5.36289 2.53049 5.91432C1.91158 5.89467 1.30623 5.72804 0.764453 5.42819V5.47643C0.763899 6.37678 1.07516 7.24955 1.64533 7.94636C2.2155 8.64317 3.00938 9.12103 3.89203 9.29869C3.31871 9.45556 2.71699 9.47841 2.13342 9.36549C2.38249 10.1398 2.86708 10.817 3.51957 11.3027C4.17206 11.7883 4.95989 12.0581 5.77311 12.0745C4.3925 13.159 2.68705 13.7472 0.931445 13.7444C0.620102 13.7439 0.309066 13.7248 0 13.6873C1.78351 14.8315 3.85821 15.4392 5.97721 15.4381Z" fill="#616D8B"/>
</svg>
