<svg width="38" height="36" viewBox="0 0 38 36" fill="none" xmlns="http://www.w3.org/2000/svg">
<g clip-path="url(#clip0_6_8734)">
<path d="M10.3252 32.6251C23.9068 32.6251 31.3374 21.3702 31.3374 11.6129C31.3374 11.2965 31.3304 10.9731 31.3163 10.6567C32.7618 9.61131 34.0092 8.3165 35 6.83307C33.6538 7.43202 32.2245 7.82319 30.7609 7.99323C32.3019 7.06948 33.4558 5.61833 34.0086 3.90877C32.5588 4.76796 30.9734 5.37404 29.3202 5.70104C28.2063 4.51746 26.7335 3.7338 25.1295 3.4712C23.5256 3.2086 21.8798 3.4817 20.4466 4.24827C19.0134 5.01484 17.8727 6.23218 17.2008 7.71209C16.5288 9.192 16.3631 10.852 16.7293 12.4356C13.7937 12.2883 10.9219 11.5257 8.29997 10.1973C5.67804 8.86886 3.36454 7.00428 1.50945 4.7244C0.566599 6.34999 0.278085 8.27359 0.702546 10.1043C1.12701 11.9349 2.23259 13.5353 3.79461 14.5801C2.62194 14.5429 1.47496 14.2271 0.448438 13.659V13.7504C0.447387 15.4563 1.03715 17.11 2.11746 18.4303C3.19778 19.7506 4.70199 20.656 6.37437 20.9926C5.28808 21.2898 4.14797 21.3331 3.04227 21.1192C3.51418 22.5863 4.43236 23.8695 5.66866 24.7896C6.90495 25.7098 8.39768 26.221 9.93852 26.252C7.32264 28.3068 4.09126 29.4213 0.764844 29.416C0.174931 29.4151 -0.414401 29.379 -1 29.3078C2.37928 31.4757 6.3103 32.6272 10.3252 32.6251Z" fill="url(#paint0_linear_6_8734)"/>
</g>
<defs>
<linearGradient id="paint0_linear_6_8734" x1="-1" y1="3.37402" x2="25.7357" y2="-12.3641" gradientUnits="userSpaceOnUse">
<stop stop-color="#24272F"/>
<stop offset="1" stop-color="#2C313C"/>
</linearGradient>
<clipPath id="clip0_6_8734">
<rect width="36.8824" height="36" fill="white" transform="translate(0.470703)"/>
</clipPath>
</defs>
</svg>
