<svg id="Group_10722" data-name="Group 10722" xmlns="http://www.w3.org/2000/svg" width="32" height="32" viewBox="0 0 32 32">
  <circle id="_46cbdf4046d4224df5e95fb69fdbbf0c" data-name="46cbdf4046d4224df5e95fb69fdbbf0c" cx="16" cy="16" r="16" fill="#ffffff33"/>
  <path id="question-solid" d="M30.392,0a5.265,5.265,0,0,0-4.677,2.474.653.653,0,0,0,.141.893l1.172.889a.652.652,0,0,0,.9-.113A2.637,2.637,0,0,1,30.18,2.8c.836,0,1.87.538,1.87,1.349,0,.613-.506.928-1.331,1.39-.963.54-2.237,1.211-2.237,2.892V8.7a.652.652,0,0,0,.652.652H31.1a.652.652,0,0,0,.652-.652V8.539c0-1.165,3.4-1.213,3.4-4.365C35.161,1.8,32.7,0,30.392,0Zm-.272,10.149A1.882,1.882,0,1,0,32,12.032,1.885,1.885,0,0,0,30.119,10.149Z" transform="translate(-14.645 8.988)" fill="#fff"/>
</svg>
