<svg width="21" height="12" viewBox="0 0 21 12" fill="none" xmlns="http://www.w3.org/2000/svg">
<path d="M19.5868 1.609C19.1411 1.09773 18.6113 0.692342 18.0278 0.416191C17.4444 0.14004 16.8189 -0.0014085 16.1874 -6.04131e-07C14.9008 -0.00337187 13.6652 0.575042 12.7504 1.609L10.4999 4.092L8.24942 1.61C7.57619 0.841352 6.71868 0.318065 5.78527 0.106285C4.85187 -0.105495 3.88448 0.00373879 3.00539 0.42018C2.12629 0.836621 1.37496 1.54157 0.846368 2.44592C0.317773 3.35028 0.0356445 4.41343 0.0356445 5.501C0.0356445 6.58857 0.317773 7.65172 0.846368 8.55607C1.37496 9.46043 2.12629 10.1654 3.00539 10.5818C3.88448 10.9983 4.85187 11.1075 5.78527 10.8957C6.71868 10.6839 7.57619 10.1606 8.24942 9.392L10.4999 6.83L12.7504 9.392C13.1957 9.91415 13.7272 10.3302 14.3142 10.616C14.9011 10.9018 15.5318 11.0518 16.1698 11.0572C16.8078 11.0626 17.4403 10.9233 18.0309 10.6475C18.6215 10.3716 19.1583 9.96463 19.6103 9.45008C20.0624 8.93552 20.4206 8.32362 20.6643 7.64979C20.9081 6.97595 21.0324 6.25356 21.0302 5.52442C21.028 4.79529 20.8993 4.07389 20.6516 3.40198C20.4038 2.73007 20.0419 2.12099 19.5868 1.61V1.609ZM7.01305 7.983C6.43278 8.64044 5.64876 9.00932 4.83167 9.00932C4.01458 9.00932 3.23056 8.64044 2.6503 7.983C2.08258 7.31998 1.76699 6.42754 1.77219 5.49989C1.7774 4.57225 2.103 3.68451 2.67811 3.02987C3.25322 2.37524 4.0313 2.0067 4.843 2.00448C5.6547 2.00226 6.43432 2.36652 7.01217 3.018L9.18742 5.492L7.01305 7.983ZM18.3495 7.983C17.7695 8.64062 16.9856 9.00964 16.1686 9.00964C15.3516 9.00964 14.5677 8.64062 13.9877 7.983L11.8124 5.493L13.9877 3.017C14.5679 2.35986 15.3517 1.99118 16.1686 1.99118C16.9855 1.99118 17.7693 2.35986 18.3495 3.017C18.6353 3.34269 18.862 3.72961 19.0167 4.1556C19.1714 4.58159 19.251 5.03828 19.251 5.4995C19.251 5.96072 19.1714 6.41741 19.0167 6.8434C18.862 7.26939 18.6353 7.65631 18.3495 7.982V7.983Z" fill="url(#paint0_linear_6_4860)"/>
<defs>
<linearGradient id="paint0_linear_6_4860" x1="10.533" y1="-1.52588e-05" x2="10.533" y2="11.0573" gradientUnits="userSpaceOnUse">
<stop stop-color="#5A6071"/>
<stop offset="1" stop-color="#434C5F"/>
</linearGradient>
</defs>
</svg>
