<svg width="24" height="24" viewBox="0 0 24 24" fill="none" xmlns="http://www.w3.org/2000/svg">
<path fill-rule="evenodd" clip-rule="evenodd" d="M10.7003 5.84665C11.289 4.71778 12.711 4.71778 13.2997 5.84665L18.7817 16.3589C19.3878 17.5213 18.6601 19 17.482 19H6.518C5.33989 19 4.6122 17.5213 5.21833 16.3589L10.7003 5.84665ZM12 13.1667C11.5704 13.1667 11.2222 12.8184 11.2222 12.3889V10.0556C11.2222 9.626 11.5704 9.27778 12 9.27778C12.4296 9.27778 12.7778 9.626 12.7778 10.0556V12.3889C12.7778 12.8184 12.4296 13.1667 12 13.1667ZM12 16.6667C11.3557 16.6667 10.8333 16.1443 10.8333 15.5C10.8333 14.8557 11.3557 14.3333 12 14.3333C12.6443 14.3333 13.1667 14.8557 13.1667 15.5C13.1667 16.1443 12.6443 16.6667 12 16.6667Z" fill="#DB6D6D"/>
</svg>
