<svg width="24" height="24" viewBox="0 0 24 24" fill="none" xmlns="http://www.w3.org/2000/svg">
<path d="M15.4596 15.4596C15.7135 15.2058 15.7135 14.7942 15.4596 14.5404C15.2058 14.2865 14.7942 14.2865 14.5404 14.5404L15.4596 15.4596ZM12 18L11.5404 18.4596C11.6623 18.5815 11.8276 18.65 12 18.65C12.1724 18.65 12.3377 18.5815 12.4596 18.4596L12 18ZM9.45962 14.5404C9.20578 14.2865 8.79422 14.2865 8.54038 14.5404C8.28654 14.7942 8.28654 15.2058 8.54038 15.4596L9.45962 14.5404ZM14.5404 14.5404L11.5404 17.5404L12.4596 18.4596L15.4596 15.4596L14.5404 14.5404ZM12.4596 17.5404L9.45962 14.5404L8.54038 15.4596L11.5404 18.4596L12.4596 17.5404Z" fill="#616D8B"/>
<path d="M12.65 7C12.65 6.64101 12.359 6.35 12 6.35C11.641 6.35 11.35 6.64101 11.35 7H12.65ZM11.35 18C11.35 18.359 11.641 18.65 12 18.65C12.359 18.65 12.65 18.359 12.65 18H11.35ZM11.35 7V18H12.65V7H11.35Z" fill="#616D8B"/>
</svg>
