<svg width="30" height="30" viewBox="0 0 30 30" fill="none" xmlns="http://www.w3.org/2000/svg">
<circle cx="15" cy="15" r="15" fill="#222838"/>
<circle cx="14.8501" cy="15.15" r="10.15" fill="#1D2129"/>
<path d="M9.42473 14.4613C9.03728 17.459 11.1581 20.1916 14.1558 20.579C14.6452 20.6402 15.1346 20.6402 15.6036 20.5586L19.315 24.2496C14.2781 26.7171 8.20119 24.6575 5.73372 19.6206C4.59175 17.2755 4.38783 14.5837 5.16274 12.1162L9.42473 14.4613Z" fill="url(#paint0_radial_2843_118916)"/>
<path d="M9.66942 14.6043L5.18311 12.1164C5.40742 11.4435 5.69291 10.8113 6.01919 10.1792C7.34469 7.81367 9.56746 6.05993 12.1981 5.36659C17.5816 3.87795 23.1487 7.05915 24.6374 12.4427C25.3511 15.0326 25.0044 17.8059 23.6586 20.151C23.3323 20.722 22.9448 21.2726 22.5166 21.7824L9.66942 14.6043ZM11.26 11.0153L20.2326 16.1133C20.7628 13.1361 18.8052 10.3015 15.8279 9.75094C14.1965 9.46545 12.5243 9.93447 11.26 11.0153Z" fill="#3AFFD6"/>
<defs>
<radialGradient id="paint0_radial_2843_118916" cx="0" cy="0" r="1" gradientUnits="userSpaceOnUse" gradientTransform="translate(10.6868 19.9012) rotate(29.4366) scale(9.10197 4.01607)">
<stop stop-color="#979797"/>
<stop offset="1" stop-color="#777777"/>
</radialGradient>
</defs>
</svg>
