<?xml version="1.0" standalone="no"?>
<!DOCTYPE svg PUBLIC "-//W3C//DTD SVG 20010904//EN"
 "http://www.w3.org/TR/2001/REC-SVG-20010904/DTD/svg10.dtd">
<svg version="1.0" xmlns="http://www.w3.org/2000/svg"
 width="700.000000pt" height="700.000000pt" viewBox="0 0 700.000000 700.000000"
 preserveAspectRatio="xMidYMid meet">
<metadata>
Created by potrace 1.14, written by Peter Selinger 2001-2017
</metadata>
<g transform="translate(0.000000,700.000000) scale(0.100000,-0.100000)"
fill="#000000" stroke="none">
<path d="M3260 6990 c-179 -17 -222 -23 -350 -46 -205 -38 -561 -136 -597
-166 -7 -5 -17 -7 -22 -4 -5 4 -12 2 -15 -3 -3 -5 -17 -12 -30 -15 -14 -3 -53
-19 -88 -35 -68 -31 -95 -41 -104 -40 -4 0 -10 -3 -13 -8 -5 -7 -70 -40 -89
-45 -4 -1 -34 -17 -67 -36 -32 -20 -65 -35 -72 -35 -6 0 -15 -7 -17 -14 -3 -8
-10 -11 -16 -8 -5 3 -10 1 -10 -4 0 -6 -6 -11 -14 -11 -7 0 -19 -7 -26 -15 -7
-8 -16 -12 -21 -9 -5 3 -9 -2 -9 -10 0 -9 -4 -15 -8 -14 -13 4 -162 -92 -162
-103 0 -6 -4 -8 -8 -5 -5 3 -19 -4 -30 -15 -12 -11 -22 -18 -22 -15 0 3 -10
-5 -23 -17 -13 -12 -34 -29 -47 -37 -13 -8 -34 -25 -47 -37 -13 -12 -23 -20
-23 -17 0 3 -6 -1 -14 -8 -8 -7 -40 -35 -71 -63 -32 -27 -80 -70 -106 -95 -26
-25 -56 -52 -66 -62 -10 -9 -35 -34 -56 -57 -21 -23 -42 -41 -48 -41 -5 0 -8
-4 -7 -8 2 -4 -18 -29 -43 -55 -25 -25 -44 -49 -41 -52 3 -3 0 -5 -6 -5 -7 0
-12 -7 -12 -15 0 -8 -7 -15 -15 -15 -8 0 -15 -7 -15 -15 0 -8 -4 -15 -9 -15
-5 0 -13 -9 -16 -20 -4 -11 -10 -18 -14 -15 -4 2 -14 -8 -22 -22 -8 -15 -24
-38 -36 -51 -13 -14 -23 -31 -23 -38 0 -8 -4 -14 -9 -14 -5 0 -13 -9 -16 -20
-4 -11 -10 -18 -15 -15 -4 3 -13 -7 -18 -23 -5 -15 -20 -37 -31 -50 -12 -12
-19 -27 -15 -34 4 -6 3 -8 -3 -5 -6 4 -14 -4 -17 -18 -4 -14 -11 -23 -16 -20
-9 6 -14 -8 -11 -27 0 -5 -3 -8 -9 -8 -5 0 -10 -7 -10 -15 0 -8 -3 -15 -8 -15
-4 0 -14 -15 -21 -32 -8 -18 -21 -39 -28 -46 -7 -8 -11 -18 -8 -23 4 -5 2 -9
-4 -9 -5 0 -15 -16 -22 -35 -7 -19 -16 -35 -20 -35 -6 0 -21 -35 -30 -68 -1
-4 -9 -13 -18 -20 -10 -9 -11 -11 -2 -6 8 4 4 -8 -9 -27 -14 -19 -23 -34 -21
-34 3 0 -7 -22 -21 -50 -27 -54 -28 -58 -28 -81 0 -8 -4 -12 -10 -9 -5 3 -10
-3 -10 -14 0 -31 -2 -35 -19 -49 -9 -8 -10 -10 -2 -7 8 5 6 -3 -5 -21 -11 -15
-18 -29 -16 -31 1 -2 -5 -20 -13 -40 -9 -20 -18 -47 -21 -60 -4 -13 -10 -26
-15 -29 -5 -3 -9 -14 -9 -25 0 -10 -6 -19 -12 -19 -9 0 -8 -4 2 -10 8 -5 10
-10 4 -10 -7 0 -15 -7 -18 -16 -4 -10 -2 -13 7 -8 8 5 7 2 -2 -9 -7 -9 -10
-17 -6 -17 4 0 2 -7 -5 -15 -7 -8 -9 -15 -5 -15 4 0 2 -7 -5 -15 -7 -8 -10
-15 -7 -15 3 0 1 -15 -4 -32 -6 -18 -12 -42 -14 -53 -5 -21 -12 -54 -22 -95
-3 -14 -6 -31 -6 -37 0 -7 -3 -13 -7 -13 -3 0 -6 -12 -6 -27 -1 -62 -4 -84
-12 -79 -5 3 -9 -1 -9 -9 0 -8 5 -15 10 -15 6 0 6 -5 0 -12 -5 -7 -11 -29 -12
-48 -4 -47 -9 -85 -11 -85 -3 0 -12 -120 -13 -167 0 -27 -3 -48 -7 -48 -3 0
-6 -9 -6 -20 0 -11 4 -20 8 -20 4 0 4 -11 -1 -23 -5 -13 -5 -30 -1 -37 5 -8 5
-21 1 -29 -8 -19 -6 -209 3 -218 3 -3 1 -12 -5 -20 -6 -7 -8 -13 -3 -13 5 0
10 -39 12 -87 2 -48 8 -90 14 -94 7 -4 7 -9 -1 -14 -7 -4 -8 -12 -3 -18 4 -7
8 -19 7 -27 -1 -8 2 -25 7 -37 5 -15 4 -23 -3 -23 -8 0 -8 -4 0 -14 6 -7 9
-21 5 -30 -3 -9 -2 -16 4 -16 5 0 10 -10 9 -22 0 -19 4 -50 17 -113 1 -5 5
-16 9 -22 5 -8 3 -13 -5 -13 -8 0 -9 -3 -3 -8 10 -7 12 -14 18 -50 1 -9 5 -21
8 -27 3 -5 5 -17 4 -25 0 -8 3 -17 7 -20 4 -3 8 -22 10 -43 1 -20 6 -37 10
-37 4 0 8 -13 8 -29 0 -17 5 -33 11 -36 6 -4 8 -13 5 -21 -3 -7 0 -19 7 -26 7
-7 12 -20 12 -28 -1 -8 3 -21 8 -27 5 -7 6 -13 2 -13 -4 0 -2 -6 4 -13 6 -8
12 -22 14 -33 5 -24 16 -54 28 -76 5 -10 9 -27 9 -38 0 -11 5 -20 10 -20 6 0
10 -8 10 -18 0 -10 3 -22 7 -26 5 -4 8 -11 8 -14 1 -4 11 -29 23 -56 12 -27
22 -55 22 -63 0 -8 5 -11 10 -8 6 4 10 -5 10 -19 0 -14 5 -26 10 -26 6 0 10
-7 10 -15 0 -8 4 -15 10 -15 5 0 7 -6 4 -13 -3 -8 2 -20 11 -27 8 -7 15 -21
15 -31 0 -11 5 -19 10 -19 6 0 10 -9 10 -20 0 -10 8 -24 18 -29 9 -6 13 -11 8
-11 -5 0 -3 -7 4 -15 7 -8 9 -15 4 -15 -4 0 0 -6 9 -13 9 -6 17 -19 19 -27 3
-14 8 -21 38 -57 8 -10 14 -20 12 -23 -1 -3 5 -13 13 -23 8 -9 15 -22 15 -27
0 -6 5 -10 12 -10 6 0 9 -3 5 -6 -3 -3 3 -15 14 -27 10 -11 19 -27 19 -34 0
-7 5 -13 11 -13 5 0 8 -4 5 -8 -3 -5 4 -15 15 -22 10 -8 19 -20 19 -27 0 -7 5
-13 10 -13 6 0 10 -5 10 -11 0 -5 13 -24 30 -42 16 -18 30 -36 30 -41 0 -5 10
-17 22 -27 11 -11 18 -19 14 -19 -4 0 6 -12 21 -28 15 -15 37 -40 47 -54 11
-15 24 -24 29 -21 6 3 7 1 3 -5 -7 -11 254 -279 348 -357 27 -22 54 -45 60
-50 6 -6 38 -31 71 -55 33 -25 61 -48 63 -52 2 -5 8 -8 14 -8 5 0 16 -7 25
-15 12 -12 172 -119 258 -172 58 -36 271 -145 345 -177 47 -21 94 -41 105 -46
128 -57 384 -137 560 -176 60 -14 229 -44 271 -48 27 -4 59 -8 72 -11 136 -26
683 -26 844 0 13 2 59 9 103 15 44 7 89 14 100 16 11 2 36 7 55 10 215 37 552
146 788 255 l83 38 -21 21 c-11 11 -22 19 -25 18 -8 -5 -40 46 -37 57 2 6 1 7
-3 3 -9 -8 -71 51 -67 64 1 5 -2 7 -7 4 -5 -3 -12 1 -15 10 -3 8 -10 12 -16 9
-5 -3 -10 -1 -10 5 0 6 -47 58 -105 115 -58 57 -105 108 -105 114 0 6 -3 10
-7 9 -11 -4 -99 83 -96 93 2 5 -1 9 -5 9 -14 0 -121 107 -115 114 4 3 1 6 -6
6 -16 0 -41 25 -41 41 0 7 -3 9 -7 6 -3 -4 -15 5 -25 20 -10 16 -18 24 -18 20
0 -5 -7 -2 -15 7 -8 8 -15 20 -15 27 0 7 -3 10 -6 6 -7 -7 -74 61 -74 76 0 6
-3 7 -6 4 -9 -9 -45 33 -38 45 3 4 2 8 -3 7 -20 -3 -34 2 -28 11 3 6 2 10 -4
10 -14 0 -61 48 -61 62 0 6 -3 9 -6 6 -5 -5 -54 37 -54 47 0 9 -49 52 -54 47
-3 -3 -12 10 -20 29 -9 19 -16 27 -16 19 -1 -10 -5 -7 -12 8 -6 12 -17 22 -25
22 -7 0 -13 7 -13 16 0 8 -5 12 -10 9 -6 -3 -10 0 -10 7 -1 21 -50 50 -83 49
-66 -2 -212 -10 -217 -11 -3 -2 -9 -2 -13 -1 -5 1 -50 4 -100 7 -138 7 -207
17 -299 40 -13 3 -36 7 -51 10 -68 13 -298 93 -309 109 -4 6 -8 7 -8 3 0 -10
-193 92 -207 109 -6 8 -13 14 -15 13 -7 -4 -58 24 -58 31 0 4 -9 11 -20 14
-11 4 -31 17 -44 30 -13 13 -27 21 -30 18 -3 -3 -8 2 -12 11 -3 9 -11 16 -16
16 -5 0 -27 18 -49 40 -21 21 -39 36 -39 33 0 -3 -9 2 -20 12 -11 10 -17 23
-13 29 3 6 2 8 -2 3 -9 -8 -115 96 -115 112 0 5 -8 12 -18 15 -10 3 -26 20
-36 37 -10 18 -26 39 -35 49 -31 33 -51 60 -51 70 0 5 -8 14 -17 19 -10 6 -15
11 -11 11 4 0 -4 16 -17 36 -14 20 -22 41 -18 47 3 6 1 7 -5 3 -7 -4 -12 -1
-12 9 0 10 -5 13 -12 9 -8 -5 -9 -2 -5 9 3 10 2 17 -3 17 -10 0 -44 69 -42 83
1 4 -3 7 -8 7 -6 0 -10 9 -10 20 0 11 -5 20 -11 20 -6 0 -9 6 -6 14 3 8 -1 20
-9 26 -8 7 -14 18 -14 24 0 6 -6 22 -13 37 -8 14 -13 33 -11 42 1 9 -2 15 -7
11 -5 -3 -10 2 -10 10 -2 25 -4 30 -12 44 -5 6 -5 12 -1 12 4 0 -1 10 -12 22
-10 12 -13 18 -6 14 17 -10 15 9 -3 27 -8 8 -11 17 -8 20 3 4 2 14 -2 24 -5
10 -7 24 -6 31 1 6 -4 12 -11 12 -9 0 -9 3 2 10 8 5 10 10 3 10 -6 0 -9 9 -6
20 3 11 0 20 -6 20 -6 0 -9 13 -7 30 2 17 0 30 -4 30 -4 0 -6 13 -5 30 1 17
-2 30 -9 30 -6 0 -4 5 4 10 8 5 10 10 4 10 -7 0 -15 7 -18 16 -4 10 -2 13 6 8
8 -5 9 1 4 22 -13 49 -15 94 -4 88 6 -4 5 2 -1 14 -8 14 -8 23 -1 27 7 4 8 11
2 18 -5 7 -9 26 -7 42 1 17 -3 36 -9 44 -8 11 -8 13 2 7 7 -4 12 -2 12 6 0 8
-6 20 -12 27 -11 11 -10 12 1 6 11 -6 13 -3 9 13 -3 12 -1 23 6 26 8 3 8 5 0
5 -11 1 -8 25 6 81 3 10 10 13 10 4 0 -6 16 -16 35 -23 19 -7 35 -17 35 -22 0
-5 6 -9 13 -9 6 0 37 -15 69 -34 31 -19 59 -32 62 -29 3 4 6 2 6 -4 0 -6 14
-16 30 -23 17 -7 30 -16 30 -21 0 -5 9 -9 20 -9 11 0 20 -4 20 -10 0 -5 6 -9
13 -7 6 1 11 -5 9 -13 -2 -8 0 -12 3 -8 8 8 61 -17 83 -38 7 -8 18 -12 23 -9
5 4 9 1 9 -4 0 -6 6 -10 13 -8 6 1 11 -4 9 -11 -1 -7 3 -12 10 -11 17 3 68
-22 68 -33 0 -5 5 -6 10 -3 6 3 12 0 15 -7 3 -8 14 -14 25 -15 24 -2 52 -27
42 -39 -4 -5 1 -2 11 5 11 9 17 10 17 2 0 -6 7 -11 15 -11 8 0 15 -4 15 -10 0
-5 7 -10 15 -10 8 0 15 -5 15 -11 0 -5 5 -7 10 -4 6 3 10 2 10 -4 0 -5 14 -12
30 -16 17 -4 30 -10 30 -14 0 -5 29 -23 65 -41 36 -18 65 -37 65 -43 0 -5 7
-7 15 -3 18 7 19 -5 3 -24 -11 -12 -10 -12 4 -1 14 10 24 8 65 -15 26 -15 58
-32 70 -38 13 -6 23 -14 23 -18 0 -5 7 -8 15 -8 8 0 15 -5 15 -11 0 -5 4 -8 9
-4 5 3 16 -2 24 -10 9 -8 23 -15 31 -15 9 0 16 -3 16 -7 0 -5 10 -13 23 -19
37 -18 138 -75 206 -116 34 -21 67 -38 72 -38 5 0 9 -5 9 -12 0 -6 3 -9 6 -5
3 3 23 -4 43 -17 20 -12 43 -26 51 -29 8 -4 38 -21 65 -38 28 -16 58 -33 68
-36 9 -3 17 -10 17 -15 0 -5 4 -7 9 -3 5 3 13 0 17 -6 3 -6 34 -24 68 -40 33
-16 57 -29 51 -29 -5 0 21 -15 57 -34 81 -41 109 -61 103 -69 -3 -4 0 -3 6 2
7 6 18 2 30 -10 10 -10 26 -19 34 -19 8 0 15 -4 15 -10 0 -5 7 -10 15 -10 8 0
15 -5 15 -12 0 -6 3 -8 6 -5 9 9 46 -12 39 -23 -3 -5 4 -7 15 -5 11 2 20 0 20
-4 0 -5 14 -14 30 -21 17 -7 30 -16 30 -21 0 -5 4 -8 8 -6 13 4 112 -53 112
-65 0 -5 7 -8 15 -4 8 3 15 1 15 -4 0 -6 7 -10 15 -10 8 0 15 -5 15 -11 0 -5
4 -7 10 -4 6 3 10 1 10 -5 0 -6 5 -8 10 -5 6 3 10 3 10 -2 0 -9 48 -33 68 -33
7 0 11 -4 8 -8 -3 -5 10 -15 29 -22 19 -8 35 -16 35 -19 0 -8 63 -36 73 -33 5
1 5 -3 1 -9 -5 -9 -2 -10 10 -6 9 4 15 3 12 -2 -7 -10 23 -26 55 -30 6 0 9 -7
6 -15 -4 -10 0 -13 14 -11 11 2 22 -2 25 -10 3 -7 12 -11 20 -8 7 3 17 -2 20
-11 3 -9 14 -16 24 -16 10 0 25 -7 33 -15 8 -8 17 -11 21 -8 3 4 6 1 6 -5 0
-7 7 -12 15 -12 8 0 15 -4 15 -9 0 -5 11 -12 25 -15 14 -4 25 -11 25 -17 0 -6
5 -7 10 -4 6 3 10 1 10 -5 0 -6 4 -8 10 -5 6 3 10 1 10 -5 0 -6 4 -8 10 -5 6
3 10 1 10 -4 0 -6 9 -11 21 -11 11 0 17 -5 14 -10 -3 -6 3 -10 14 -10 12 0 21
-4 21 -10 0 -5 5 -10 12 -10 6 0 20 -8 31 -18 15 -12 19 -13 13 -2 -7 13 -6
13 6 0 7 -8 30 -24 51 -35 20 -11 37 -23 37 -27 0 -5 3 -8 8 -7 15 2 52 -14
52 -23 0 -5 4 -7 9 -4 5 3 12 -1 15 -10 3 -8 10 -13 15 -9 6 3 20 -5 32 -17
12 -13 19 -17 14 -10 -6 11 -3 11 14 0 12 -7 21 -16 21 -21 0 -4 5 -5 10 -2 6
3 10 1 10 -5 0 -6 5 -8 10 -5 6 3 10 1 10 -6 0 -7 3 -10 6 -6 4 3 13 -1 21 -9
8 -8 19 -11 25 -8 6 4 8 3 5 -3 -4 -5 12 -16 33 -23 37 -12 45 -21 41 -44 -1
-5 5 -4 13 4 11 8 16 9 16 1 0 -6 7 -11 15 -11 8 0 15 -4 15 -10 0 -5 9 -10
21 -10 11 0 17 -4 14 -10 -3 -5 3 -10 14 -10 12 0 21 -5 21 -11 0 -5 4 -7 10
-4 5 3 10 1 10 -5 0 -6 4 -8 10 -5 5 3 10 1 10 -5 0 -6 4 -8 10 -5 5 3 10 1
10 -5 0 -6 4 -8 10 -5 5 3 10 -1 10 -9 0 -10 6 -13 15 -10 8 4 15 2 15 -2 0
-5 15 -15 33 -23 17 -8 34 -17 37 -20 3 -4 30 -19 60 -35 30 -16 63 -36 73
-44 9 -8 17 -11 17 -7 0 4 8 2 18 -6 9 -8 38 -26 65 -39 26 -13 47 -27 47 -32
0 -4 9 -8 20 -8 11 0 20 -4 20 -10 0 -5 7 -10 15 -10 8 0 15 -5 15 -11 0 -6 7
-9 15 -5 9 3 15 0 15 -9 0 -8 5 -15 11 -15 5 0 7 5 3 12 -4 7 -3 8 4 4 13 -8
43 24 134 141 410 530 650 1134 721 1818 13 124 16 596 3 655 -2 14 -7 56 -11
94 -3 38 -8 72 -10 75 -1 3 -6 35 -10 71 -4 36 -9 68 -11 71 -2 4 -6 24 -10
45 -10 67 -72 305 -107 414 -223 684 -655 1286 -1232 1715 -198 148 -325 225
-570 345 -367 179 -744 285 -1190 335 -81 9 -494 12 -575 5z m255 -1610 c4 -7
13 -6 26 1 15 7 24 7 34 -1 9 -8 15 -8 20 0 3 6 9 8 13 6 4 -2 43 -7 87 -10
44 -3 91 -9 105 -12 14 -3 41 -7 60 -9 19 -2 39 -4 43 -4 5 -1 5 -7 1 -13 -6
-10 -5 -10 8 -1 8 7 18 10 21 6 4 -3 24 -8 44 -10 21 -2 40 -7 43 -11 3 -4 10
-8 16 -9 44 -8 63 -13 94 -24 19 -6 41 -17 49 -23 12 -9 13 -8 7 3 -7 10 -3
10 15 -2 13 -8 37 -18 52 -21 15 -4 25 -11 22 -15 -3 -5 4 -7 15 -4 12 3 20 0
20 -6 0 -7 5 -9 10 -6 6 3 10 1 10 -5 0 -6 5 -8 10 -5 6 3 10 1 10 -4 0 -6 3
-10 8 -9 4 1 17 -2 30 -6 20 -7 21 -10 10 -23 -12 -15 -11 -15 9 -2 20 12 25
11 48 -11 14 -13 25 -19 25 -14 0 5 6 2 13 -6 7 -8 30 -24 52 -36 22 -12 39
-26 38 -32 -2 -6 4 -9 12 -6 9 4 18 -1 21 -11 5 -12 9 -13 14 -5 5 9 10 6 15
-9 3 -12 11 -19 16 -16 5 4 12 -1 15 -9 3 -9 12 -16 20 -16 8 0 14 -5 14 -11
0 -5 5 -7 10 -4 6 3 10 -1 10 -10 0 -9 4 -14 9 -11 5 3 11 -1 15 -9 3 -8 13
-15 21 -15 9 0 13 -4 10 -10 -3 -5 -1 -10 5 -10 14 0 160 -147 160 -162 0 -6
3 -8 7 -5 9 10 36 -31 28 -43 -3 -6 1 -7 9 -4 9 3 16 2 16 -3 0 -6 13 -24 29
-41 19 -20 26 -32 18 -36 -7 -2 -5 -5 5 -5 9 -1 20 -10 23 -21 3 -11 11 -20
16 -20 6 0 8 -4 5 -9 -3 -5 1 -11 9 -15 8 -3 15 -10 15 -16 0 -6 9 -20 20 -32
18 -20 24 -38 18 -54 -2 -3 8 -12 22 -19 15 -9 19 -14 10 -15 -10 0 -11 -3 -4
-8 6 -4 21 -27 35 -52 13 -25 27 -47 32 -48 4 -2 4 -8 1 -13 -3 -6 2 -20 13
-31 10 -12 12 -18 5 -14 -11 7 -11 4 0 -13 7 -12 15 -21 18 -21 3 0 7 -10 7
-22 1 -13 7 -24 14 -27 8 -2 7 -6 -2 -12 -10 -6 -11 -9 -1 -9 6 0 12 -11 12
-25 0 -14 5 -25 12 -25 6 0 9 -3 5 -6 -3 -4 1 -13 9 -22 11 -10 12 -18 5 -25
-14 -14 -14 -30 -1 -22 6 3 10 -5 10 -19 0 -14 4 -27 10 -31 5 -3 7 -12 3 -20
-3 -9 1 -15 8 -15 11 0 11 -3 -1 -10 -12 -8 -12 -10 -1 -10 8 0 11 -3 8 -6 -3
-4 -2 -16 4 -27 8 -14 8 -18 0 -13 -6 4 -11 3 -11 -3 0 -5 5 -11 10 -13 6 -2
12 -21 14 -44 1 -22 6 -46 10 -53 4 -6 5 -18 2 -26 -3 -8 -1 -17 4 -20 6 -3 6
-15 0 -30 -7 -17 -6 -25 1 -25 6 0 9 -7 5 -15 -3 -8 0 -15 7 -15 7 0 8 -3 2
-8 -15 -10 -18 -42 -4 -42 8 0 8 -4 -1 -15 -10 -12 -10 -15 0 -15 10 0 10 -3
0 -15 -10 -12 -10 -15 0 -15 10 0 10 -3 1 -14 -9 -10 -9 -16 -1 -21 8 -5 8
-11 -1 -21 -9 -11 -8 -14 2 -15 11 0 11 -2 1 -6 -10 -4 -10 -8 -1 -19 6 -8 7
-14 2 -14 -13 0 -11 -43 2 -52 6 -5 5 -8 -2 -8 -7 0 -13 -10 -13 -22 0 -42 -2
-63 -7 -78 -3 -8 -7 -31 -8 -50 -4 -67 -4 -67 -15 -50 -7 11 -10 11 -10 2 0
-10 -3 -10 -14 0 -8 7 -11 18 -8 23 3 6 2 7 -3 3 -10 -9 -105 39 -105 53 0 5
-5 7 -10 4 -6 -4 -20 4 -31 17 -11 13 -18 17 -14 11 4 -9 1 -11 -9 -7 -9 3
-16 9 -16 13 0 4 -16 13 -35 21 -19 8 -35 17 -35 22 0 4 -7 8 -15 8 -8 0 -15
5 -15 10 0 6 -6 9 -12 8 -7 -2 -12 3 -10 10 1 8 -2 11 -7 7 -12 -7 -83 30 -74
39 3 3 -3 6 -15 6 -12 0 -22 5 -22 10 0 6 -7 10 -15 10 -8 0 -24 9 -35 20 -12
12 -20 15 -20 8 0 -10 -2 -10 -8 0 -12 18 -78 52 -87 44 -4 -4 -5 -1 -3 7 1 7
-6 15 -17 17 -11 1 -21 8 -23 14 -2 5 -8 8 -13 4 -5 -3 -9 0 -9 6 0 6 -4 9 -8
6 -5 -3 -15 4 -22 15 -8 10 -19 19 -25 19 -17 0 -65 24 -65 33 0 4 -7 7 -15 7
-8 0 -15 5 -15 11 0 5 -4 8 -10 4 -5 -3 -19 4 -30 15 -11 11 -25 18 -30 15 -6
-4 -13 1 -16 9 -3 9 -10 13 -15 10 -5 -3 -9 -2 -9 3 0 4 -14 14 -30 21 -18 9
-27 18 -23 25 5 9 3 9 -8 0 -11 -9 -19 -7 -38 13 -13 13 -27 21 -32 18 -5 -3
-9 -1 -9 4 0 5 -13 15 -30 22 -16 7 -30 17 -30 22 0 5 -4 7 -9 3 -5 -3 -16 2
-25 10 -8 9 -19 17 -23 18 -4 1 -7 4 -6 7 1 3 -8 7 -19 7 -11 1 -32 12 -46 25
-14 13 -22 17 -18 10 7 -11 4 -11 -13 0 -12 7 -21 16 -21 21 0 4 -4 5 -10 2
-5 -3 -10 -1 -10 4 0 6 -5 11 -10 11 -6 0 -36 16 -66 35 -30 19 -61 35 -70 35
-8 0 -12 5 -9 10 3 6 -3 10 -14 10 -12 0 -21 3 -21 8 0 4 -10 12 -23 18 -66
32 -107 57 -107 66 0 5 -4 7 -9 3 -5 -3 -15 0 -23 7 -7 7 -26 20 -43 28 -16 8
-59 31 -94 52 -34 21 -67 38 -72 38 -5 0 -9 5 -9 10 0 6 -5 10 -11 10 -6 0
-39 17 -73 37 -91 56 -138 83 -168 96 -16 6 -28 15 -28 19 0 4 -7 8 -15 8 -8
0 -15 5 -15 11 0 5 -4 8 -9 4 -5 -3 -12 -1 -16 5 -3 5 -23 17 -43 27 -20 9
-39 19 -42 22 -7 9 -60 39 -100 59 -19 9 -41 23 -49 30 -8 8 -25 18 -38 23
-13 5 -21 13 -18 19 3 5 0 7 -9 4 -18 -7 -68 25 -59 39 3 5 1 7 -5 3 -12 -7
-64 13 -57 23 2 4 -6 8 -18 8 -12 1 -23 7 -25 13 -2 5 -10 10 -18 10 -8 0 -14
5 -14 11 0 5 -5 7 -10 4 -6 -3 -13 1 -16 9 -3 9 -10 14 -14 11 -4 -3 -23 6
-42 18 -18 13 -48 30 -66 38 -17 7 -32 17 -32 21 0 5 -7 8 -16 8 -8 0 -12 5
-9 10 3 6 -3 10 -14 10 -12 0 -21 5 -21 11 0 5 -4 8 -9 5 -4 -3 -23 6 -41 19
-19 14 -41 25 -49 25 -13 0 -13 2 -3 9 8 4 14 12 13 17 0 5 7 8 15 8 9 -1 13
0 10 3 -9 10 36 43 48 36 6 -3 8 -3 4 2 -10 11 20 38 37 31 10 -3 12 0 8 11
-4 10 -2 14 4 10 6 -4 13 0 17 8 3 8 12 15 21 15 8 0 15 4 15 10 0 5 11 12 25
16 14 3 25 9 25 13 0 4 12 14 28 22 15 7 38 21 51 31 18 14 27 15 38 7 11 -10
12 -8 7 7 -4 10 -4 16 1 12 4 -4 19 1 33 12 13 11 28 17 33 14 5 -3 9 0 9 6 0
6 4 9 9 5 5 -3 12 -1 15 4 4 5 30 17 59 27 28 9 58 21 65 27 6 5 12 6 12 2 0
-4 6 -3 13 3 9 8 97 34 192 56 6 2 21 6 35 9 14 3 45 9 70 12 25 4 56 9 70 11
14 2 63 6 110 10 46 3 87 7 89 10 7 7 20 4 26 -6z"/>
<path d="M3345 5180 c-3 -6 1 -7 9 -4 18 7 21 14 7 14 -6 0 -13 -4 -16 -10z"/>
<path d="M3193 5045 c0 -8 4 -12 9 -9 5 3 6 10 3 15 -9 13 -12 11 -12 -6z"/>
<path d="M4330 4919 c0 -5 5 -7 10 -4 6 3 10 8 10 11 0 2 -4 4 -10 4 -5 0 -10
-5 -10 -11z"/>
<path d="M4476 4882 c-3 -5 1 -9 9 -9 8 0 12 4 9 9 -3 4 -7 8 -9 8 -2 0 -6 -4
-9 -8z"/>
<path d="M2876 4867 c3 -10 9 -15 12 -12 3 3 0 11 -7 18 -10 9 -11 8 -5 -6z"/>
<path d="M4475 4760 c-3 -5 -1 -10 4 -10 6 0 11 5 11 10 0 6 -2 10 -4 10 -3 0
-8 -4 -11 -10z"/>
<path d="M4709 4123 c-13 -16 -12 -17 4 -4 16 13 21 21 13 21 -2 0 -10 -8 -17
-17z"/>
<path d="M1793 3515 c0 -8 4 -12 9 -9 5 3 6 10 3 15 -9 13 -12 11 -12 -6z"/>
<path d="M2240 3160 c-9 -6 -10 -10 -3 -10 6 0 15 5 18 10 8 12 4 12 -15 0z"/>
<path d="M2355 2571 c-3 -5 -2 -12 3 -15 5 -3 9 1 9 9 0 17 -3 19 -12 6z"/>
<path d="M4466 1722 c-3 -5 1 -9 9 -9 8 0 12 4 9 9 -3 4 -7 8 -9 8 -2 0 -6 -4
-9 -8z"/>
</g>
</svg>
