<svg width="101" height="49" viewBox="0 0 101 49" fill="none" xmlns="http://www.w3.org/2000/svg">
<rect x="1" y="1" width="99" height="47" rx="6" stroke="url(#paint0_linear_6_9113)"/>
<path d="M17.52 10.8H19.728V22H18.048L13.248 15.152V22H11.04V10.8H12.72L17.52 17.632V10.8ZM23.9536 18.848C24.231 19.8507 24.983 20.352 26.2096 20.352C26.999 20.352 27.5963 20.0853 28.0016 19.552L29.6656 20.512C28.8763 21.6533 27.7136 22.224 26.1776 22.224C24.855 22.224 23.7936 21.824 22.9936 21.024C22.1936 20.224 21.7936 19.216 21.7936 18C21.7936 16.7947 22.1883 15.792 22.9776 14.992C23.767 14.1813 24.7803 13.776 26.0176 13.776C27.191 13.776 28.1563 14.1813 28.9136 14.992C29.6816 15.8027 30.0656 16.8053 30.0656 18C30.0656 18.2667 30.039 18.5493 29.9856 18.848H23.9536ZM23.9216 17.248H28.0016C27.8843 16.704 27.639 16.2987 27.2656 16.032C26.903 15.7653 26.487 15.632 26.0176 15.632C25.463 15.632 25.0043 15.776 24.6416 16.064C24.279 16.3413 24.039 16.736 23.9216 17.248ZM40.702 14H42.894L40.35 22H38.382L36.91 17.152L35.438 22H33.47L30.926 14H33.118L34.478 18.912L35.934 14H37.886L39.342 18.928L40.702 14ZM15.216 26.8C16.2933 26.8 17.2 27.1627 17.936 27.888C18.672 28.6133 19.04 29.504 19.04 30.56C19.04 31.616 18.672 32.5067 17.936 33.232C17.2 33.9573 16.2933 34.32 15.216 34.32H13.248V38H11.04V26.8H15.216ZM15.216 32.256C15.6853 32.256 16.0747 32.096 16.384 31.776C16.6933 31.4453 16.848 31.04 16.848 30.56C16.848 30.0693 16.6933 29.664 16.384 29.344C16.0747 29.024 15.6853 28.864 15.216 28.864H13.248V32.256H15.216ZM27.1663 37.008C26.3449 37.8187 25.3423 38.224 24.1583 38.224C22.9743 38.224 21.9716 37.8187 21.1503 37.008C20.3396 36.1867 19.9342 35.184 19.9342 34C19.9342 32.816 20.3396 31.8187 21.1503 31.008C21.9716 30.1867 22.9743 29.776 24.1583 29.776C25.3423 29.776 26.3449 30.1867 27.1663 31.008C27.9876 31.8187 28.3983 32.816 28.3983 34C28.3983 35.184 27.9876 36.1867 27.1663 37.008ZM22.6063 35.584C23.0223 36 23.5396 36.208 24.1583 36.208C24.7769 36.208 25.2943 36 25.7103 35.584C26.1263 35.168 26.3343 34.64 26.3343 34C26.3343 33.36 26.1263 32.832 25.7103 32.416C25.2943 32 24.7769 31.792 24.1583 31.792C23.5396 31.792 23.0223 32 22.6063 32.416C22.2009 32.832 21.9983 33.36 21.9983 34C21.9983 34.64 22.2009 35.168 22.6063 35.584ZM32.0824 32.272C32.0824 32.4853 32.221 32.6613 32.4984 32.8C32.7864 32.928 33.133 33.0453 33.5384 33.152C33.9437 33.248 34.349 33.376 34.7544 33.536C35.1597 33.6853 35.501 33.9413 35.7784 34.304C36.0664 34.6667 36.2104 35.12 36.2104 35.664C36.2104 36.4853 35.901 37.12 35.2824 37.568C34.6744 38.0053 33.9117 38.224 32.9944 38.224C31.3517 38.224 30.2317 37.5893 29.6344 36.32L31.4264 35.312C31.661 36.0053 32.1837 36.352 32.9944 36.352C33.7304 36.352 34.0984 36.1227 34.0984 35.664C34.0984 35.4507 33.9544 35.28 33.6664 35.152C33.389 35.0133 33.0477 34.8907 32.6424 34.784C32.237 34.6773 31.8317 34.544 31.4264 34.384C31.021 34.224 30.6744 33.9733 30.3864 33.632C30.109 33.28 29.9704 32.8427 29.9704 32.32C29.9704 31.5307 30.2584 30.912 30.8344 30.464C31.421 30.0053 32.1464 29.776 33.0104 29.776C33.661 29.776 34.253 29.9253 34.7864 30.224C35.3197 30.512 35.741 30.928 36.0504 31.472L34.2904 32.432C34.0344 31.888 33.6077 31.616 33.0104 31.616C32.7437 31.616 32.5197 31.6747 32.3384 31.792C32.1677 31.9093 32.0824 32.0693 32.0824 32.272ZM39.0618 29.04C38.7204 29.04 38.4218 28.9173 38.1658 28.672C37.9204 28.416 37.7978 28.1173 37.7978 27.776C37.7978 27.4347 37.9204 27.136 38.1658 26.88C38.4218 26.624 38.7204 26.496 39.0618 26.496C39.4138 26.496 39.7124 26.624 39.9578 26.88C40.2138 27.136 40.3418 27.4347 40.3418 27.776C40.3418 28.1173 40.2138 28.416 39.9578 28.672C39.7124 28.9173 39.4138 29.04 39.0618 29.04ZM38.0378 38V30H40.1018V38H38.0378ZM47.0669 31.984H45.2589V35.312C45.2589 35.5893 45.3282 35.792 45.4669 35.92C45.6055 36.048 45.8082 36.1227 46.0749 36.144C46.3415 36.1547 46.6722 36.1493 47.0669 36.128V38C45.6482 38.16 44.6455 38.0267 44.0589 37.6C43.4829 37.1733 43.1949 36.4107 43.1949 35.312V31.984H41.8029V30H43.1949V28.384L45.2589 27.76V30H47.0669V31.984ZM50.0461 29.04C49.7048 29.04 49.4061 28.9173 49.1501 28.672C48.9048 28.416 48.7821 28.1173 48.7821 27.776C48.7821 27.4347 48.9048 27.136 49.1501 26.88C49.4061 26.624 49.7048 26.496 50.0461 26.496C50.3981 26.496 50.6968 26.624 50.9421 26.88C51.1981 27.136 51.3261 27.4347 51.3261 27.776C51.3261 28.1173 51.1981 28.416 50.9421 28.672C50.6968 28.9173 50.3981 29.04 50.0461 29.04ZM49.0221 38V30H51.0861V38H49.0221ZM60.2913 37.008C59.4699 37.8187 58.4673 38.224 57.2833 38.224C56.0993 38.224 55.0966 37.8187 54.2753 37.008C53.4646 36.1867 53.0592 35.184 53.0592 34C53.0592 32.816 53.4646 31.8187 54.2753 31.008C55.0966 30.1867 56.0993 29.776 57.2833 29.776C58.4673 29.776 59.4699 30.1867 60.2913 31.008C61.1126 31.8187 61.5233 32.816 61.5233 34C61.5233 35.184 61.1126 36.1867 60.2913 37.008ZM55.7313 35.584C56.1473 36 56.6646 36.208 57.2833 36.208C57.9019 36.208 58.4193 36 58.8353 35.584C59.2513 35.168 59.4593 34.64 59.4593 34C59.4593 33.36 59.2513 32.832 58.8353 32.416C58.4193 32 57.9019 31.792 57.2833 31.792C56.6646 31.792 56.1473 32 55.7313 32.416C55.3259 32.832 55.1233 33.36 55.1233 34C55.1233 34.64 55.3259 35.168 55.7313 35.584ZM67.9233 29.776C68.7979 29.776 69.5179 30.0693 70.0833 30.656C70.6593 31.2427 70.9473 32.0533 70.9473 33.088V38H68.8833V33.344C68.8833 32.8107 68.7393 32.4053 68.4513 32.128C68.1633 31.84 67.7793 31.696 67.2993 31.696C66.7659 31.696 66.3393 31.8613 66.0193 32.192C65.6993 32.5227 65.5393 33.0187 65.5393 33.68V38H63.4753V30H65.5393V30.896C66.0406 30.1493 66.8353 29.776 67.9233 29.776ZM75.1136 32.272C75.1136 32.4853 75.2523 32.6613 75.5296 32.8C75.8176 32.928 76.1643 33.0453 76.5696 33.152C76.975 33.248 77.3803 33.376 77.7856 33.536C78.191 33.6853 78.5323 33.9413 78.8096 34.304C79.0976 34.6667 79.2416 35.12 79.2416 35.664C79.2416 36.4853 78.9323 37.12 78.3136 37.568C77.7056 38.0053 76.943 38.224 76.0256 38.224C74.383 38.224 73.263 37.5893 72.6656 36.32L74.4576 35.312C74.6923 36.0053 75.215 36.352 76.0256 36.352C76.7616 36.352 77.1296 36.1227 77.1296 35.664C77.1296 35.4507 76.9856 35.28 76.6976 35.152C76.4203 35.0133 76.079 34.8907 75.6736 34.784C75.2683 34.6773 74.863 34.544 74.4576 34.384C74.0523 34.224 73.7056 33.9733 73.4176 33.632C73.1403 33.28 73.0016 32.8427 73.0016 32.32C73.0016 31.5307 73.2896 30.912 73.8656 30.464C74.4523 30.0053 75.1776 29.776 76.0416 29.776C76.6923 29.776 77.2843 29.9253 77.8176 30.224C78.351 30.512 78.7723 30.928 79.0816 31.472L77.3216 32.432C77.0656 31.888 76.639 31.616 76.0416 31.616C75.775 31.616 75.551 31.6747 75.3696 31.792C75.199 31.9093 75.1136 32.0693 75.1136 32.272Z" fill="url(#paint1_linear_6_9113)"/>
<defs>
<linearGradient id="paint0_linear_6_9113" x1="1" y1="1" x2="50.1311" y2="-48.4986" gradientUnits="userSpaceOnUse">
<stop stop-color="#2680EB"/>
<stop offset="1" stop-color="#7FFFD4"/>
</linearGradient>
<linearGradient id="paint1_linear_6_9113" x1="92" y1="6" x2="53.3868" y2="46.9305" gradientUnits="userSpaceOnUse">
<stop stop-color="#63B49B"/>
<stop offset="1" stop-color="#A4EBD4"/>
</linearGradient>
</defs>
</svg>
