<svg width="174" height="47" viewBox="0 0 174 47" fill="none" xmlns="http://www.w3.org/2000/svg">
<rect x="0.5" y="0.5" width="173" height="46" rx="5.5" fill="url(#paint0_linear_1062_71479)"/>
<path opacity="0.9" d="M38.9059 16.8V18.208H33.9459V21.84H38.6979V23.248H33.9459V28H32.4579V16.8H38.9059ZM46.5839 24.24V20H47.9759V28H46.5839V26.848C46.0292 27.7547 45.1652 28.208 43.9919 28.208C43.0532 28.208 42.3012 27.9147 41.7359 27.328C41.1705 26.7307 40.8879 25.9253 40.8879 24.912V20H42.2799V24.832C42.2799 25.472 42.4559 25.9733 42.8079 26.336C43.1599 26.6987 43.6452 26.88 44.2639 26.88C44.9785 26.88 45.5439 26.6613 45.9599 26.224C46.3759 25.776 46.5839 25.1147 46.5839 24.24ZM54.5791 19.792C55.5178 19.792 56.2698 20.0907 56.8351 20.688C57.4004 21.2747 57.6831 22.0747 57.6831 23.088V28H56.2911V23.168C56.2911 22.528 56.1151 22.0267 55.7631 21.664C55.4111 21.3013 54.9258 21.12 54.3071 21.12C53.5924 21.12 53.0271 21.344 52.6111 21.792C52.1951 22.2293 51.9871 22.8853 51.9871 23.76V28H50.5951V20H51.9871V21.152C52.5418 20.2453 53.4058 19.792 54.5791 19.792ZM66.7504 21.376V16.8H68.1424V28H66.7504V26.624C66.0677 27.68 65.0597 28.208 63.7264 28.208C62.5957 28.208 61.641 27.8027 60.8624 26.992C60.073 26.1707 59.6784 25.1733 59.6784 24C59.6784 22.8373 60.073 21.8453 60.8624 21.024C61.6517 20.2027 62.6064 19.792 63.7264 19.792C65.0597 19.792 66.0677 20.32 66.7504 21.376ZM63.9024 26.864C64.713 26.864 65.3904 26.592 65.9344 26.048C66.4784 25.4827 66.7504 24.8 66.7504 24C66.7504 23.1893 66.4784 22.512 65.9344 21.968C65.3904 21.4133 64.713 21.136 63.9024 21.136C63.1024 21.136 62.4304 21.4133 61.8864 21.968C61.3424 22.512 61.0704 23.1893 61.0704 24C61.0704 24.8 61.3424 25.4827 61.8864 26.048C62.4304 26.592 63.1024 26.864 63.9024 26.864ZM75.3954 16.8H79.4594C80.4834 16.8 81.342 17.1467 82.0354 17.84C82.7287 18.5333 83.0754 19.3867 83.0754 20.4C83.0754 21.4133 82.7287 22.2667 82.0354 22.96C81.342 23.6533 80.4834 24 79.4594 24H76.8834V28H75.3954V16.8ZM76.8834 22.608H79.4594C80.0887 22.608 80.6007 22.4 80.9954 21.984C81.4007 21.5467 81.6034 21.0187 81.6034 20.4C81.6034 19.76 81.4007 19.232 80.9954 18.816C80.59 18.4 80.078 18.192 79.4594 18.192H76.8834V22.608ZM91.3315 26.992C90.5208 27.8027 89.5235 28.208 88.3395 28.208C87.1555 28.208 86.1581 27.8027 85.3475 26.992C84.5368 26.1813 84.1315 25.184 84.1315 24C84.1315 22.816 84.5368 21.8187 85.3475 21.008C86.1581 20.1973 87.1555 19.792 88.3395 19.792C89.5235 19.792 90.5208 20.1973 91.3315 21.008C92.1528 21.8293 92.5635 22.8267 92.5635 24C92.5635 25.1733 92.1528 26.1707 91.3315 26.992ZM88.3395 26.848C89.1395 26.848 89.8115 26.576 90.3555 26.032C90.8995 25.488 91.1715 24.8107 91.1715 24C91.1715 23.1893 90.8995 22.512 90.3555 21.968C89.8115 21.424 89.1395 21.152 88.3395 21.152C87.5501 21.152 86.8835 21.424 86.3395 21.968C85.7955 22.512 85.5235 23.1893 85.5235 24C85.5235 24.8107 85.7955 25.488 86.3395 26.032C86.8835 26.576 87.5501 26.848 88.3395 26.848ZM95.7326 22.16C95.7326 22.672 96.2606 23.072 97.3166 23.36C97.7113 23.4453 98.0419 23.536 98.3086 23.632C98.5859 23.7173 98.8846 23.8507 99.2046 24.032C99.5353 24.2133 99.7859 24.4533 99.9566 24.752C100.127 25.0507 100.213 25.4027 100.213 25.808C100.213 26.5333 99.9299 27.1147 99.3646 27.552C98.7993 27.9893 98.0846 28.208 97.2206 28.208C96.4526 28.208 95.7859 28.0427 95.2206 27.712C94.6659 27.3707 94.2713 26.912 94.0366 26.336L95.2366 25.648C95.3646 26.032 95.6046 26.336 95.9566 26.56C96.3086 26.784 96.7299 26.896 97.2206 26.896C97.7006 26.896 98.0846 26.8053 98.3726 26.624C98.6606 26.4427 98.8046 26.1707 98.8046 25.808C98.8046 25.264 98.2766 24.8693 97.2206 24.624C96.8686 24.528 96.6019 24.4533 96.4206 24.4C96.2393 24.3467 95.9886 24.2507 95.6686 24.112C95.3593 23.9733 95.1246 23.8293 94.9646 23.68C94.8046 23.52 94.6553 23.312 94.5166 23.056C94.3886 22.7893 94.3246 22.496 94.3246 22.176C94.3246 21.4827 94.5913 20.912 95.1246 20.464C95.6686 20.016 96.3459 19.792 97.1566 19.792C97.8073 19.792 98.3833 19.9413 98.8846 20.24C99.3966 20.528 99.7806 20.9333 100.037 21.456L98.8686 22.112C98.5806 21.4293 98.0099 21.088 97.1566 21.088C96.7513 21.088 96.4099 21.184 96.1326 21.376C95.8659 21.568 95.7326 21.8293 95.7326 22.16ZM102.987 18.544C102.72 18.544 102.496 18.4533 102.315 18.272C102.133 18.0907 102.043 17.872 102.043 17.616C102.043 17.36 102.133 17.1413 102.315 16.96C102.496 16.768 102.72 16.672 102.987 16.672C103.243 16.672 103.461 16.768 103.643 16.96C103.824 17.1413 103.915 17.36 103.915 17.616C103.915 17.872 103.824 18.0907 103.643 18.272C103.461 18.4533 103.243 18.544 102.987 18.544ZM103.675 28H102.283V20H103.675V28ZM110.65 20V21.344H108.522V25.68C108.522 26.0747 108.597 26.3573 108.746 26.528C108.906 26.688 109.146 26.7733 109.466 26.784C109.786 26.784 110.181 26.7733 110.65 26.752V28C109.424 28.16 108.528 28.0587 107.962 27.696C107.408 27.3333 107.13 26.6613 107.13 25.68V21.344H105.546V20H107.13V18.176L108.522 17.76V20H110.65ZM113.502 18.544C113.236 18.544 113.012 18.4533 112.83 18.272C112.649 18.0907 112.558 17.872 112.558 17.616C112.558 17.36 112.649 17.1413 112.83 16.96C113.012 16.768 113.236 16.672 113.502 16.672C113.758 16.672 113.977 16.768 114.158 16.96C114.34 17.1413 114.43 17.36 114.43 17.616C114.43 17.872 114.34 18.0907 114.158 18.272C113.977 18.4533 113.758 18.544 113.502 18.544ZM114.19 28H112.798V20H114.19V28ZM123.566 26.992C122.755 27.8027 121.758 28.208 120.574 28.208C119.39 28.208 118.393 27.8027 117.582 26.992C116.771 26.1813 116.366 25.184 116.366 24C116.366 22.816 116.771 21.8187 117.582 21.008C118.393 20.1973 119.39 19.792 120.574 19.792C121.758 19.792 122.755 20.1973 123.566 21.008C124.387 21.8293 124.798 22.8267 124.798 24C124.798 25.1733 124.387 26.1707 123.566 26.992ZM120.574 26.848C121.374 26.848 122.046 26.576 122.59 26.032C123.134 25.488 123.406 24.8107 123.406 24C123.406 23.1893 123.134 22.512 122.59 21.968C122.046 21.424 121.374 21.152 120.574 21.152C119.785 21.152 119.118 21.424 118.574 21.968C118.03 22.512 117.758 23.1893 117.758 24C117.758 24.8107 118.03 25.488 118.574 26.032C119.118 26.576 119.785 26.848 120.574 26.848ZM130.923 19.792C131.862 19.792 132.614 20.0907 133.179 20.688C133.744 21.2747 134.027 22.0747 134.027 23.088V28H132.635V23.168C132.635 22.528 132.459 22.0267 132.107 21.664C131.755 21.3013 131.27 21.12 130.651 21.12C129.936 21.12 129.371 21.344 128.955 21.792C128.539 22.2293 128.331 22.8853 128.331 23.76V28H126.939V20H128.331V21.152C128.886 20.2453 129.75 19.792 130.923 19.792ZM137.67 22.16C137.67 22.672 138.198 23.072 139.254 23.36C139.649 23.4453 139.979 23.536 140.246 23.632C140.523 23.7173 140.822 23.8507 141.142 24.032C141.473 24.2133 141.723 24.4533 141.894 24.752C142.065 25.0507 142.15 25.4027 142.15 25.808C142.15 26.5333 141.867 27.1147 141.302 27.552C140.737 27.9893 140.022 28.208 139.158 28.208C138.39 28.208 137.723 28.0427 137.158 27.712C136.603 27.3707 136.209 26.912 135.974 26.336L137.174 25.648C137.302 26.032 137.542 26.336 137.894 26.56C138.246 26.784 138.667 26.896 139.158 26.896C139.638 26.896 140.022 26.8053 140.31 26.624C140.598 26.4427 140.742 26.1707 140.742 25.808C140.742 25.264 140.214 24.8693 139.158 24.624C138.806 24.528 138.539 24.4533 138.358 24.4C138.177 24.3467 137.926 24.2507 137.606 24.112C137.297 23.9733 137.062 23.8293 136.902 23.68C136.742 23.52 136.593 23.312 136.454 23.056C136.326 22.7893 136.262 22.496 136.262 22.176C136.262 21.4827 136.529 20.912 137.062 20.464C137.606 20.016 138.283 19.792 139.094 19.792C139.745 19.792 140.321 19.9413 140.822 20.24C141.334 20.528 141.718 20.9333 141.974 21.456L140.806 22.112C140.518 21.4293 139.947 21.088 139.094 21.088C138.689 21.088 138.347 21.184 138.07 21.376C137.803 21.568 137.67 21.8293 137.67 22.16Z" fill="#C5D1DC"/>
<rect x="0.5" y="0.5" width="173" height="46" rx="5.5" stroke="url(#paint1_radial_1062_71479)" stroke-opacity="0.5"/>
<rect x="0.5" y="0.5" width="173" height="46" rx="5.5" stroke="url(#paint2_radial_1062_71479)"/>
<rect x="0.5" y="0.5" width="173" height="46" rx="5.5" stroke="url(#paint3_radial_1062_71479)"/>
<defs>
<linearGradient id="paint0_linear_1062_71479" x1="-8.37778" y1="3.79503" x2="31.335" y2="-73.3968" gradientUnits="userSpaceOnUse">
<stop stop-color="#363F4E" stop-opacity="0.5"/>
<stop offset="1" stop-color="#3F4A62"/>
</linearGradient>
<radialGradient id="paint1_radial_1062_71479" cx="0" cy="0" r="1" gradientUnits="userSpaceOnUse" gradientTransform="translate(87 23.5) rotate(-163.62) scale(115.709 48.7469)">
<stop stop-color="#050505"/>
<stop offset="1" stop-color="#525252" stop-opacity="0"/>
</radialGradient>
<radialGradient id="paint2_radial_1062_71479" cx="0" cy="0" r="1" gradientUnits="userSpaceOnUse" gradientTransform="translate(87 23.5) rotate(13.0708) scale(107.177 34.3088)">
<stop stop-color="#6D99DB"/>
<stop offset="1" stop-color="#6D99DB" stop-opacity="0"/>
</radialGradient>
<radialGradient id="paint3_radial_1062_71479" cx="0" cy="0" r="1" gradientUnits="userSpaceOnUse" gradientTransform="translate(87 23.5) rotate(165.359) scale(98.5521 36.0236)">
<stop stop-color="#587EB7"/>
<stop offset="1" stop-color="#587EB7" stop-opacity="0"/>
</radialGradient>
</defs>
</svg>
