<svg width="168" height="49" viewBox="0 0 168 49" fill="none" xmlns="http://www.w3.org/2000/svg">
<rect x="0.5" y="0.5" width="167" height="48" rx="6.5" fill="url(#paint0_linear_866_82742)"/>
<path opacity="0.9" d="M30.0169 17.4V18.588H24.1669V23.232H29.7469V24.42H24.1669V30H22.9069V17.4H30.0169ZM38.4265 25.716V21H39.6145V30H38.4265V28.596C37.7545 29.676 36.7465 30.216 35.4025 30.216C34.3225 30.216 33.4645 29.886 32.8285 29.226C32.1925 28.554 31.8745 27.654 31.8745 26.526V21H33.0625V26.526C33.0625 27.33 33.2725 27.954 33.6925 28.398C34.1245 28.842 34.7305 29.064 35.5105 29.064C36.4105 29.064 37.1185 28.782 37.6345 28.218C38.1625 27.654 38.4265 26.82 38.4265 25.716ZM46.4396 20.784C47.5196 20.784 48.3776 21.12 49.0136 21.792C49.6496 22.452 49.9676 23.346 49.9676 24.474V30H48.7796V24.474C48.7796 23.67 48.5636 23.046 48.1316 22.602C47.7116 22.158 47.1116 21.936 46.3316 21.936C45.4316 21.936 44.7176 22.218 44.1896 22.782C43.6736 23.346 43.4156 24.18 43.4156 25.284V30H42.2276V21H43.4156V22.404C44.0876 21.324 45.0956 20.784 46.4396 20.784ZM60.1047 22.764V17.4H61.2927V30H60.1047V28.236C59.2767 29.556 58.0647 30.216 56.4687 30.216C55.1847 30.216 54.0867 29.76 53.1747 28.848C52.2747 27.936 51.8247 26.82 51.8247 25.5C51.8247 24.18 52.2747 23.064 53.1747 22.152C54.0867 21.24 55.1847 20.784 56.4687 20.784C58.0647 20.784 59.2767 21.444 60.1047 22.764ZM54.0387 28.038C54.7227 28.722 55.5627 29.064 56.5587 29.064C57.5547 29.064 58.3947 28.722 59.0787 28.038C59.7627 27.33 60.1047 26.484 60.1047 25.5C60.1047 24.504 59.7627 23.664 59.0787 22.98C58.3947 22.284 57.5547 21.936 56.5587 21.936C55.5627 21.936 54.7227 22.284 54.0387 22.98C53.3547 23.664 53.0127 24.504 53.0127 25.5C53.0127 26.484 53.3547 27.33 54.0387 28.038ZM68.6881 17.4H73.1881C74.3161 17.4 75.2581 17.778 76.0141 18.534C76.7701 19.29 77.1481 20.232 77.1481 21.36C77.1481 22.488 76.7701 23.43 76.0141 24.186C75.2581 24.942 74.3161 25.32 73.1881 25.32H69.9481V30H68.6881V17.4ZM69.9481 24.132H73.1881C73.9681 24.132 74.6101 23.874 75.1141 23.358C75.6301 22.842 75.8881 22.176 75.8881 21.36C75.8881 20.556 75.6301 19.896 75.1141 19.38C74.6101 18.852 73.9681 18.588 73.1881 18.588H69.9481V24.132ZM86.0466 28.866C85.1226 29.766 84.0066 30.216 82.6986 30.216C81.3666 30.216 80.2446 29.766 79.3326 28.866C78.4206 27.954 77.9646 26.832 77.9646 25.5C77.9646 24.168 78.4206 23.052 79.3326 22.152C80.2446 21.24 81.3666 20.784 82.6986 20.784C84.0186 20.784 85.1346 21.24 86.0466 22.152C86.9706 23.052 87.4326 24.168 87.4326 25.5C87.4326 26.82 86.9706 27.942 86.0466 28.866ZM80.1786 28.038C80.8626 28.722 81.7026 29.064 82.6986 29.064C83.6946 29.064 84.5346 28.722 85.2186 28.038C85.9026 27.33 86.2446 26.484 86.2446 25.5C86.2446 24.504 85.9026 23.664 85.2186 22.98C84.5346 22.284 83.6946 21.936 82.6986 21.936C81.7026 21.936 80.8626 22.284 80.1786 22.98C79.4946 23.664 79.1526 24.504 79.1526 25.5C79.1526 26.484 79.4946 27.33 80.1786 28.038ZM90.2808 23.358C90.2808 24.054 90.8988 24.564 92.1348 24.888C92.4828 24.972 92.7108 25.032 92.8188 25.068C92.9268 25.092 93.1368 25.158 93.4488 25.266C93.7728 25.362 93.9948 25.446 94.1148 25.518C94.2468 25.59 94.4268 25.704 94.6548 25.86C94.8828 26.004 95.0448 26.154 95.1408 26.31C95.2368 26.454 95.3268 26.646 95.4108 26.886C95.4948 27.114 95.5368 27.36 95.5368 27.624C95.5368 28.392 95.2308 29.016 94.6188 29.496C94.0308 29.976 93.2508 30.216 92.2788 30.216C91.4388 30.216 90.7128 30.03 90.1008 29.658C89.4888 29.274 89.0568 28.77 88.8048 28.146L89.8128 27.552C89.9808 28.02 90.2808 28.392 90.7128 28.668C91.1568 28.932 91.6788 29.064 92.2788 29.064C92.8908 29.064 93.3888 28.944 93.7728 28.704C94.1568 28.464 94.3488 28.104 94.3488 27.624C94.3488 26.928 93.7308 26.418 92.4948 26.094C92.1468 26.01 91.9188 25.956 91.8108 25.932C91.7028 25.896 91.4868 25.83 91.1628 25.734C90.8508 25.626 90.6288 25.536 90.4968 25.464C90.3768 25.392 90.2028 25.284 89.9748 25.14C89.7468 24.984 89.5848 24.834 89.4888 24.69C89.3928 24.534 89.3028 24.342 89.2188 24.114C89.1348 23.874 89.0928 23.622 89.0928 23.358C89.0928 22.626 89.3808 22.014 89.9568 21.522C90.5568 21.03 91.2948 20.784 92.1708 20.784C92.8908 20.784 93.5268 20.946 94.0788 21.27C94.6428 21.594 95.0568 22.044 95.3208 22.62L94.3308 23.196C93.9948 22.356 93.2748 21.936 92.1708 21.936C91.6308 21.936 91.1808 22.062 90.8208 22.314C90.4608 22.566 90.2808 22.914 90.2808 23.358ZM98.9888 18.228C98.9888 18.468 98.9048 18.672 98.7368 18.84C98.5688 19.008 98.3648 19.092 98.1248 19.092C97.8848 19.092 97.6808 19.008 97.5128 18.84C97.3448 18.672 97.2608 18.468 97.2608 18.228C97.2608 17.988 97.3448 17.784 97.5128 17.616C97.6808 17.448 97.8848 17.364 98.1248 17.364C98.3648 17.364 98.5688 17.448 98.7368 17.616C98.9048 17.784 98.9888 17.988 98.9888 18.228ZM98.7188 30H97.5308V21H98.7188V30ZM106.11 21V22.152H103.518V27.606C103.518 28.098 103.614 28.452 103.806 28.668C103.998 28.872 104.286 28.98 104.67 28.992C105.054 28.992 105.534 28.98 106.11 28.956V30C104.826 30.192 103.872 30.102 103.248 29.73C102.636 29.346 102.33 28.638 102.33 27.606V22.152H100.44V21H102.33V18.84L103.518 18.48V21H106.11ZM109.648 18.228C109.648 18.468 109.564 18.672 109.396 18.84C109.228 19.008 109.024 19.092 108.784 19.092C108.544 19.092 108.34 19.008 108.172 18.84C108.004 18.672 107.92 18.468 107.92 18.228C107.92 17.988 108.004 17.784 108.172 17.616C108.34 17.448 108.544 17.364 108.784 17.364C109.024 17.364 109.228 17.448 109.396 17.616C109.564 17.784 109.648 17.988 109.648 18.228ZM109.378 30H108.19V21H109.378V30ZM119.541 28.866C118.617 29.766 117.501 30.216 116.193 30.216C114.861 30.216 113.739 29.766 112.827 28.866C111.915 27.954 111.459 26.832 111.459 25.5C111.459 24.168 111.915 23.052 112.827 22.152C113.739 21.24 114.861 20.784 116.193 20.784C117.513 20.784 118.629 21.24 119.541 22.152C120.465 23.052 120.927 24.168 120.927 25.5C120.927 26.82 120.465 27.942 119.541 28.866ZM113.673 28.038C114.357 28.722 115.197 29.064 116.193 29.064C117.189 29.064 118.029 28.722 118.713 28.038C119.397 27.33 119.739 26.484 119.739 25.5C119.739 24.504 119.397 23.664 118.713 22.98C118.029 22.284 117.189 21.936 116.193 21.936C115.197 21.936 114.357 22.284 113.673 22.98C112.989 23.664 112.647 24.504 112.647 25.5C112.647 26.484 112.989 27.33 113.673 28.038ZM127.227 20.784C128.307 20.784 129.165 21.12 129.801 21.792C130.437 22.452 130.755 23.346 130.755 24.474V30H129.567V24.474C129.567 23.67 129.351 23.046 128.919 22.602C128.499 22.158 127.899 21.936 127.119 21.936C126.219 21.936 125.505 22.218 124.977 22.782C124.461 23.346 124.203 24.18 124.203 25.284V30H123.015V21H124.203V22.404C124.875 21.324 125.883 20.784 127.227 20.784ZM134.088 23.358C134.088 24.054 134.706 24.564 135.942 24.888C136.29 24.972 136.518 25.032 136.626 25.068C136.734 25.092 136.944 25.158 137.256 25.266C137.58 25.362 137.802 25.446 137.922 25.518C138.054 25.59 138.234 25.704 138.462 25.86C138.69 26.004 138.852 26.154 138.948 26.31C139.044 26.454 139.134 26.646 139.218 26.886C139.302 27.114 139.344 27.36 139.344 27.624C139.344 28.392 139.038 29.016 138.426 29.496C137.838 29.976 137.058 30.216 136.086 30.216C135.246 30.216 134.52 30.03 133.908 29.658C133.296 29.274 132.864 28.77 132.612 28.146L133.62 27.552C133.788 28.02 134.088 28.392 134.52 28.668C134.964 28.932 135.486 29.064 136.086 29.064C136.698 29.064 137.196 28.944 137.58 28.704C137.964 28.464 138.156 28.104 138.156 27.624C138.156 26.928 137.538 26.418 136.302 26.094C135.954 26.01 135.726 25.956 135.618 25.932C135.51 25.896 135.294 25.83 134.97 25.734C134.658 25.626 134.436 25.536 134.304 25.464C134.184 25.392 134.01 25.284 133.782 25.14C133.554 24.984 133.392 24.834 133.296 24.69C133.2 24.534 133.11 24.342 133.026 24.114C132.942 23.874 132.9 23.622 132.9 23.358C132.9 22.626 133.188 22.014 133.764 21.522C134.364 21.03 135.102 20.784 135.978 20.784C136.698 20.784 137.334 20.946 137.886 21.27C138.45 21.594 138.864 22.044 139.128 22.62L138.138 23.196C137.802 22.356 137.082 21.936 135.978 21.936C135.438 21.936 134.988 22.062 134.628 22.314C134.268 22.566 134.088 22.914 134.088 23.358Z" fill="#5A6575"/>
<rect x="0.5" y="0.5" width="167" height="48" rx="6.5" stroke="url(#paint1_radial_866_82742)" stroke-opacity="0.5"/>
<rect x="0.5" y="0.5" width="167" height="48" rx="6.5" stroke="url(#paint2_radial_866_82742)"/>
<rect x="0.5" y="0.5" width="167" height="48" rx="6.5" stroke="url(#paint3_radial_866_82742)"/>
<defs>
<linearGradient id="paint0_linear_866_82742" x1="1" y1="1" x2="44.0747" y2="-71.7666" gradientUnits="userSpaceOnUse">
<stop stop-color="#1F232C"/>
<stop offset="1" stop-color="#282F3F"/>
</linearGradient>
<radialGradient id="paint1_radial_866_82742" cx="0" cy="0" r="1" gradientUnits="userSpaceOnUse" gradientTransform="translate(84 24.5) rotate(-162.875) scale(110.821 48.5567)">
<stop stop-color="#050505"/>
<stop offset="1" stop-color="#525252" stop-opacity="0"/>
</radialGradient>
<radialGradient id="paint2_radial_866_82742" cx="0" cy="0" r="1" gradientUnits="userSpaceOnUse" gradientTransform="translate(84 24.5) rotate(13.6776) scale(102.507 34.2226)">
<stop stop-color="#6D99DB"/>
<stop offset="1" stop-color="#6D99DB" stop-opacity="0"/>
</radialGradient>
<radialGradient id="paint3_radial_866_82742" cx="0" cy="0" r="1" gradientUnits="userSpaceOnUse" gradientTransform="translate(84 24.5) rotate(164.686) scale(94.3169 35.9106)">
<stop stop-color="#587EB7"/>
<stop offset="1" stop-color="#587EB7" stop-opacity="0"/>
</radialGradient>
</defs>
</svg>
