<svg width="101" height="49" viewBox="0 0 101 49" fill="none" xmlns="http://www.w3.org/2000/svg">
<rect x="1" y="1" width="99" height="47" rx="6" stroke="url(#paint0_linear_725_82549)"/>
<path d="M17.04 21V9.8H19.248V21H17.04ZM25.7733 12.776C26.6586 12.776 27.3786 13.0693 27.9333 13.656C28.5093 14.2533 28.7973 15.064 28.7973 16.088V21H26.7333V16.344C26.7333 15.8213 26.5893 15.416 26.3012 15.128C26.0239 14.84 25.6399 14.696 25.1493 14.696C24.6053 14.696 24.1733 14.8667 23.8533 15.208C23.5439 15.5387 23.3893 16.0293 23.3893 16.68V21H21.3252V13H23.3893V13.896C23.8799 13.1493 24.6746 12.776 25.7733 12.776ZM33.831 18.6L35.783 13H38.055L35.015 21H32.663L29.623 13H31.895L33.831 18.6ZM46.6137 17.848H40.5817C40.8484 18.8507 41.6004 19.352 42.8377 19.352C43.6271 19.352 44.2244 19.0853 44.6297 18.552L46.2937 19.512C45.5044 20.6533 44.3417 21.224 42.8057 21.224C41.4831 21.224 40.4217 20.824 39.6217 20.024C38.8217 19.224 38.4217 18.216 38.4217 17C38.4217 15.8053 38.8164 14.8027 39.6057 13.992C40.3844 13.1813 41.3977 12.776 42.6457 12.776C43.8297 12.776 44.7951 13.1813 45.5417 13.992C46.3097 14.8027 46.6937 15.8053 46.6937 17C46.6937 17.224 46.6671 17.5067 46.6137 17.848ZM40.5497 16.248H44.6297C44.5124 15.7253 44.2724 15.3253 43.9097 15.048C43.5577 14.7707 43.1364 14.632 42.6457 14.632C42.0911 14.632 41.6324 14.776 41.2697 15.064C40.9071 15.3413 40.6671 15.736 40.5497 16.248ZM49.8261 15.272C49.8261 15.6133 50.3115 15.9067 51.2821 16.152C51.6235 16.2267 51.9328 16.3173 52.2101 16.424C52.4875 16.52 52.7648 16.664 53.0421 16.856C53.3301 17.0373 53.5541 17.2827 53.7141 17.592C53.8741 17.9013 53.9541 18.2587 53.9541 18.664C53.9541 19.4853 53.6448 20.12 53.0261 20.568C52.4075 21.0053 51.6448 21.224 50.7381 21.224C49.0955 21.224 47.9755 20.5893 47.3781 19.32L49.1701 18.312C49.4155 19.0053 49.9381 19.352 50.7381 19.352C51.4741 19.352 51.8421 19.1227 51.8421 18.664C51.8421 18.3227 51.3568 18.0293 50.3861 17.784C50.0235 17.688 49.7141 17.592 49.4581 17.496C49.2021 17.4 48.9248 17.2613 48.6261 17.08C48.3275 16.888 48.0981 16.648 47.9381 16.36C47.7888 16.0613 47.7141 15.7147 47.7141 15.32C47.7141 14.5307 48.0021 13.912 48.5781 13.464C49.1648 13.0053 49.8901 12.776 50.7541 12.776C51.4048 12.776 51.9968 12.9253 52.5301 13.224C53.0635 13.512 53.4848 13.928 53.7941 14.472L52.0341 15.432C51.7781 14.888 51.3515 14.616 50.7541 14.616C50.4875 14.616 50.2635 14.68 50.0821 14.808C49.9115 14.9253 49.8261 15.08 49.8261 15.272ZM59.7231 13V14.984H57.9151V18.312C57.9151 18.5893 57.9845 18.792 58.1231 18.92C58.2618 19.048 58.4645 19.1227 58.7311 19.144C58.9978 19.1547 59.3285 19.1493 59.7231 19.128V21C58.3258 21.16 57.3285 21.032 56.7311 20.616C56.1445 20.1893 55.8511 19.4213 55.8511 18.312V14.984H54.4591V13H55.8511V11.384L57.9151 10.76V13H59.7231ZM62.3024 12.04C61.961 12.04 61.6624 11.9173 61.4064 11.672C61.161 11.416 61.0384 11.1173 61.0384 10.776C61.0384 10.4347 61.161 10.136 61.4064 9.88C61.6624 9.624 61.961 9.496 62.3024 9.496C62.6544 9.496 62.953 9.624 63.1984 9.88C63.4544 10.136 63.5824 10.4347 63.5824 10.776C63.5824 11.1173 63.4544 11.416 63.1984 11.672C62.953 11.9173 62.6544 12.04 62.3024 12.04ZM63.3424 21H61.2784V13H63.3424V21ZM69.7795 12.776C70.6648 12.776 71.3848 13.0693 71.9395 13.656C72.5155 14.2533 72.8035 15.064 72.8035 16.088V21H70.7395V16.344C70.7395 15.8213 70.5955 15.416 70.3075 15.128C70.0302 14.84 69.6462 14.696 69.1555 14.696C68.6115 14.696 68.1795 14.8667 67.8595 15.208C67.5502 15.5387 67.3955 16.0293 67.3955 16.68V21H65.3315V13H67.3955V13.896C67.8862 13.1493 68.6808 12.776 69.7795 12.776ZM80.7939 13.992V13H82.8099V20.616C82.8099 21.8427 82.3992 22.7867 81.5779 23.448C80.7672 24.0987 79.7859 24.424 78.6339 24.424C76.8205 24.424 75.5565 23.7733 74.8419 22.472L76.6019 21.464C76.9965 22.2107 77.6952 22.584 78.6979 22.584C79.3485 22.584 79.8605 22.4133 80.2339 22.072C80.6072 21.7307 80.7939 21.2453 80.7939 20.616V19.752C80.1859 20.5627 79.3325 20.968 78.2339 20.968C77.1032 20.968 76.1539 20.5733 75.3859 19.784C74.6285 18.9733 74.2499 18.0027 74.2499 16.872C74.2499 15.7413 74.6339 14.776 75.4019 13.976C76.1699 13.176 77.1139 12.776 78.2339 12.776C79.3325 12.776 80.1859 13.1813 80.7939 13.992ZM80.1539 18.456C80.5805 18.04 80.7939 17.512 80.7939 16.872C80.7939 16.232 80.5805 15.7147 80.1539 15.32C79.7379 14.904 79.2045 14.696 78.5539 14.696C77.9139 14.696 77.3752 14.904 76.9379 15.32C76.5219 15.7147 76.3139 16.232 76.3139 16.872C76.3139 17.512 76.5219 18.04 76.9379 18.456C77.3645 18.8613 77.9032 19.064 78.5539 19.064C79.2045 19.064 79.7379 18.8613 80.1539 18.456ZM21.392 28.776C22.2773 28.776 22.9973 29.0693 23.552 29.656C24.128 30.2533 24.416 31.064 24.416 32.088V37H22.352V32.344C22.352 31.8213 22.208 31.416 21.92 31.128C21.6427 30.84 21.2587 30.696 20.768 30.696C20.224 30.696 19.792 30.8667 19.472 31.208C19.1627 31.5387 19.008 32.0293 19.008 32.68V37H16.944V25.8H19.008V29.896C19.4987 29.1493 20.2933 28.776 21.392 28.776ZM27.3024 28.04C26.961 28.04 26.6624 27.9173 26.4064 27.672C26.161 27.416 26.0384 27.1173 26.0384 26.776C26.0384 26.4347 26.161 26.136 26.4064 25.88C26.6624 25.624 26.961 25.496 27.3024 25.496C27.6544 25.496 27.953 25.624 28.1984 25.88C28.4544 26.136 28.5824 26.4347 28.5824 26.776C28.5824 27.1173 28.4544 27.416 28.1984 27.672C27.953 27.9173 27.6544 28.04 27.3024 28.04ZM28.3424 37H26.2784V29H28.3424V37ZM32.173 31.272C32.173 31.6133 32.6583 31.9067 33.629 32.152C33.9703 32.2267 34.2797 32.3173 34.557 32.424C34.8343 32.52 35.1117 32.664 35.389 32.856C35.677 33.0373 35.901 33.2827 36.061 33.592C36.221 33.9013 36.301 34.2587 36.301 34.664C36.301 35.4853 35.9917 36.12 35.373 36.568C34.7543 37.0053 33.9917 37.224 33.085 37.224C31.4423 37.224 30.3223 36.5893 29.725 35.32L31.517 34.312C31.7623 35.0053 32.285 35.352 33.085 35.352C33.821 35.352 34.189 35.1227 34.189 34.664C34.189 34.3227 33.7037 34.0293 32.733 33.784C32.3703 33.688 32.061 33.592 31.805 33.496C31.549 33.4 31.2717 33.2613 30.973 33.08C30.6743 32.888 30.445 32.648 30.285 32.36C30.1357 32.0613 30.061 31.7147 30.061 31.32C30.061 30.5307 30.349 29.912 30.925 29.464C31.5117 29.0053 32.237 28.776 33.101 28.776C33.7517 28.776 34.3437 28.9253 34.877 29.224C35.4103 29.512 35.8317 29.928 36.141 30.472L34.381 31.432C34.125 30.888 33.6983 30.616 33.101 30.616C32.8343 30.616 32.6103 30.68 32.429 30.808C32.2583 30.9253 32.173 31.08 32.173 31.272ZM42.07 29V30.984H40.262V34.312C40.262 34.5893 40.3313 34.792 40.47 34.92C40.6087 35.048 40.8113 35.1227 41.078 35.144C41.3447 35.1547 41.6753 35.1493 42.07 35.128V37C40.6727 37.16 39.6753 37.032 39.078 36.616C38.4913 36.1893 38.198 35.4213 38.198 34.312V30.984H36.806V29H38.198V27.384L40.262 26.76V29H42.07ZM50.1912 36.008C49.3806 36.8187 48.3779 37.224 47.1832 37.224C45.9886 37.224 44.9859 36.8187 44.1752 36.008C43.3646 35.1973 42.9592 34.1947 42.9592 33C42.9592 31.816 43.3646 30.8187 44.1752 30.008C44.9966 29.1867 45.9992 28.776 47.1832 28.776C48.3672 28.776 49.3699 29.1867 50.1912 30.008C51.0126 30.8293 51.4233 31.8267 51.4233 33C51.4233 34.184 51.0126 35.1867 50.1912 36.008ZM45.6312 34.584C46.0472 35 46.5646 35.208 47.1832 35.208C47.8019 35.208 48.3192 35 48.7352 34.584C49.1513 34.168 49.3593 33.64 49.3593 33C49.3593 32.36 49.1513 31.832 48.7352 31.416C48.3192 31 47.8019 30.792 47.1832 30.792C46.5646 30.792 46.0472 31 45.6312 31.416C45.2259 31.8427 45.0232 32.3707 45.0232 33C45.0232 33.6293 45.2259 34.1573 45.6312 34.584ZM55.0393 29V30.376C55.2206 29.8747 55.5299 29.496 55.9673 29.24C56.4046 28.9733 56.9059 28.84 57.4713 28.84V31.144C56.8419 31.0587 56.2766 31.1867 55.7753 31.528C55.2846 31.8587 55.0393 32.408 55.0393 33.176V37H52.9753V29H55.0393ZM62.3902 34.376L64.1662 29H66.3742L63.4622 37C63.0462 38.152 62.4916 38.984 61.7982 39.496C61.1156 40.0187 60.2622 40.2533 59.2382 40.2V38.28C59.7822 38.2907 60.2196 38.1733 60.5502 37.928C60.8809 37.6827 61.1422 37.288 61.3342 36.744L58.0542 29H60.3102L62.3902 34.376Z" fill="url(#paint1_linear_725_82549)"/>
<defs>
<linearGradient id="paint0_linear_725_82549" x1="1" y1="1" x2="50.1311" y2="-48.4986" gradientUnits="userSpaceOnUse">
<stop stop-color="#2680EB"/>
<stop offset="1" stop-color="#7FFFD4"/>
</linearGradient>
<linearGradient id="paint1_linear_725_82549" x1="89" y1="8" x2="50.3862" y2="44.4387" gradientUnits="userSpaceOnUse">
<stop stop-color="#63B49B"/>
<stop offset="1" stop-color="#A4EBD4"/>
</linearGradient>
</defs>
</svg>
