<svg width="168" height="49" viewBox="0 0 168 49" fill="none" xmlns="http://www.w3.org/2000/svg">
<rect x="0.5" y="0.5" width="167" height="48" rx="6.5" fill="url(#paint0_linear_866_83037)"/>
<path opacity="0.9" d="M15.8837 30V17.4H17.1437V30H15.8837ZM24.1641 20.784C25.2441 20.784 26.1021 21.12 26.7381 21.792C27.3741 22.452 27.6921 23.346 27.6921 24.474V30H26.5041V24.474C26.5041 23.67 26.2881 23.046 25.8561 22.602C25.4361 22.158 24.8361 21.936 24.0561 21.936C23.1561 21.936 22.4421 22.218 21.9141 22.782C21.3981 23.346 21.1401 24.18 21.1401 25.284V30H19.9521V21H21.1401V22.404C21.8121 21.324 22.8201 20.784 24.1641 20.784ZM33.3313 28.758L36.4813 21H37.7413L34.0513 30H32.6113L28.9213 21H30.1813L33.3313 28.758ZM43.0836 20.784C44.4276 20.784 45.5016 21.258 46.3056 22.206C47.1336 23.142 47.5476 24.252 47.5476 25.536C47.5476 25.596 47.5356 25.782 47.5116 26.094H39.6096C39.7296 26.994 40.1136 27.714 40.7616 28.254C41.4096 28.794 42.2196 29.064 43.1916 29.064C44.5596 29.064 45.5256 28.554 46.0896 27.534L47.1336 28.146C46.7376 28.794 46.1916 29.304 45.4956 29.676C44.8116 30.036 44.0376 30.216 43.1736 30.216C41.7576 30.216 40.6056 29.772 39.7176 28.884C38.8296 27.996 38.3856 26.868 38.3856 25.5C38.3856 24.144 38.8236 23.022 39.6996 22.134C40.5756 21.234 41.7036 20.784 43.0836 20.784ZM43.0836 21.936C42.1476 21.936 41.3616 22.212 40.7256 22.764C40.1016 23.316 39.7296 24.042 39.6096 24.942H46.3236C46.1916 23.982 45.8256 23.244 45.2256 22.728C44.6016 22.2 43.8876 21.936 43.0836 21.936ZM50.1217 23.358C50.1217 24.054 50.7397 24.564 51.9757 24.888C52.3237 24.972 52.5517 25.032 52.6597 25.068C52.7677 25.092 52.9777 25.158 53.2897 25.266C53.6137 25.362 53.8357 25.446 53.9557 25.518C54.0877 25.59 54.2677 25.704 54.4957 25.86C54.7237 26.004 54.8857 26.154 54.9817 26.31C55.0777 26.454 55.1677 26.646 55.2517 26.886C55.3357 27.114 55.3777 27.36 55.3777 27.624C55.3777 28.392 55.0717 29.016 54.4597 29.496C53.8717 29.976 53.0917 30.216 52.1197 30.216C51.2797 30.216 50.5537 30.03 49.9417 29.658C49.3297 29.274 48.8977 28.77 48.6457 28.146L49.6537 27.552C49.8217 28.02 50.1217 28.392 50.5537 28.668C50.9977 28.932 51.5197 29.064 52.1197 29.064C52.7317 29.064 53.2297 28.944 53.6137 28.704C53.9977 28.464 54.1897 28.104 54.1897 27.624C54.1897 26.928 53.5717 26.418 52.3357 26.094C51.9877 26.01 51.7597 25.956 51.6517 25.932C51.5437 25.896 51.3277 25.83 51.0037 25.734C50.6917 25.626 50.4697 25.536 50.3377 25.464C50.2177 25.392 50.0437 25.284 49.8157 25.14C49.5877 24.984 49.4257 24.834 49.3297 24.69C49.2337 24.534 49.1437 24.342 49.0597 24.114C48.9757 23.874 48.9337 23.622 48.9337 23.358C48.9337 22.626 49.2217 22.014 49.7977 21.522C50.3977 21.03 51.1357 20.784 52.0117 20.784C52.7317 20.784 53.3677 20.946 53.9197 21.27C54.4837 21.594 54.8977 22.044 55.1617 22.62L54.1717 23.196C53.8357 22.356 53.1157 21.936 52.0117 21.936C51.4717 21.936 51.0217 22.062 50.6617 22.314C50.3017 22.566 50.1217 22.914 50.1217 23.358ZM61.878 21V22.152H59.286V27.606C59.286 28.098 59.382 28.452 59.574 28.668C59.766 28.872 60.054 28.98 60.438 28.992C60.822 28.992 61.302 28.98 61.878 28.956V30C60.594 30.192 59.64 30.102 59.016 29.73C58.404 29.346 58.098 28.638 58.098 27.606V22.152H56.208V21H58.098V18.84L59.286 18.48V21H61.878ZM65.416 18.228C65.416 18.468 65.332 18.672 65.164 18.84C64.996 19.008 64.792 19.092 64.552 19.092C64.312 19.092 64.108 19.008 63.94 18.84C63.772 18.672 63.688 18.468 63.688 18.228C63.688 17.988 63.772 17.784 63.94 17.616C64.108 17.448 64.312 17.364 64.552 17.364C64.792 17.364 64.996 17.448 65.164 17.616C65.332 17.784 65.416 17.988 65.416 18.228ZM65.146 30H63.958V21H65.146V30ZM71.979 20.784C73.059 20.784 73.917 21.12 74.553 21.792C75.189 22.452 75.507 23.346 75.507 24.474V30H74.319V24.474C74.319 23.67 74.103 23.046 73.671 22.602C73.251 22.158 72.651 21.936 71.871 21.936C70.971 21.936 70.257 22.218 69.729 22.782C69.213 23.346 68.955 24.18 68.955 25.284V30H67.767V21H68.955V22.404C69.627 21.324 70.635 20.784 71.979 20.784ZM85.6441 22.764V21H86.8321V29.64C86.8321 30.936 86.3881 31.956 85.5001 32.7C84.6121 33.444 83.5501 33.816 82.3141 33.816C80.2141 33.816 78.7921 33.084 78.0481 31.62L79.0921 31.026C79.6321 32.118 80.7061 32.664 82.3141 32.664C83.3461 32.664 84.1561 32.394 84.7441 31.854C85.3441 31.314 85.6441 30.576 85.6441 29.64V28.236C84.8161 29.556 83.6041 30.216 82.0081 30.216C80.7241 30.216 79.6261 29.76 78.7141 28.848C77.8141 27.936 77.3641 26.82 77.3641 25.5C77.3641 24.18 77.8141 23.064 78.7141 22.152C79.6261 21.24 80.7241 20.784 82.0081 20.784C83.6041 20.784 84.8161 21.444 85.6441 22.764ZM79.5781 28.038C80.2621 28.722 81.1021 29.064 82.0981 29.064C83.0941 29.064 83.9341 28.722 84.6181 28.038C85.3021 27.33 85.6441 26.484 85.6441 25.5C85.6441 24.504 85.3021 23.664 84.6181 22.98C83.9341 22.284 83.0941 21.936 82.0981 21.936C81.1021 21.936 80.2621 22.284 79.5781 22.98C78.8941 23.664 78.5521 24.504 78.5521 25.5C78.5521 26.484 78.8941 27.33 79.5781 28.038ZM98.2594 20.784C99.3394 20.784 100.197 21.12 100.833 21.792C101.469 22.452 101.787 23.346 101.787 24.474V30H100.599V24.474C100.599 23.67 100.383 23.046 99.9514 22.602C99.5314 22.158 98.9314 21.936 98.1514 21.936C97.2514 21.936 96.5374 22.218 96.0094 22.782C95.4934 23.346 95.2354 24.18 95.2354 25.284V30H94.0474V17.4H95.2354V22.404C95.9074 21.324 96.9154 20.784 98.2594 20.784ZM105.643 18.228C105.643 18.468 105.559 18.672 105.391 18.84C105.223 19.008 105.019 19.092 104.779 19.092C104.539 19.092 104.335 19.008 104.167 18.84C103.999 18.672 103.915 18.468 103.915 18.228C103.915 17.988 103.999 17.784 104.167 17.616C104.335 17.448 104.539 17.364 104.779 17.364C105.019 17.364 105.223 17.448 105.391 17.616C105.559 17.784 105.643 17.988 105.643 18.228ZM105.373 30H104.185V21H105.373V30ZM108.93 23.358C108.93 24.054 109.548 24.564 110.784 24.888C111.132 24.972 111.36 25.032 111.468 25.068C111.576 25.092 111.786 25.158 112.098 25.266C112.422 25.362 112.644 25.446 112.764 25.518C112.896 25.59 113.076 25.704 113.304 25.86C113.532 26.004 113.694 26.154 113.79 26.31C113.886 26.454 113.976 26.646 114.06 26.886C114.144 27.114 114.186 27.36 114.186 27.624C114.186 28.392 113.88 29.016 113.268 29.496C112.68 29.976 111.9 30.216 110.928 30.216C110.088 30.216 109.362 30.03 108.75 29.658C108.138 29.274 107.706 28.77 107.454 28.146L108.462 27.552C108.63 28.02 108.93 28.392 109.362 28.668C109.806 28.932 110.328 29.064 110.928 29.064C111.54 29.064 112.038 28.944 112.422 28.704C112.806 28.464 112.998 28.104 112.998 27.624C112.998 26.928 112.38 26.418 111.144 26.094C110.796 26.01 110.568 25.956 110.46 25.932C110.352 25.896 110.136 25.83 109.812 25.734C109.5 25.626 109.278 25.536 109.146 25.464C109.026 25.392 108.852 25.284 108.624 25.14C108.396 24.984 108.234 24.834 108.138 24.69C108.042 24.534 107.952 24.342 107.868 24.114C107.784 23.874 107.742 23.622 107.742 23.358C107.742 22.626 108.03 22.014 108.606 21.522C109.206 21.03 109.944 20.784 110.82 20.784C111.54 20.784 112.176 20.946 112.728 21.27C113.292 21.594 113.706 22.044 113.97 22.62L112.98 23.196C112.644 22.356 111.924 21.936 110.82 21.936C110.28 21.936 109.83 22.062 109.47 22.314C109.11 22.566 108.93 22.914 108.93 23.358ZM120.686 21V22.152H118.094V27.606C118.094 28.098 118.19 28.452 118.382 28.668C118.574 28.872 118.862 28.98 119.246 28.992C119.63 28.992 120.11 28.98 120.686 28.956V30C119.402 30.192 118.448 30.102 117.824 29.73C117.212 29.346 116.906 28.638 116.906 27.606V22.152H115.016V21H116.906V18.84L118.094 18.48V21H120.686ZM129.763 28.866C128.839 29.766 127.723 30.216 126.415 30.216C125.083 30.216 123.961 29.766 123.049 28.866C122.137 27.954 121.681 26.832 121.681 25.5C121.681 24.168 122.137 23.052 123.049 22.152C123.961 21.24 125.083 20.784 126.415 20.784C127.735 20.784 128.851 21.24 129.763 22.152C130.687 23.052 131.149 24.168 131.149 25.5C131.149 26.82 130.687 27.942 129.763 28.866ZM123.895 28.038C124.579 28.722 125.419 29.064 126.415 29.064C127.411 29.064 128.251 28.722 128.935 28.038C129.619 27.33 129.961 26.484 129.961 25.5C129.961 24.504 129.619 23.664 128.935 22.98C128.251 22.284 127.411 21.936 126.415 21.936C125.419 21.936 124.579 22.284 123.895 22.98C123.211 23.664 122.869 24.504 122.869 25.5C122.869 26.484 123.211 27.33 123.895 28.038ZM134.425 21V22.494C134.977 21.402 135.925 20.856 137.269 20.856V22.008C136.405 22.008 135.715 22.26 135.199 22.764C134.683 23.256 134.425 24 134.425 24.996V30H133.237V21H134.425ZM142.737 28.542L145.653 21H146.913L143.061 30.828C142.701 31.74 142.197 32.442 141.549 32.934C140.913 33.438 140.205 33.66 139.425 33.6V32.484C140.505 32.616 141.327 31.992 141.891 30.612L142.125 30.054L138.093 21H139.353L142.737 28.542Z" fill="#5A6575"/>
<rect x="0.5" y="0.5" width="167" height="48" rx="6.5" stroke="url(#paint1_radial_866_83037)" stroke-opacity="0.5"/>
<rect x="0.5" y="0.5" width="167" height="48" rx="6.5" stroke="url(#paint2_radial_866_83037)"/>
<rect x="0.5" y="0.5" width="167" height="48" rx="6.5" stroke="url(#paint3_radial_866_83037)"/>
<defs>
<linearGradient id="paint0_linear_866_83037" x1="1" y1="1" x2="44.0747" y2="-71.7666" gradientUnits="userSpaceOnUse">
<stop stop-color="#1F232C"/>
<stop offset="1" stop-color="#282F3F"/>
</linearGradient>
<radialGradient id="paint1_radial_866_83037" cx="0" cy="0" r="1" gradientUnits="userSpaceOnUse" gradientTransform="translate(84 24.5) rotate(-162.875) scale(110.821 48.5567)">
<stop stop-color="#050505"/>
<stop offset="1" stop-color="#525252" stop-opacity="0"/>
</radialGradient>
<radialGradient id="paint2_radial_866_83037" cx="0" cy="0" r="1" gradientUnits="userSpaceOnUse" gradientTransform="translate(84 24.5) rotate(13.6776) scale(102.507 34.2226)">
<stop stop-color="#6D99DB"/>
<stop offset="1" stop-color="#6D99DB" stop-opacity="0"/>
</radialGradient>
<radialGradient id="paint3_radial_866_83037" cx="0" cy="0" r="1" gradientUnits="userSpaceOnUse" gradientTransform="translate(84 24.5) rotate(164.686) scale(94.3169 35.9106)">
<stop stop-color="#587EB7"/>
<stop offset="1" stop-color="#587EB7" stop-opacity="0"/>
</radialGradient>
</defs>
</svg>
