<svg width="136" height="56" viewBox="0 0 136 56" fill="none" xmlns="http://www.w3.org/2000/svg">
<rect x="0.5" y="0.5" width="135" height="55" rx="6.5" fill="url(#paint0_linear_800_79730)" fill-opacity="0.1"/>
<path opacity="0.9" d="M30.5181 31V18.4H31.7781V31H30.5181ZM39.1986 21.784C40.2786 21.784 41.1366 22.12 41.7726 22.792C42.4086 23.452 42.7266 24.346 42.7266 25.474V31H41.5386V25.474C41.5386 24.67 41.3226 24.046 40.8906 23.602C40.4706 23.158 39.8706 22.936 39.0906 22.936C38.1906 22.936 37.4766 23.218 36.9486 23.782C36.4326 24.346 36.1746 25.18 36.1746 26.284V31H34.9866V22H36.1746V23.404C36.8466 22.324 37.8546 21.784 39.1986 21.784ZM48.7658 29.758L51.9158 22H53.1758L49.4858 31H48.0458L44.3558 22H45.6158L48.7658 29.758ZM58.918 21.784C60.262 21.784 61.336 22.258 62.14 23.206C62.968 24.142 63.382 25.252 63.382 26.536C63.382 26.596 63.37 26.782 63.346 27.094H55.444C55.564 27.994 55.948 28.714 56.596 29.254C57.244 29.794 58.054 30.064 59.026 30.064C60.394 30.064 61.36 29.554 61.924 28.534L62.968 29.146C62.572 29.794 62.026 30.304 61.33 30.676C60.646 31.036 59.872 31.216 59.008 31.216C57.592 31.216 56.44 30.772 55.552 29.884C54.664 28.996 54.22 27.868 54.22 26.5C54.22 25.144 54.658 24.022 55.534 23.134C56.41 22.234 57.538 21.784 58.918 21.784ZM58.918 22.936C57.982 22.936 57.196 23.212 56.56 23.764C55.936 24.316 55.564 25.042 55.444 25.942H62.158C62.026 24.982 61.66 24.244 61.06 23.728C60.436 23.2 59.722 22.936 58.918 22.936ZM66.3562 24.358C66.3562 25.054 66.9742 25.564 68.2102 25.888C68.5582 25.972 68.7862 26.032 68.8942 26.068C69.0022 26.092 69.2122 26.158 69.5242 26.266C69.8482 26.362 70.0702 26.446 70.1902 26.518C70.3222 26.59 70.5022 26.704 70.7302 26.86C70.9582 27.004 71.1202 27.154 71.2162 27.31C71.3122 27.454 71.4022 27.646 71.4862 27.886C71.5702 28.114 71.6122 28.36 71.6122 28.624C71.6122 29.392 71.3062 30.016 70.6942 30.496C70.1062 30.976 69.3262 31.216 68.3542 31.216C67.5142 31.216 66.7882 31.03 66.1762 30.658C65.5642 30.274 65.1322 29.77 64.8802 29.146L65.8882 28.552C66.0562 29.02 66.3562 29.392 66.7882 29.668C67.2322 29.932 67.7542 30.064 68.3542 30.064C68.9662 30.064 69.4642 29.944 69.8482 29.704C70.2322 29.464 70.4242 29.104 70.4242 28.624C70.4242 27.928 69.8062 27.418 68.5702 27.094C68.2222 27.01 67.9942 26.956 67.8862 26.932C67.7782 26.896 67.5622 26.83 67.2382 26.734C66.9262 26.626 66.7042 26.536 66.5722 26.464C66.4522 26.392 66.2782 26.284 66.0502 26.14C65.8222 25.984 65.6602 25.834 65.5642 25.69C65.4682 25.534 65.3782 25.342 65.2942 25.114C65.2102 24.874 65.1682 24.622 65.1682 24.358C65.1682 23.626 65.4562 23.014 66.0322 22.522C66.6322 22.03 67.3702 21.784 68.2462 21.784C68.9662 21.784 69.6022 21.946 70.1542 22.27C70.7182 22.594 71.1322 23.044 71.3962 23.62L70.4062 24.196C70.0702 23.356 69.3502 22.936 68.2462 22.936C67.7062 22.936 67.2562 23.062 66.8962 23.314C66.5362 23.566 66.3562 23.914 66.3562 24.358ZM78.5124 22V23.152H75.9204V28.606C75.9204 29.098 76.0164 29.452 76.2084 29.668C76.4004 29.872 76.6884 29.98 77.0724 29.992C77.4564 29.992 77.9364 29.98 78.5124 29.956V31C77.2284 31.192 76.2744 31.102 75.6504 30.73C75.0384 30.346 74.7324 29.638 74.7324 28.606V23.152H72.8424V22H74.7324V19.84L75.9204 19.48V22H78.5124ZM82.4504 19.228C82.4504 19.468 82.3664 19.672 82.1984 19.84C82.0304 20.008 81.8264 20.092 81.5864 20.092C81.3464 20.092 81.1424 20.008 80.9744 19.84C80.8064 19.672 80.7224 19.468 80.7224 19.228C80.7224 18.988 80.8064 18.784 80.9744 18.616C81.1424 18.448 81.3464 18.364 81.5864 18.364C81.8264 18.364 82.0304 18.448 82.1984 18.616C82.3664 18.784 82.4504 18.988 82.4504 19.228ZM82.1804 31H80.9924V22H82.1804V31ZM89.4134 21.784C90.4934 21.784 91.3514 22.12 91.9874 22.792C92.6234 23.452 92.9414 24.346 92.9414 25.474V31H91.7534V25.474C91.7534 24.67 91.5374 24.046 91.1054 23.602C90.6854 23.158 90.0854 22.936 89.3054 22.936C88.4054 22.936 87.6914 23.218 87.1634 23.782C86.6474 24.346 86.3894 25.18 86.3894 26.284V31H85.2014V22H86.3894V23.404C87.0614 22.324 88.0694 21.784 89.4134 21.784ZM103.479 23.764V22H104.667V30.64C104.667 31.936 104.223 32.956 103.335 33.7C102.447 34.444 101.385 34.816 100.149 34.816C98.0485 34.816 96.6265 34.084 95.8825 32.62L96.9265 32.026C97.4665 33.118 98.5405 33.664 100.149 33.664C101.181 33.664 101.991 33.394 102.579 32.854C103.179 32.314 103.479 31.576 103.479 30.64V29.236C102.651 30.556 101.439 31.216 99.8425 31.216C98.5585 31.216 97.4605 30.76 96.5485 29.848C95.6485 28.936 95.1985 27.82 95.1985 26.5C95.1985 25.18 95.6485 24.064 96.5485 23.152C97.4605 22.24 98.5585 21.784 99.8425 21.784C101.439 21.784 102.651 22.444 103.479 23.764ZM97.4125 29.038C98.0965 29.722 98.9365 30.064 99.9325 30.064C100.929 30.064 101.769 29.722 102.453 29.038C103.137 28.33 103.479 27.484 103.479 26.5C103.479 25.504 103.137 24.664 102.453 23.98C101.769 23.284 100.929 22.936 99.9325 22.936C98.9365 22.936 98.0965 23.284 97.4125 23.98C96.7285 24.664 96.3865 25.504 96.3865 26.5C96.3865 27.484 96.7285 28.33 97.4125 29.038Z" fill="#C5D1DC"/>
<rect x="0.5" y="0.5" width="135" height="55" rx="6.5" stroke="url(#paint1_radial_800_79730)" stroke-opacity="0.5"/>
<rect x="0.5" y="0.5" width="135" height="55" rx="6.5" stroke="url(#paint2_radial_800_79730)"/>
<rect x="0.5" y="0.5" width="135" height="55" rx="6.5" stroke="url(#paint3_radial_800_79730)"/>
<defs>
<linearGradient id="paint0_linear_800_79730" x1="208.611" y1="-48.5" x2="-34.6594" y2="10.8224" gradientUnits="userSpaceOnUse">
<stop stop-color="white" stop-opacity="0"/>
<stop offset="1" stop-color="white" stop-opacity="0.4"/>
</linearGradient>
<radialGradient id="paint1_radial_800_79730" cx="0" cy="0" r="1" gradientUnits="userSpaceOnUse" gradientTransform="translate(68 28) rotate(-156.321) scale(93.3514 53.4617)">
<stop stop-color="#050505"/>
<stop offset="1" stop-color="#525252" stop-opacity="0"/>
</radialGradient>
<radialGradient id="paint2_radial_800_79730" cx="0" cy="0" r="1" gradientUnits="userSpaceOnUse" gradientTransform="translate(68 28) rotate(19.1048) scale(85.0864 38.2383)">
<stop stop-color="#6D99DB"/>
<stop offset="1" stop-color="#6D99DB" stop-opacity="0"/>
</radialGradient>
<radialGradient id="paint3_radial_800_79730" cx="0" cy="0" r="1" gradientUnits="userSpaceOnUse" gradientTransform="translate(68 28) rotate(158.707) scale(78.8122 39.8576)">
<stop stop-color="#587EB7"/>
<stop offset="1" stop-color="#587EB7" stop-opacity="0"/>
</radialGradient>
</defs>
</svg>
