<svg width="151" height="42" viewBox="0 0 151 42" fill="none" xmlns="http://www.w3.org/2000/svg">
<rect x="1" y="1" width="148.7" height="40" rx="6" fill="#22252C"/>
<path d="M17.1878 14.8H18.3078V26H17.1878V14.8ZM24.5593 17.808C25.53 17.808 26.2926 18.1067 26.8473 18.704C27.4126 19.2907 27.6953 20.0853 27.6953 21.088V26H26.6393V21.088C26.6393 20.3733 26.4473 19.8187 26.0633 19.424C25.69 19.0293 25.1566 18.832 24.4633 18.832C23.6953 18.832 23.0713 19.0773 22.5913 19.568C22.1113 20.048 21.8713 20.7947 21.8713 21.808V26H20.8153V18H21.8713V19.248C22.4686 18.288 23.3646 17.808 24.5593 17.808ZM35.5191 18H36.6391L33.3591 26H32.0791L28.7991 18H29.9191L32.7191 24.896L35.5191 18ZM41.3988 17.808C42.5828 17.808 43.5375 18.2293 44.2628 19.072C44.9988 19.904 45.3668 20.8907 45.3668 22.032C45.3668 22.1493 45.3561 22.3147 45.3348 22.528H38.3108C38.4175 23.3387 38.7588 23.984 39.3348 24.464C39.9215 24.9333 40.6415 25.168 41.4948 25.168C42.1028 25.168 42.6255 25.0453 43.0628 24.8C43.5108 24.544 43.8468 24.2133 44.0708 23.808L44.9988 24.352C44.6468 24.9173 44.1668 25.3653 43.5588 25.696C42.9508 26.0267 42.2575 26.192 41.4788 26.192C40.2201 26.192 39.1961 25.7973 38.4068 25.008C37.6175 24.2187 37.2228 23.216 37.2228 22C37.2228 20.8053 37.6121 19.808 38.3908 19.008C39.1695 18.208 40.1721 17.808 41.3988 17.808ZM41.3988 18.832C40.5668 18.832 39.8681 19.0827 39.3028 19.584C38.7481 20.0747 38.4175 20.7147 38.3108 21.504H44.2788C44.1721 20.6613 43.8468 20.0053 43.3028 19.536C42.7588 19.0667 42.1241 18.832 41.3988 18.832ZM47.6661 20.096C47.6661 20.4587 47.8261 20.7467 48.1461 20.96C48.4661 21.1733 48.8554 21.3387 49.3141 21.456C49.7727 21.5733 50.2314 21.7067 50.6901 21.856C51.1487 21.9947 51.5381 22.2347 51.8581 22.576C52.1781 22.9067 52.3381 23.344 52.3381 23.888C52.3381 24.5707 52.0661 25.1253 51.5221 25.552C50.9887 25.9787 50.2954 26.192 49.4421 26.192C48.6741 26.192 48.0181 26.0213 47.4741 25.68C46.9407 25.3387 46.5674 24.896 46.3541 24.352L47.2501 23.824C47.3994 24.24 47.6661 24.5707 48.0501 24.816C48.4447 25.0507 48.9087 25.168 49.4421 25.168C49.9647 25.168 50.4021 25.0667 50.7541 24.864C51.1061 24.6507 51.2821 24.3253 51.2821 23.888C51.2821 23.5253 51.1221 23.2373 50.8021 23.024C50.4821 22.8107 50.0927 22.6453 49.6341 22.528C49.1754 22.4107 48.7167 22.2827 48.2581 22.144C47.7994 21.9947 47.4101 21.7547 47.0901 21.424C46.7701 21.0827 46.6101 20.64 46.6101 20.096C46.6101 19.4453 46.8661 18.9013 47.3781 18.464C47.9007 18.0267 48.5567 17.808 49.3461 17.808C49.9967 17.808 50.5674 17.9573 51.0581 18.256C51.5487 18.544 51.9114 18.9387 52.1461 19.44L51.2661 19.952C50.9567 19.2053 50.3167 18.832 49.3461 18.832C48.8874 18.832 48.4927 18.944 48.1621 19.168C47.8314 19.3813 47.6661 19.6907 47.6661 20.096ZM58.1272 19.024H55.8232V23.872C55.8232 24.3093 55.9085 24.624 56.0792 24.816C56.2499 24.9973 56.5059 25.0933 56.8472 25.104C57.1885 25.104 57.6152 25.0933 58.1272 25.072V26C57.0072 26.1707 56.1645 26.0907 55.5992 25.76C55.0445 25.4293 54.7672 24.8 54.7672 23.872V19.024H53.0872V18H54.7672V16.08L55.8232 15.76V18H58.1272V19.024ZM61.0592 16.08C60.9099 16.2293 60.7285 16.304 60.5152 16.304C60.3019 16.304 60.1205 16.2293 59.9712 16.08C59.8219 15.9307 59.7472 15.7493 59.7472 15.536C59.7472 15.3227 59.8219 15.1413 59.9712 14.992C60.1205 14.8427 60.3019 14.768 60.5152 14.768C60.7285 14.768 60.9099 14.8427 61.0592 14.992C61.2085 15.1413 61.2832 15.3227 61.2832 15.536C61.2832 15.7493 61.2085 15.9307 61.0592 16.08ZM59.9872 26V18H61.0432V26H59.9872ZM67.1281 17.808C68.0987 17.808 68.8614 18.1067 69.4161 18.704C69.9814 19.2907 70.2641 20.0853 70.2641 21.088V26H69.2081V21.088C69.2081 20.3733 69.0161 19.8187 68.6321 19.424C68.2587 19.0293 67.7254 18.832 67.0321 18.832C66.2641 18.832 65.6401 19.0773 65.1601 19.568C64.6801 20.048 64.4401 20.7947 64.4401 21.808V26H63.3841V18H64.4401V19.248C65.0374 18.288 65.9334 17.808 67.1281 17.808ZM79.2859 18H80.3419V25.68C80.3419 26.832 79.9473 27.7387 79.1579 28.4C78.3686 29.0613 77.4246 29.392 76.3259 29.392C74.4486 29.392 73.1846 28.7413 72.5339 27.44L73.4619 26.912C73.9419 27.8827 74.8966 28.368 76.3259 28.368C77.2433 28.368 77.9633 28.1227 78.4859 27.632C79.0193 27.152 79.2859 26.5013 79.2859 25.68V24.432C78.5499 25.6053 77.4726 26.192 76.0539 26.192C74.9126 26.192 73.9366 25.7867 73.1259 24.976C72.3259 24.1653 71.9259 23.1733 71.9259 22C71.9259 20.8267 72.3259 19.8347 73.1259 19.024C73.9366 18.2133 74.9126 17.808 76.0539 17.808C77.4726 17.808 78.5499 18.3947 79.2859 19.568V18ZM73.8939 24.256C74.5019 24.864 75.2486 25.168 76.1339 25.168C77.0193 25.168 77.7659 24.864 78.3739 24.256C78.9819 23.6373 79.2859 22.8853 79.2859 22C79.2859 21.1147 78.9819 20.368 78.3739 19.76C77.7659 19.1413 77.0193 18.832 76.1339 18.832C75.2486 18.832 74.5019 19.1413 73.8939 19.76C73.2859 20.368 72.9819 21.1147 72.9819 22C72.9819 22.8853 73.2859 23.6373 73.8939 24.256ZM90.5218 17.808C91.4925 17.808 92.2551 18.1067 92.8098 18.704C93.3751 19.2907 93.6578 20.0853 93.6578 21.088V26H92.6018V21.088C92.6018 20.3733 92.4098 19.8187 92.0258 19.424C91.6525 19.0293 91.1191 18.832 90.4258 18.832C89.6578 18.832 89.0338 19.0773 88.5538 19.568C88.0738 20.048 87.8338 20.7947 87.8338 21.808V26H86.7778V14.8H87.8338V19.248C88.4311 18.288 89.3271 17.808 90.5218 17.808ZM96.8717 16.08C96.7224 16.2293 96.541 16.304 96.3277 16.304C96.1144 16.304 95.933 16.2293 95.7837 16.08C95.6344 15.9307 95.5597 15.7493 95.5597 15.536C95.5597 15.3227 95.6344 15.1413 95.7837 14.992C95.933 14.8427 96.1144 14.768 96.3277 14.768C96.541 14.768 96.7224 14.8427 96.8717 14.992C97.021 15.1413 97.0957 15.3227 97.0957 15.536C97.0957 15.7493 97.021 15.9307 96.8717 16.08ZM95.7997 26V18H96.8557V26H95.7997ZM100.029 20.096C100.029 20.4587 100.189 20.7467 100.509 20.96C100.829 21.1733 101.218 21.3387 101.677 21.456C102.135 21.5733 102.594 21.7067 103.053 21.856C103.511 21.9947 103.901 22.2347 104.221 22.576C104.541 22.9067 104.701 23.344 104.701 23.888C104.701 24.5707 104.429 25.1253 103.885 25.552C103.351 25.9787 102.658 26.192 101.805 26.192C101.037 26.192 100.381 26.0213 99.8366 25.68C99.3032 25.3387 98.9299 24.896 98.7166 24.352L99.6126 23.824C99.7619 24.24 100.029 24.5707 100.413 24.816C100.807 25.0507 101.271 25.168 101.805 25.168C102.327 25.168 102.765 25.0667 103.117 24.864C103.469 24.6507 103.645 24.3253 103.645 23.888C103.645 23.5253 103.485 23.2373 103.165 23.024C102.845 22.8107 102.455 22.6453 101.997 22.528C101.538 22.4107 101.079 22.2827 100.621 22.144C100.162 21.9947 99.7726 21.7547 99.4526 21.424C99.1326 21.0827 98.9726 20.64 98.9726 20.096C98.9726 19.4453 99.2286 18.9013 99.7406 18.464C100.263 18.0267 100.919 17.808 101.709 17.808C102.359 17.808 102.93 17.9573 103.421 18.256C103.911 18.544 104.274 18.9387 104.509 19.44L103.629 19.952C103.319 19.2053 102.679 18.832 101.709 18.832C101.25 18.832 100.855 18.944 100.525 19.168C100.194 19.3813 100.029 19.6907 100.029 20.096ZM110.49 19.024H108.186V23.872C108.186 24.3093 108.271 24.624 108.442 24.816C108.612 24.9973 108.868 25.0933 109.21 25.104C109.551 25.104 109.978 25.0933 110.49 25.072V26C109.37 26.1707 108.527 26.0907 107.962 25.76C107.407 25.4293 107.13 24.8 107.13 23.872V19.024H105.45V18H107.13V16.08L108.186 15.76V18H110.49V19.024ZM118.569 24.992C117.759 25.792 116.767 26.192 115.593 26.192C114.42 26.192 113.423 25.792 112.601 24.992C111.791 24.1813 111.385 23.184 111.385 22C111.385 20.816 111.791 19.824 112.601 19.024C113.423 18.2133 114.42 17.808 115.593 17.808C116.767 17.808 117.759 18.2133 118.569 19.024C119.391 19.824 119.801 20.816 119.801 22C119.801 23.184 119.391 24.1813 118.569 24.992ZM113.353 24.256C113.961 24.864 114.708 25.168 115.593 25.168C116.479 25.168 117.225 24.864 117.833 24.256C118.441 23.6373 118.745 22.8853 118.745 22C118.745 21.1147 118.441 20.368 117.833 19.76C117.225 19.1413 116.479 18.832 115.593 18.832C114.708 18.832 113.961 19.1413 113.353 19.76C112.745 20.368 112.441 21.1147 112.441 22C112.441 22.8853 112.745 23.6373 113.353 24.256ZM122.724 19.328C123.215 18.3573 124.058 17.872 125.252 17.872V18.896C124.527 18.896 123.924 19.1093 123.444 19.536C122.964 19.9627 122.724 20.6347 122.724 21.552V26H121.668V18H122.724V19.328ZM132.716 18H133.836L130.412 26.736C130.103 27.5253 129.66 28.144 129.084 28.592C128.519 29.0507 127.884 29.2533 127.18 29.2V28.208C128.14 28.3147 128.871 27.76 129.372 26.544L129.58 26.048L125.996 18H127.116L130.124 24.704L132.716 18Z" fill="#5A6575"/>
<rect x="1" y="1" width="148.7" height="40" rx="6" stroke="url(#paint0_radial_556_102000)" stroke-opacity="0.5"/>
<rect x="1" y="1" width="148.7" height="40" rx="6" stroke="url(#paint1_radial_556_102000)"/>
<rect x="1" y="1" width="148.7" height="40" rx="6" stroke="url(#paint2_radial_556_102000)"/>
<defs>
<radialGradient id="paint0_radial_556_102000" cx="0" cy="0" r="1" gradientUnits="userSpaceOnUse" gradientTransform="translate(75.3499 21) rotate(-163.684) scale(98.8516 41.5003)">
<stop stop-color="#050505"/>
<stop offset="1" stop-color="#525252" stop-opacity="0"/>
</radialGradient>
<radialGradient id="paint1_radial_556_102000" cx="0" cy="0" r="1" gradientUnits="userSpaceOnUse" gradientTransform="translate(75.3499 21) rotate(13.0186) scale(91.5736 29.2052)">
<stop stop-color="#6D99DB"/>
<stop offset="1" stop-color="#6D99DB" stop-opacity="0"/>
</radialGradient>
<radialGradient id="paint2_radial_556_102000" cx="0" cy="0" r="1" gradientUnits="userSpaceOnUse" gradientTransform="translate(75.3498 21) rotate(165.417) scale(84.2 30.6665)">
<stop stop-color="#587EB7"/>
<stop offset="1" stop-color="#587EB7" stop-opacity="0"/>
</radialGradient>
</defs>
</svg>
