<svg width="174" height="47" viewBox="0 0 174 47" fill="none" xmlns="http://www.w3.org/2000/svg">
<rect x="0.5" y="0.5" width="173" height="46" rx="5.5" fill="url(#paint0_linear_978_9306)"/>
<path opacity="0.9" d="M25.2469 28V16.8H26.7349V28H25.2469ZM33.4775 19.792C34.4162 19.792 35.1682 20.0907 35.7335 20.688C36.2989 21.2747 36.5815 22.0747 36.5815 23.088V28H35.1895V23.168C35.1895 22.528 35.0135 22.0267 34.6615 21.664C34.3095 21.3013 33.8242 21.12 33.2055 21.12C32.4909 21.12 31.9255 21.344 31.5095 21.792C31.0935 22.2293 30.8855 22.8853 30.8855 23.76V28H29.4935V20H30.8855V21.152C31.4402 20.2453 32.3042 19.792 33.4775 19.792ZM42.0034 26.512L44.5154 20H46.0194L42.8194 28H41.1874L37.9874 20H39.4914L42.0034 26.512ZM55.0642 24.64H48.3602C48.4988 25.344 48.8242 25.8987 49.3362 26.304C49.8482 26.6987 50.4882 26.896 51.2562 26.896C52.3122 26.896 53.0802 26.5067 53.5602 25.728L54.7442 26.4C53.9548 27.6053 52.7815 28.208 51.2242 28.208C49.9655 28.208 48.9308 27.8133 48.1202 27.024C47.3308 26.2133 46.9362 25.2053 46.9362 24C46.9362 22.784 47.3255 21.7813 48.1042 20.992C48.8828 20.192 49.8908 19.792 51.1282 19.792C52.3015 19.792 53.2562 20.208 53.9922 21.04C54.7388 21.8507 55.1122 22.8427 55.1122 24.016C55.1122 24.2187 55.0962 24.4267 55.0642 24.64ZM51.1282 21.104C50.3922 21.104 49.7735 21.312 49.2722 21.728C48.7815 22.144 48.4775 22.7093 48.3602 23.424H53.7042C53.5868 22.688 53.2935 22.1173 52.8242 21.712C52.3548 21.3067 51.7895 21.104 51.1282 21.104ZM58.0998 22.16C58.0998 22.672 58.6278 23.072 59.6838 23.36C60.0785 23.4453 60.4091 23.536 60.6758 23.632C60.9531 23.7173 61.2518 23.8507 61.5718 24.032C61.9025 24.2133 62.1531 24.4533 62.3238 24.752C62.4945 25.0507 62.5798 25.4027 62.5798 25.808C62.5798 26.5333 62.2971 27.1147 61.7318 27.552C61.1665 27.9893 60.4518 28.208 59.5878 28.208C58.8198 28.208 58.1531 28.0427 57.5878 27.712C57.0331 27.3707 56.6385 26.912 56.4038 26.336L57.6038 25.648C57.7318 26.032 57.9718 26.336 58.3238 26.56C58.6758 26.784 59.0971 26.896 59.5878 26.896C60.0678 26.896 60.4518 26.8053 60.7398 26.624C61.0278 26.4427 61.1718 26.1707 61.1718 25.808C61.1718 25.264 60.6438 24.8693 59.5878 24.624C59.2358 24.528 58.9691 24.4533 58.7878 24.4C58.6065 24.3467 58.3558 24.2507 58.0358 24.112C57.7265 23.9733 57.4918 23.8293 57.3318 23.68C57.1718 23.52 57.0225 23.312 56.8838 23.056C56.7558 22.7893 56.6918 22.496 56.6918 22.176C56.6918 21.4827 56.9585 20.912 57.4918 20.464C58.0358 20.016 58.7131 19.792 59.5238 19.792C60.1745 19.792 60.7505 19.9413 61.2518 20.24C61.7638 20.528 62.1478 20.9333 62.4038 21.456L61.2358 22.112C60.9478 21.4293 60.3771 21.088 59.5238 21.088C59.1185 21.088 58.7771 21.184 58.4998 21.376C58.2331 21.568 58.0998 21.8293 58.0998 22.16ZM68.7674 20V21.344H66.6394V25.68C66.6394 26.0747 66.7141 26.3573 66.8634 26.528C67.0234 26.688 67.2634 26.7733 67.5834 26.784C67.9034 26.784 68.2981 26.7733 68.7674 26.752V28C67.5407 28.16 66.6447 28.0587 66.0794 27.696C65.5247 27.3333 65.2474 26.6613 65.2474 25.68V21.344H63.6634V20H65.2474V18.176L66.6394 17.76V20H68.7674ZM71.6194 18.544C71.3527 18.544 71.1287 18.4533 70.9474 18.272C70.7661 18.0907 70.6754 17.872 70.6754 17.616C70.6754 17.36 70.7661 17.1413 70.9474 16.96C71.1287 16.768 71.3527 16.672 71.6194 16.672C71.8754 16.672 72.0941 16.768 72.2754 16.96C72.4567 17.1413 72.5474 17.36 72.5474 17.616C72.5474 17.872 72.4567 18.0907 72.2754 18.272C72.0941 18.4533 71.8754 18.544 71.6194 18.544ZM72.3074 28H70.9154V20H72.3074V28ZM78.915 19.792C79.8537 19.792 80.6057 20.0907 81.171 20.688C81.7364 21.2747 82.019 22.0747 82.019 23.088V28H80.627V23.168C80.627 22.528 80.451 22.0267 80.099 21.664C79.747 21.3013 79.2617 21.12 78.643 21.12C77.9284 21.12 77.363 21.344 76.947 21.792C76.531 22.2293 76.323 22.8853 76.323 23.76V28H74.931V20H76.323V21.152C76.8777 20.2453 77.7417 19.792 78.915 19.792ZM91.1023 21.376V20H92.4783V27.664C92.4783 28.848 92.0783 29.7653 91.2783 30.416C90.4676 31.0773 89.5076 31.408 88.3983 31.408C87.5023 31.408 86.729 31.2373 86.0783 30.896C85.4276 30.5653 84.937 30.0853 84.6063 29.456L85.8223 28.768C86.2596 29.664 87.129 30.112 88.4303 30.112C89.2623 30.112 89.913 29.8933 90.3823 29.456C90.8623 29.0187 91.1023 28.4213 91.1023 27.664V26.528C90.3983 27.5947 89.3956 28.128 88.0943 28.128C86.9423 28.128 85.977 27.7227 85.1983 26.912C84.409 26.0907 84.0143 25.104 84.0143 23.952C84.0143 22.8 84.409 21.8187 85.1983 21.008C85.977 20.1973 86.9423 19.792 88.0943 19.792C89.4063 19.792 90.409 20.32 91.1023 21.376ZM91.1023 23.952C91.1023 23.152 90.8303 22.48 90.2863 21.936C89.7423 21.392 89.065 21.12 88.2543 21.12C87.4436 21.12 86.7663 21.392 86.2223 21.936C85.6783 22.48 85.4063 23.152 85.4063 23.952C85.4063 24.7627 85.6783 25.44 86.2223 25.984C86.7663 26.528 87.4436 26.8 88.2543 26.8C89.065 26.8 89.7423 26.528 90.2863 25.984C90.8303 25.44 91.1023 24.7627 91.1023 23.952ZM103.571 19.792C104.51 19.792 105.262 20.0907 105.827 20.688C106.393 21.2747 106.675 22.0747 106.675 23.088V28H105.283V23.168C105.283 22.528 105.107 22.0267 104.755 21.664C104.403 21.3013 103.918 21.12 103.299 21.12C102.585 21.12 102.019 21.344 101.603 21.792C101.187 22.2293 100.979 22.8853 100.979 23.76V28H99.5873V16.8H100.979V21.152C101.534 20.2453 102.398 19.792 103.571 19.792ZM109.823 18.544C109.556 18.544 109.332 18.4533 109.151 18.272C108.969 18.0907 108.879 17.872 108.879 17.616C108.879 17.36 108.969 17.1413 109.151 16.96C109.332 16.768 109.556 16.672 109.823 16.672C110.079 16.672 110.297 16.768 110.479 16.96C110.66 17.1413 110.751 17.36 110.751 17.616C110.751 17.872 110.66 18.0907 110.479 18.272C110.297 18.4533 110.079 18.544 109.823 18.544ZM110.511 28H109.119V20H110.511V28ZM114.319 22.16C114.319 22.672 114.847 23.072 115.903 23.36C116.297 23.4453 116.628 23.536 116.895 23.632C117.172 23.7173 117.471 23.8507 117.791 24.032C118.121 24.2133 118.372 24.4533 118.543 24.752C118.713 25.0507 118.799 25.4027 118.799 25.808C118.799 26.5333 118.516 27.1147 117.951 27.552C117.385 27.9893 116.671 28.208 115.807 28.208C115.039 28.208 114.372 28.0427 113.807 27.712C113.252 27.3707 112.857 26.912 112.623 26.336L113.823 25.648C113.951 26.032 114.191 26.336 114.543 26.56C114.895 26.784 115.316 26.896 115.807 26.896C116.287 26.896 116.671 26.8053 116.959 26.624C117.247 26.4427 117.391 26.1707 117.391 25.808C117.391 25.264 116.863 24.8693 115.807 24.624C115.455 24.528 115.188 24.4533 115.007 24.4C114.825 24.3467 114.575 24.2507 114.255 24.112C113.945 23.9733 113.711 23.8293 113.551 23.68C113.391 23.52 113.241 23.312 113.103 23.056C112.975 22.7893 112.911 22.496 112.911 22.176C112.911 21.4827 113.177 20.912 113.711 20.464C114.255 20.016 114.932 19.792 115.743 19.792C116.393 19.792 116.969 19.9413 117.471 20.24C117.983 20.528 118.367 20.9333 118.623 21.456L117.455 22.112C117.167 21.4293 116.596 21.088 115.743 21.088C115.337 21.088 114.996 21.184 114.719 21.376C114.452 21.568 114.319 21.8293 114.319 22.16ZM124.986 20V21.344H122.858V25.68C122.858 26.0747 122.933 26.3573 123.082 26.528C123.242 26.688 123.482 26.7733 123.802 26.784C124.122 26.784 124.517 26.7733 124.986 26.752V28C123.759 28.16 122.863 28.0587 122.298 27.696C121.743 27.3333 121.466 26.6613 121.466 25.68V21.344H119.882V20H121.466V18.176L122.858 17.76V20H124.986ZM133.48 26.992C132.669 27.8027 131.672 28.208 130.488 28.208C129.304 28.208 128.307 27.8027 127.496 26.992C126.685 26.1813 126.28 25.184 126.28 24C126.28 22.816 126.685 21.8187 127.496 21.008C128.307 20.1973 129.304 19.792 130.488 19.792C131.672 19.792 132.669 20.1973 133.48 21.008C134.301 21.8293 134.712 22.8267 134.712 24C134.712 25.1733 134.301 26.1707 133.48 26.992ZM130.488 26.848C131.288 26.848 131.96 26.576 132.504 26.032C133.048 25.488 133.32 24.8107 133.32 24C133.32 23.1893 133.048 22.512 132.504 21.968C131.96 21.424 131.288 21.152 130.488 21.152C129.699 21.152 129.032 21.424 128.488 21.968C127.944 22.512 127.672 23.1893 127.672 24C127.672 24.8107 127.944 25.488 128.488 26.032C129.032 26.576 129.699 26.848 130.488 26.848ZM138.245 20V21.344C138.704 20.352 139.536 19.856 140.741 19.856V21.312C140.058 21.28 139.472 21.4613 138.981 21.856C138.49 22.2507 138.245 22.8853 138.245 23.76V28H136.853V20H138.245ZM146.055 26.272L148.359 20H149.847L146.583 28.496C146.231 29.4027 145.745 30.0907 145.127 30.56C144.519 31.04 143.82 31.2533 143.031 31.2V29.904C144.012 29.9787 144.732 29.4347 145.191 28.272L145.335 27.968L141.847 20H143.335L146.055 26.272Z" fill="#C5D1DC"/>
<rect x="0.5" y="0.5" width="173" height="46" rx="5.5" stroke="url(#paint1_radial_978_9306)" stroke-opacity="0.5"/>
<rect x="0.5" y="0.5" width="173" height="46" rx="5.5" stroke="url(#paint2_radial_978_9306)"/>
<rect x="0.5" y="0.5" width="173" height="46" rx="5.5" stroke="url(#paint3_radial_978_9306)"/>
<defs>
<linearGradient id="paint0_linear_978_9306" x1="-8.37778" y1="3.79503" x2="31.335" y2="-73.3968" gradientUnits="userSpaceOnUse">
<stop stop-color="#363F4E" stop-opacity="0.5"/>
<stop offset="1" stop-color="#3F4A62"/>
</linearGradient>
<radialGradient id="paint1_radial_978_9306" cx="0" cy="0" r="1" gradientUnits="userSpaceOnUse" gradientTransform="translate(87 23.5) rotate(-163.62) scale(115.709 48.7469)">
<stop stop-color="#050505"/>
<stop offset="1" stop-color="#525252" stop-opacity="0"/>
</radialGradient>
<radialGradient id="paint2_radial_978_9306" cx="0" cy="0" r="1" gradientUnits="userSpaceOnUse" gradientTransform="translate(87 23.5) rotate(13.0708) scale(107.177 34.3088)">
<stop stop-color="#6D99DB"/>
<stop offset="1" stop-color="#6D99DB" stop-opacity="0"/>
</radialGradient>
<radialGradient id="paint3_radial_978_9306" cx="0" cy="0" r="1" gradientUnits="userSpaceOnUse" gradientTransform="translate(87 23.5) rotate(165.359) scale(98.5521 36.0236)">
<stop stop-color="#587EB7"/>
<stop offset="1" stop-color="#587EB7" stop-opacity="0"/>
</radialGradient>
</defs>
</svg>
