<svg width="145" height="47" viewBox="0 0 145 47" fill="none" xmlns="http://www.w3.org/2000/svg">
<rect x="0.5" y="0.5" width="144" height="46" rx="5.5" fill="url(#paint0_linear_1059_81032)"/>
<path opacity="0.9" d="M27.3005 25.152V16.8H28.7885V28H27.5884L21.8284 19.632V28H20.3404V16.8H21.5404L27.3005 25.152ZM39.2202 24.64H32.5162C32.6549 25.344 32.9802 25.8987 33.4922 26.304C34.0042 26.6987 34.6442 26.896 35.4122 26.896C36.4682 26.896 37.2362 26.5067 37.7162 25.728L38.9002 26.4C38.1109 27.6053 36.9375 28.208 35.3802 28.208C34.1215 28.208 33.0869 27.8133 32.2762 27.024C31.4869 26.2133 31.0922 25.2053 31.0922 24C31.0922 22.784 31.4815 21.7813 32.2602 20.992C33.0389 20.192 34.0469 19.792 35.2842 19.792C36.4575 19.792 37.4122 20.208 38.1482 21.04C38.8949 21.8507 39.2682 22.8427 39.2682 24.016C39.2682 24.2187 39.2522 24.4267 39.2202 24.64ZM35.2842 21.104C34.5482 21.104 33.9295 21.312 33.4282 21.728C32.9375 22.144 32.6335 22.7093 32.5162 23.424H37.8602C37.7429 22.688 37.4495 22.1173 36.9802 21.712C36.5109 21.3067 35.9455 21.104 35.2842 21.104ZM48.7198 26.096L50.4798 20H51.9358L49.4558 28H48.0318L46.1598 22.08L44.2878 28H42.8638L40.3838 20H41.8398L43.5998 26.08L45.4878 20H46.8318L48.7198 26.096ZM58.5123 16.8H62.5763C63.6003 16.8 64.459 17.1467 65.1523 17.84C65.8457 18.5333 66.1923 19.3867 66.1923 20.4C66.1923 21.4133 65.8457 22.2667 65.1523 22.96C64.459 23.6533 63.6003 24 62.5763 24H60.0003V28H58.5123V16.8ZM60.0003 22.608H62.5763C63.2057 22.608 63.7177 22.4 64.1123 21.984C64.5177 21.5467 64.7203 21.0187 64.7203 20.4C64.7203 19.76 64.5177 19.232 64.1123 18.816C63.707 18.4 63.195 18.192 62.5763 18.192H60.0003V22.608ZM74.4485 26.992C73.6378 27.8027 72.6405 28.208 71.4564 28.208C70.2724 28.208 69.2751 27.8027 68.4644 26.992C67.6538 26.1813 67.2484 25.184 67.2484 24C67.2484 22.816 67.6538 21.8187 68.4644 21.008C69.2751 20.1973 70.2724 19.792 71.4564 19.792C72.6405 19.792 73.6378 20.1973 74.4485 21.008C75.2698 21.8293 75.6804 22.8267 75.6804 24C75.6804 25.1733 75.2698 26.1707 74.4485 26.992ZM71.4564 26.848C72.2564 26.848 72.9284 26.576 73.4724 26.032C74.0164 25.488 74.2884 24.8107 74.2884 24C74.2884 23.1893 74.0164 22.512 73.4724 21.968C72.9284 21.424 72.2564 21.152 71.4564 21.152C70.6671 21.152 70.0004 21.424 69.4564 21.968C68.9124 22.512 68.6404 23.1893 68.6404 24C68.6404 24.8107 68.9124 25.488 69.4564 26.032C70.0004 26.576 70.6671 26.848 71.4564 26.848ZM78.8496 22.16C78.8496 22.672 79.3776 23.072 80.4336 23.36C80.8282 23.4453 81.1589 23.536 81.4256 23.632C81.7029 23.7173 82.0016 23.8507 82.3216 24.032C82.6522 24.2133 82.9029 24.4533 83.0736 24.752C83.2442 25.0507 83.3296 25.4027 83.3296 25.808C83.3296 26.5333 83.0469 27.1147 82.4816 27.552C81.9162 27.9893 81.2016 28.208 80.3376 28.208C79.5696 28.208 78.9029 28.0427 78.3376 27.712C77.7829 27.3707 77.3882 26.912 77.1536 26.336L78.3536 25.648C78.4816 26.032 78.7216 26.336 79.0736 26.56C79.4256 26.784 79.8469 26.896 80.3376 26.896C80.8176 26.896 81.2016 26.8053 81.4896 26.624C81.7776 26.4427 81.9216 26.1707 81.9216 25.808C81.9216 25.264 81.3936 24.8693 80.3376 24.624C79.9856 24.528 79.7189 24.4533 79.5376 24.4C79.3562 24.3467 79.1056 24.2507 78.7856 24.112C78.4762 23.9733 78.2416 23.8293 78.0816 23.68C77.9216 23.52 77.7722 23.312 77.6336 23.056C77.5056 22.7893 77.4416 22.496 77.4416 22.176C77.4416 21.4827 77.7082 20.912 78.2416 20.464C78.7856 20.016 79.4629 19.792 80.2736 19.792C80.9242 19.792 81.5002 19.9413 82.0016 20.24C82.5136 20.528 82.8976 20.9333 83.1536 21.456L81.9856 22.112C81.6976 21.4293 81.1269 21.088 80.2736 21.088C79.8682 21.088 79.5269 21.184 79.2496 21.376C78.9829 21.568 78.8496 21.8293 78.8496 22.16ZM86.1036 18.544C85.8369 18.544 85.6129 18.4533 85.4316 18.272C85.2502 18.0907 85.1596 17.872 85.1596 17.616C85.1596 17.36 85.2502 17.1413 85.4316 16.96C85.6129 16.768 85.8369 16.672 86.1036 16.672C86.3596 16.672 86.5782 16.768 86.7596 16.96C86.9409 17.1413 87.0316 17.36 87.0316 17.616C87.0316 17.872 86.9409 18.0907 86.7596 18.272C86.5782 18.4533 86.3596 18.544 86.1036 18.544ZM86.7916 28H85.3996V20H86.7916V28ZM93.7672 20V21.344H91.6392V25.68C91.6392 26.0747 91.7139 26.3573 91.8632 26.528C92.0232 26.688 92.2632 26.7733 92.5832 26.784C92.9032 26.784 93.2979 26.7733 93.7672 26.752V28C92.5405 28.16 91.6445 28.0587 91.0792 27.696C90.5245 27.3333 90.2472 26.6613 90.2472 25.68V21.344H88.6632V20H90.2472V18.176L91.6392 17.76V20H93.7672ZM96.6192 18.544C96.3525 18.544 96.1285 18.4533 95.9472 18.272C95.7659 18.0907 95.6752 17.872 95.6752 17.616C95.6752 17.36 95.7659 17.1413 95.9472 16.96C96.1285 16.768 96.3525 16.672 96.6192 16.672C96.8752 16.672 97.0939 16.768 97.2752 16.96C97.4565 17.1413 97.5472 17.36 97.5472 17.616C97.5472 17.872 97.4565 18.0907 97.2752 18.272C97.0939 18.4533 96.8752 18.544 96.6192 18.544ZM97.3072 28H95.9152V20H97.3072V28ZM106.683 26.992C105.872 27.8027 104.875 28.208 103.691 28.208C102.507 28.208 101.509 27.8027 100.699 26.992C99.8882 26.1813 99.4828 25.184 99.4828 24C99.4828 22.816 99.8882 21.8187 100.699 21.008C101.509 20.1973 102.507 19.792 103.691 19.792C104.875 19.792 105.872 20.1973 106.683 21.008C107.504 21.8293 107.915 22.8267 107.915 24C107.915 25.1733 107.504 26.1707 106.683 26.992ZM103.691 26.848C104.491 26.848 105.163 26.576 105.707 26.032C106.251 25.488 106.523 24.8107 106.523 24C106.523 23.1893 106.251 22.512 105.707 21.968C105.163 21.424 104.491 21.152 103.691 21.152C102.901 21.152 102.235 21.424 101.691 21.968C101.147 22.512 100.875 23.1893 100.875 24C100.875 24.8107 101.147 25.488 101.691 26.032C102.235 26.576 102.901 26.848 103.691 26.848ZM114.04 19.792C114.978 19.792 115.73 20.0907 116.296 20.688C116.861 21.2747 117.144 22.0747 117.144 23.088V28H115.752V23.168C115.752 22.528 115.576 22.0267 115.224 21.664C114.872 21.3013 114.386 21.12 113.768 21.12C113.053 21.12 112.488 21.344 112.072 21.792C111.656 22.2293 111.448 22.8853 111.448 23.76V28H110.056V20H111.448V21.152C112.002 20.2453 112.866 19.792 114.04 19.792ZM120.787 22.16C120.787 22.672 121.315 23.072 122.371 23.36C122.766 23.4453 123.096 23.536 123.363 23.632C123.64 23.7173 123.939 23.8507 124.259 24.032C124.59 24.2133 124.84 24.4533 125.011 24.752C125.182 25.0507 125.267 25.4027 125.267 25.808C125.267 26.5333 124.984 27.1147 124.419 27.552C123.854 27.9893 123.139 28.208 122.275 28.208C121.507 28.208 120.84 28.0427 120.275 27.712C119.72 27.3707 119.326 26.912 119.091 26.336L120.291 25.648C120.419 26.032 120.659 26.336 121.011 26.56C121.363 26.784 121.784 26.896 122.275 26.896C122.755 26.896 123.139 26.8053 123.427 26.624C123.715 26.4427 123.859 26.1707 123.859 25.808C123.859 25.264 123.331 24.8693 122.275 24.624C121.923 24.528 121.656 24.4533 121.475 24.4C121.294 24.3467 121.043 24.2507 120.723 24.112C120.414 23.9733 120.179 23.8293 120.019 23.68C119.859 23.52 119.71 23.312 119.571 23.056C119.443 22.7893 119.379 22.496 119.379 22.176C119.379 21.4827 119.646 20.912 120.179 20.464C120.723 20.016 121.4 19.792 122.211 19.792C122.862 19.792 123.438 19.9413 123.939 20.24C124.451 20.528 124.835 20.9333 125.091 21.456L123.923 22.112C123.635 21.4293 123.064 21.088 122.211 21.088C121.806 21.088 121.464 21.184 121.187 21.376C120.92 21.568 120.787 21.8293 120.787 22.16Z" fill="#C5D1DC"/>
<rect x="0.5" y="0.5" width="144" height="46" rx="5.5" stroke="url(#paint1_radial_1059_81032)" stroke-opacity="0.5"/>
<rect x="0.5" y="0.5" width="144" height="46" rx="5.5" stroke="url(#paint2_radial_1059_81032)"/>
<rect x="0.5" y="0.5" width="144" height="46" rx="5.5" stroke="url(#paint3_radial_1059_81032)"/>
<defs>
<linearGradient id="paint0_linear_1059_81032" x1="-6.98148" y1="3.79503" x2="36.6556" y2="-66.8879" gradientUnits="userSpaceOnUse">
<stop stop-color="#363F4E" stop-opacity="0.5"/>
<stop offset="1" stop-color="#3F4A62"/>
</linearGradient>
<radialGradient id="paint1_radial_1059_81032" cx="0" cy="0" r="1" gradientUnits="userSpaceOnUse" gradientTransform="translate(72.5 23.5) rotate(-160.571) scale(98.0964 47.9157)">
<stop stop-color="#050505"/>
<stop offset="1" stop-color="#525252" stop-opacity="0"/>
</radialGradient>
<radialGradient id="paint2_radial_1059_81032" cx="0" cy="0" r="1" gradientUnits="userSpaceOnUse" gradientTransform="translate(72.5 23.5) rotate(15.5681) scale(90.3134 33.9292)">
<stop stop-color="#6D99DB"/>
<stop offset="1" stop-color="#6D99DB" stop-opacity="0"/>
</radialGradient>
<radialGradient id="paint3_radial_1059_81032" cx="0" cy="0" r="1" gradientUnits="userSpaceOnUse" gradientTransform="translate(72.5 23.5) rotate(162.594) scale(83.273 35.5277)">
<stop stop-color="#587EB7"/>
<stop offset="1" stop-color="#587EB7" stop-opacity="0"/>
</radialGradient>
</defs>
</svg>
