<svg width="107" height="49" viewBox="0 0 107 49" fill="none" xmlns="http://www.w3.org/2000/svg">
<rect x="1" y="1" width="105" height="47" rx="6" stroke="url(#paint0_linear_725_82654)"/>
<path d="M22.6237 24.632V17.8H24.8317V29H23.1517L18.3517 22.152V29H16.1437V17.8H17.8237L22.6237 24.632ZM34.6893 25.848H28.6573C28.924 26.8507 29.676 27.352 30.9133 27.352C31.7027 27.352 32.3 27.0853 32.7053 26.552L34.3693 27.512C33.58 28.6533 32.4173 29.224 30.8813 29.224C29.5587 29.224 28.4973 28.824 27.6973 28.024C26.8973 27.224 26.4973 26.216 26.4973 25C26.4973 23.8053 26.892 22.8027 27.6813 21.992C28.46 21.1813 29.4733 20.776 30.7213 20.776C31.9053 20.776 32.8707 21.1813 33.6173 21.992C34.3853 22.8027 34.7693 23.8053 34.7693 25C34.7693 25.224 34.7427 25.5067 34.6893 25.848ZM28.6253 24.248H32.7053C32.588 23.7253 32.348 23.3253 31.9853 23.048C31.6333 22.7707 31.212 22.632 30.7213 22.632C30.1667 22.632 29.708 22.776 29.3453 23.064C28.9827 23.3413 28.7427 23.736 28.6253 24.248ZM43.6457 25.928L45.0057 21H47.1977L44.6537 29H42.6857L41.2137 24.152L39.7417 29H37.7737L35.2297 21H37.4217L38.7817 25.912L40.2377 21H42.1897L43.6457 25.928ZM57.0862 21V22.984H55.2782V26.312C55.2782 26.5893 55.3475 26.792 55.4862 26.92C55.6249 27.048 55.8275 27.1227 56.0942 27.144C56.3609 27.1547 56.6915 27.1493 57.0862 27.128V29C55.6889 29.16 54.6915 29.032 54.0942 28.616C53.5075 28.1893 53.2142 27.4213 53.2142 26.312V22.984H51.8222V21H53.2142V19.384L55.2782 18.76V21H57.0862ZM60.8304 21V22.376C61.0118 21.8747 61.3211 21.496 61.7584 21.24C62.1958 20.9733 62.6971 20.84 63.2624 20.84V23.144C62.6331 23.0587 62.0678 23.1867 61.5664 23.528C61.0758 23.8587 60.8304 24.408 60.8304 25.176V29H58.7664V21H60.8304ZM70.3527 21.944V21H72.4167V29H70.3527V28.056C69.734 28.8347 68.8647 29.224 67.7447 29.224C66.678 29.224 65.7607 28.8187 64.9927 28.008C64.2354 27.1867 63.8567 26.184 63.8567 25C63.8567 23.8267 64.2354 22.8293 64.9927 22.008C65.7607 21.1867 66.678 20.776 67.7447 20.776C68.8647 20.776 69.734 21.1653 70.3527 21.944ZM66.5447 26.632C66.9607 27.048 67.4887 27.256 68.1287 27.256C68.7687 27.256 69.2967 27.048 69.7127 26.632C70.1394 26.2053 70.3527 25.6613 70.3527 25C70.3527 24.3387 70.1394 23.8 69.7127 23.384C69.2967 22.9573 68.7687 22.744 68.1287 22.744C67.4887 22.744 66.9607 22.9573 66.5447 23.384C66.1287 23.8 65.9207 24.3387 65.9207 25C65.9207 25.6613 66.1287 26.2053 66.5447 26.632ZM80.4523 21.944V17.8H82.5163V29H80.4523V28.056C79.8443 28.8347 78.9803 29.224 77.8603 29.224C76.783 29.224 75.8603 28.8187 75.0923 28.008C74.335 27.1867 73.9563 26.184 73.9563 25C73.9563 23.8267 74.335 22.8293 75.0923 22.008C75.8603 21.1867 76.783 20.776 77.8603 20.776C78.9803 20.776 79.8443 21.1653 80.4523 21.944ZM76.6443 26.632C77.0817 27.048 77.615 27.256 78.2443 27.256C78.8843 27.256 79.4123 27.048 79.8283 26.632C80.2443 26.2053 80.4523 25.6613 80.4523 25C80.4523 24.3387 80.2443 23.8 79.8283 23.384C79.4123 22.9573 78.8843 22.744 78.2443 22.744C77.6043 22.744 77.071 22.9573 76.6443 23.384C76.2283 23.8 76.0203 24.3387 76.0203 25C76.0203 25.6613 76.2283 26.2053 76.6443 26.632ZM92.28 25.848H86.248C86.5146 26.8507 87.2666 27.352 88.504 27.352C89.2933 27.352 89.8906 27.0853 90.296 26.552L91.96 27.512C91.1706 28.6533 90.008 29.224 88.472 29.224C87.1493 29.224 86.088 28.824 85.288 28.024C84.488 27.224 84.088 26.216 84.088 25C84.088 23.8053 84.4826 22.8027 85.272 21.992C86.0506 21.1813 87.064 20.776 88.312 20.776C89.496 20.776 90.4613 21.1813 91.208 21.992C91.976 22.8027 92.36 23.8053 92.36 25C92.36 25.224 92.3333 25.5067 92.28 25.848ZM86.216 24.248H90.296C90.1786 23.7253 89.9386 23.3253 89.576 23.048C89.224 22.7707 88.8026 22.632 88.312 22.632C87.7573 22.632 87.2986 22.776 86.936 23.064C86.5733 23.3413 86.3333 23.736 86.216 24.248Z" fill="url(#paint1_linear_725_82654)"/>
<defs>
<linearGradient id="paint0_linear_725_82654" x1="1" y1="1" x2="50.0247" y2="-51.3848" gradientUnits="userSpaceOnUse">
<stop stop-color="#2680EB"/>
<stop offset="1" stop-color="#7FFFD4"/>
</linearGradient>
<linearGradient id="paint1_linear_725_82654" x1="97.5151" y1="8" x2="59.1001" y2="51.1883" gradientUnits="userSpaceOnUse">
<stop stop-color="#63B49B"/>
<stop offset="1" stop-color="#A4EBD4"/>
</linearGradient>
</defs>
</svg>
