<svg xmlns="http://www.w3.org/2000/svg" width="21" height="21" viewBox="0 0 21 21">
  <g id="Group_11878" data-name="Group 11878" transform="translate(-207 -612)">
    <path id="Polygon_54" data-name="Polygon 54" d="M3,0l.84,2.1L6,2.292,4.359,3.781,4.854,6,3,4.819,1.146,6l.495-2.219L0,2.292,2.16,2.1Z" transform="translate(207 612)" fill="#fff"/>
    <path id="Polygon_55" data-name="Polygon 55" d="M3,0l.84,2.1L6,2.292,4.359,3.781,4.854,6,3,4.819,1.146,6l.495-2.219L0,2.292,2.16,2.1Z" transform="translate(207 619.5)" fill="#fff"/>
    <path id="Polygon_56" data-name="Polygon 56" d="M3,0l.84,2.1L6,2.292,4.359,3.781,4.854,6,3,4.819,1.146,6l.495-2.219L0,2.292,2.16,2.1Z" transform="translate(207 627)" fill="#fff"/>
    <rect id="Rectangle_6245" data-name="Rectangle 6245" width="14" height="1" rx="0.5" transform="translate(214 615)" fill="#fff"/>
    <rect id="Rectangle_6246" data-name="Rectangle 6246" width="14" height="1" rx="0.5" transform="translate(214 622.5)" fill="#fff"/>
    <rect id="Rectangle_6247" data-name="Rectangle 6247" width="14" height="1" rx="0.5" transform="translate(214 630)" fill="#fff"/>
  </g>
</svg>
