<svg xmlns="http://www.w3.org/2000/svg" width="12" height="16.166" viewBox="0 0 12 16.166">
  <path id="Path_16581" data-name="Path 16581" d="M11.924,16.494a.5.5,0,0,0,.152-.988ZM8.539,2.13a.5.5,0,0,0-.353-.612L3.839.351a.5.5,0,0,0-.259.966L7.444,2.353,6.407,6.217a.5.5,0,1,0,.966.259Zm3.537,13.376c-4.43-.681-7.2-1.664-8.783-2.764a4.359,4.359,0,0,1-1.53-1.66,2.755,2.755,0,0,1-.215-1.7A7.5,7.5,0,0,1,3.937,5.649,23.024,23.024,0,0,1,8.306,2.433l-.5-.866A24.016,24.016,0,0,0,3.242,4.93,8.452,8.452,0,0,0,.563,9.208a3.754,3.754,0,0,0,.3,2.3,5.345,5.345,0,0,0,1.864,2.053c1.776,1.231,4.722,2.242,9.2,2.931Z" transform="translate(-0.5 -0.334)" fill="#767676"/>
</svg>
