<svg xmlns="http://www.w3.org/2000/svg" width="87.106" height="68.384" viewBox="0 0 87.106 68.384">
  <path id="Path_16578" data-name="Path 16578" d="M63.274,68.163a.556.556,0,0,0-.22.721.484.484,0,0,0,.672.236ZM.7,3.807a.563.563,0,0,0-.1.752l2.705,3.86a.478.478,0,0,0,.7.106.563.563,0,0,0,.1-.752L1.7,4.342,4.9,1.76A.563.563,0,0,0,5,1.009.478.478,0,0,0,4.3.9ZM63.726,69.121c7.924-4.307,13.657-8.45,17.515-12.428s5.873-7.825,6.285-11.536a14.51,14.51,0,0,0-3.2-10.437,37.56,37.56,0,0,0-10.438-8.944C56.168,14.807,24.658,7.283,1.07,3.7L.93,4.767C24.509,8.344,55.849,15.849,73.388,26.706a36.571,36.571,0,0,1,10.156,8.685,13.391,13.391,0,0,1,2.989,9.639c-.376,3.378-2.225,7.011-5.985,10.889s-9.4,7.964-17.274,12.244Z" transform="translate(-0.5 -0.795)" fill="#767676"/>
</svg>
