<svg width="131" height="49" viewBox="0 0 131 49" fill="none" xmlns="http://www.w3.org/2000/svg">
<g>
<path fill-rule="evenodd" clip-rule="evenodd" d="M4.87195 4.36808C4 6.07937 4 8.31958 4 12.8V23.2C4 27.6804 4 29.9206 4.87195 31.6319C5.63893 33.1372 6.86278 34.3611 8.36808 35.1281C9.66299 35.7878 11.2607 35.9484 13.9028 35.9874L17.6569 40.2791C18.4538 41.1901 19.8708 41.1901 20.6676 40.2791L24.4107 36H113.665C118.145 36 120.385 36 122.096 35.1281C123.602 34.3611 124.826 33.1372 125.593 31.6319C126.465 29.9206 126.465 27.6804 126.465 23.2V12.8C126.465 8.31958 126.465 6.07937 125.593 4.36808C124.826 2.86278 123.602 1.63893 122.096 0.871948C120.385 0 118.145 0 113.665 0H16.8C12.3196 0 10.0794 0 8.36808 0.871948C6.86278 1.63893 5.63893 2.86278 4.87195 4.36808Z" fill="#2B313E"/>
<ellipse cx="14.8792" cy="19" rx="3.26374" ry="3" fill="#9AE2CB"/>
<path d="M34.5269 13.2V13.9H29.8369V17.82H34.3589V18.52H29.8369V23H29.0949V13.2H34.5269ZM37.5274 18.408V22.3H42.4274V23H36.7854V13.2H42.3574V13.9H37.5274V17.708H42.0074V18.408H37.5274ZM49.9167 17.918C50.43 18.114 50.836 18.4267 51.1347 18.856C51.4427 19.2853 51.5967 19.7753 51.5967 20.326C51.5967 21.0633 51.3354 21.6933 50.8127 22.216C50.29 22.7387 49.66 23 48.9227 23H44.6947V13.2H48.6007C49.31 13.2 49.9167 13.452 50.4207 13.956C50.9247 14.46 51.1767 15.0667 51.1767 15.776C51.1767 16.2427 51.0647 16.6673 50.8407 17.05C50.6167 17.4233 50.3087 17.7127 49.9167 17.918ZM48.6007 13.9H45.4367V17.652H48.6007C49.1047 17.652 49.534 17.47 49.8887 17.106C50.2527 16.7233 50.4347 16.28 50.4347 15.776C50.4347 15.2627 50.2527 14.824 49.8887 14.46C49.5434 14.0867 49.114 13.9 48.6007 13.9ZM45.4367 22.3H48.9227C49.4454 22.3 49.898 22.1087 50.2807 21.726C50.6634 21.3247 50.8547 20.858 50.8547 20.326C50.8547 19.7847 50.6634 19.3227 50.2807 18.94C49.9074 18.548 49.4547 18.352 48.9227 18.352H45.4367V22.3Z" fill="#EEECF1"/>
<path d="M60.9842 17.512H63.4202V18.674H60.9842V21.11H59.8222V18.674H57.4002V17.512H59.8222V15.09H60.9842V17.512ZM64.8576 14.096L67.4336 13.2H68.5536V23H67.2656V14.6L65.1796 15.216L64.8576 14.096ZM76.7323 19.92H77.9223V21.138H76.7323V23H75.4303V21.138H70.4323V19.92L73.9463 13.2H75.3463L71.8323 19.92H75.4303V17.148H76.7323V19.92ZM85.2138 14.348L83.0858 17.218C83.8511 17.358 84.4671 17.6847 84.9338 18.198C85.4005 18.7113 85.6338 19.346 85.6338 20.102C85.6338 21.0633 85.3071 21.8147 84.6538 22.356C83.9911 22.9067 83.1978 23.182 82.2738 23.182C81.5085 23.182 80.8411 23.0093 80.2718 22.664C79.7025 22.3187 79.2965 21.8287 79.0538 21.194L80.1458 20.55C80.4351 21.4553 81.1445 21.908 82.2738 21.908C82.8898 21.908 83.3845 21.7493 83.7578 21.432C84.1405 21.1053 84.3318 20.662 84.3318 20.102C84.3318 19.542 84.1405 19.0987 83.7578 18.772C83.3845 18.4453 82.8898 18.282 82.2738 18.282H81.9378L81.4198 17.484L83.6878 14.418H79.3338V13.2H85.2138V14.348ZM88.019 23.154C87.767 23.154 87.5523 23.0653 87.375 22.888C87.1977 22.7107 87.109 22.496 87.109 22.244C87.109 21.992 87.1977 21.7773 87.375 21.6C87.5523 21.4227 87.767 21.334 88.019 21.334C88.2803 21.334 88.495 21.4227 88.663 21.6C88.8403 21.7773 88.929 21.992 88.929 22.244C88.929 22.496 88.8403 22.7107 88.663 22.888C88.495 23.0653 88.2803 23.154 88.019 23.154ZM97.0057 23H90.6777V21.936L94.1357 18.408C95.0597 17.484 95.5217 16.6907 95.5217 16.028C95.5217 15.4867 95.3537 15.062 95.0177 14.754C94.6911 14.4367 94.2804 14.278 93.7857 14.278C92.8617 14.278 92.1897 14.7167 91.7697 15.594L90.6777 14.95C90.9764 14.3247 91.3964 13.8487 91.9377 13.522C92.4791 13.186 93.0904 13.018 93.7717 13.018C94.6024 13.018 95.3164 13.2887 95.9137 13.83C96.5204 14.3807 96.8237 15.1087 96.8237 16.014C96.8237 17.0033 96.2404 18.0813 95.0737 19.248L92.5677 21.74H97.0057V23ZM104.416 14.348L102.288 17.218C103.054 17.358 103.67 17.6847 104.136 18.198C104.603 18.7113 104.836 19.346 104.836 20.102C104.836 21.0633 104.51 21.8147 103.856 22.356C103.194 22.9067 102.4 23.182 101.476 23.182C100.711 23.182 100.044 23.0093 99.4743 22.664C98.9049 22.3187 98.4989 21.8287 98.2563 21.194L99.3483 20.55C99.6376 21.4553 100.347 21.908 101.476 21.908C102.092 21.908 102.587 21.7493 102.96 21.432C103.343 21.1053 103.534 20.662 103.534 20.102C103.534 19.542 103.343 19.0987 102.96 18.772C102.587 18.4453 102.092 18.282 101.476 18.282H101.14L100.622 17.484L102.89 14.418H98.5363V13.2H104.416V14.348ZM108.359 17.358C107.724 17.358 107.197 17.148 106.777 16.728C106.357 16.308 106.147 15.7947 106.147 15.188C106.147 14.5907 106.357 14.082 106.777 13.662C107.206 13.2327 107.734 13.018 108.359 13.018C108.994 13.018 109.521 13.228 109.941 13.648C110.361 14.068 110.571 14.5813 110.571 15.188C110.571 15.7947 110.361 16.308 109.941 16.728C109.53 17.148 109.003 17.358 108.359 17.358ZM107.239 15.188C107.239 15.5147 107.342 15.79 107.547 16.014C107.762 16.2287 108.032 16.336 108.359 16.336C108.686 16.336 108.952 16.224 109.157 16C109.372 15.776 109.479 15.5053 109.479 15.188C109.479 14.8707 109.372 14.6047 109.157 14.39C108.952 14.166 108.686 14.054 108.359 14.054C108.032 14.054 107.762 14.166 107.547 14.39C107.342 14.6047 107.239 14.8707 107.239 15.188ZM107.477 22.006L106.805 21.614L113.315 14.334L114.001 14.712L107.477 22.006ZM114.799 20.998C114.799 21.6047 114.589 22.118 114.169 22.538C113.749 22.958 113.222 23.168 112.587 23.168C111.952 23.168 111.425 22.958 111.005 22.538C110.585 22.118 110.375 21.6047 110.375 20.998C110.375 20.3913 110.585 19.878 111.005 19.458C111.425 19.038 111.952 18.828 112.587 18.828C113.222 18.828 113.749 19.038 114.169 19.458C114.589 19.878 114.799 20.3913 114.799 20.998ZM111.775 21.81C111.99 22.0247 112.26 22.132 112.587 22.132C112.904 22.132 113.17 22.0247 113.385 21.81C113.6 21.586 113.707 21.3153 113.707 20.998C113.707 20.6807 113.6 20.4147 113.385 20.2C113.18 19.976 112.914 19.864 112.587 19.864C112.26 19.864 111.99 19.976 111.775 20.2C111.57 20.4147 111.467 20.6807 111.467 20.998C111.467 21.3153 111.57 21.586 111.775 21.81Z" fill="url(#paint0_linear_1059_79926)"/>
</g>
<defs>
<filter id="filter0_d_1059_79926" x="0" y="0" width="130.465" height="48.9623" filterUnits="userSpaceOnUse" color-interpolation-filters="sRGB">
<feFlood flood-opacity="0" result="BackgroundImageFix"/>
<feColorMatrix in="SourceAlpha" type="matrix" values="0 0 0 0 0 0 0 0 0 0 0 0 0 0 0 0 0 0 127 0" result="hardAlpha"/>
<feOffset dy="4"/>
<feGaussianBlur stdDeviation="2"/>
<feComposite in2="hardAlpha" operator="out"/>
<feColorMatrix type="matrix" values="0 0 0 0 0 0 0 0 0 0 0 0 0 0 0 0 0 0 0.25 0"/>
<feBlend mode="normal" in2="BackgroundImageFix" result="effect1_dropShadow_1059_79926"/>
<feBlend mode="normal" in="SourceGraphic" in2="effect1_dropShadow_1059_79926" result="shape"/>
</filter>
<linearGradient id="paint0_linear_1059_79926" x1="122.308" y1="4" x2="92.8691" y2="49.9548" gradientUnits="userSpaceOnUse">
<stop stop-color="#63B49B"/>
<stop offset="1" stop-color="#A4EBD4"/>
</linearGradient>
</defs>
</svg>
