<svg xmlns="http://www.w3.org/2000/svg" width="64.936" height="60.272" viewBox="0 0 64.936 60.272">
  <g id="metamask-fox" transform="translate(-31.3 -35)">
    <path id="Path_7917" data-name="Path 7917" d="M199.548,35.5,174.6,54.029,179.213,43.1Z" transform="translate(-106.996)" fill="#e2761b" stroke="#e2761b" stroke-linecap="round" stroke-linejoin="round" stroke-width="1"/>
    <g id="Group_8422" data-name="Group 8422" transform="translate(32.327 35.5)">
      <path id="Path_7918" data-name="Path 7918" d="M44.4,35.5,69.147,54.2,64.759,43.1Z" transform="translate(-41.767 -35.5)" fill="#e4761b" stroke="#e4761b" stroke-linecap="round" stroke-linejoin="round" stroke-width="1"/>
      <path id="Path_7919" data-name="Path 7919" d="M218.444,206.8,211.8,216.98l14.216,3.911,4.087-13.865Z" transform="translate(-167.195 -163.85)" fill="#e4761b" stroke="#e4761b" stroke-linecap="round" stroke-linejoin="round" stroke-width="1"/>
      <path id="Path_7920" data-name="Path 7920" d="M33.9,207.026l4.062,13.865,14.216-3.911L45.534,206.8Z" transform="translate(-33.9 -163.85)" fill="#e4761b" stroke="#e4761b" stroke-linecap="round" stroke-linejoin="round" stroke-width="1"/>
      <path id="Path_7921" data-name="Path 7921" d="M91.762,112.65,87.8,118.642l14.116.627-.5-15.169Z" transform="translate(-74.286 -86.9)" fill="#e4761b" stroke="#e4761b" stroke-linecap="round" stroke-linejoin="round" stroke-width="1"/>
      <path id="Path_7922" data-name="Path 7922" d="M184.7,112.125l-9.778-8.725-.326,15.345,14.091-.627Z" transform="translate(-139.322 -86.376)" fill="#e4761b" stroke="#e4761b" stroke-linecap="round" stroke-linejoin="round" stroke-width="1"/>
      <path id="Path_7923" data-name="Path 7923" d="M106.8,217.954l8.475-4.137-7.321-5.717Z" transform="translate(-88.522 -164.824)" fill="#e4761b" stroke="#e4761b" stroke-linecap="round" stroke-linejoin="round" stroke-width="1"/>
      <path id="Path_7924" data-name="Path 7924" d="M177.9,213.817l8.5,4.137-1.178-9.854Z" transform="translate(-141.795 -164.824)" fill="#e4761b" stroke="#e4761b" stroke-linecap="round" stroke-linejoin="round" stroke-width="1"/>
    </g>
    <g id="Group_8423" data-name="Group 8423" transform="translate(50.605 84.492)">
      <path id="Path_7925" data-name="Path 7925" d="M186.4,235.037l-8.5-4.137.677,5.541-.075,2.332Z" transform="translate(-160.073 -230.9)" fill="#d7c1b3" stroke="#d7c1b3" stroke-linecap="round" stroke-linejoin="round" stroke-width="1"/>
      <path id="Path_7926" data-name="Path 7926" d="M106.8,235.037l7.9,3.736-.05-2.332.627-5.541Z" transform="translate(-106.8 -230.9)" fill="#d7c1b3" stroke="#d7c1b3" stroke-linecap="round" stroke-linejoin="round" stroke-width="1"/>
    </g>
    <path id="Path_7927" data-name="Path 7927" d="M117.671,180.463l-7.071-2.081,4.989-2.282Z" transform="translate(-59.043 -105.348)" fill="#233447" stroke="#233447" stroke-linecap="round" stroke-linejoin="round" stroke-width="1"/>
    <path id="Path_7928" data-name="Path 7928" d="M179.7,180.463l2.081-4.363,5.015,2.282Z" transform="translate(-110.817 -105.348)" fill="#233447" stroke="#233447" stroke-linecap="round" stroke-linejoin="round" stroke-width="1"/>
    <g id="Group_8424" data-name="Group 8424" transform="translate(43.96 67.242)">
      <path id="Path_7929" data-name="Path 7929" d="M86.944,216.98l1.2-10.18-7.848.226Z" transform="translate(-80.3 -195.592)" fill="#cd6116" stroke="#cd6116" stroke-linecap="round" stroke-linejoin="round" stroke-width="1"/>
      <path id="Path_7930" data-name="Path 7930" d="M207,206.8l1.2,10.18,6.644-9.954Z" transform="translate(-175.233 -195.592)" fill="#cd6116" stroke="#cd6116" stroke-linecap="round" stroke-linejoin="round" stroke-width="1"/>
      <path id="Path_7931" data-name="Path 7931" d="M188.691,162.1l-14.091.627,1.3,7.246,2.081-4.363L183,167.892Z" transform="translate(-150.956 -162.1)" fill="#cd6116" stroke="#cd6116" stroke-linecap="round" stroke-linejoin="round" stroke-width="1"/>
      <path id="Path_7932" data-name="Path 7932" d="M93.517,167.892l5.015-2.282,2.056,4.363,1.329-7.246L87.8,162.1Z" transform="translate(-85.92 -162.1)" fill="#cd6116" stroke="#cd6116" stroke-linecap="round" stroke-linejoin="round" stroke-width="1"/>
    </g>
    <g id="Group_8425" data-name="Group 8425" transform="translate(45.841 67.242)">
      <path id="Path_7933" data-name="Path 7933" d="M87.8,162.1l5.917,11.534-.2-5.742Z" transform="translate(-87.8 -162.1)" fill="#e4751f" stroke="#e4751f" stroke-linecap="round" stroke-linejoin="round" stroke-width="1"/>
      <path id="Path_7934" data-name="Path 7934" d="M207.351,167.892l-.251,5.742,5.942-11.534Z" transform="translate(-177.188 -162.1)" fill="#e4751f" stroke="#e4751f" stroke-linecap="round" stroke-linejoin="round" stroke-width="1"/>
      <path id="Path_7935" data-name="Path 7935" d="M140.129,164.6l-1.329,7.246,1.655,8.55.376-11.258Z" transform="translate(-126.013 -163.973)" fill="#e4751f" stroke="#e4751f" stroke-linecap="round" stroke-linejoin="round" stroke-width="1"/>
      <path id="Path_7936" data-name="Path 7936" d="M172.577,164.6l-.677,4.513.3,11.283,1.68-8.55Z" transform="translate(-150.814 -163.973)" fill="#e4751f" stroke="#e4751f" stroke-linecap="round" stroke-linejoin="round" stroke-width="1"/>
    </g>
    <path id="Path_7937" data-name="Path 7937" d="M174.78,187.281l-1.68,8.55,1.2.827,7.321-5.717.251-5.742Z" transform="translate(-105.872 -112.166)" fill="#f6851b" stroke="#f6851b" stroke-linecap="round" stroke-linejoin="round" stroke-width="1"/>
    <path id="Path_7938" data-name="Path 7938" d="M110.6,185.2l.2,5.742,7.321,5.717,1.2-.827-1.655-8.55Z" transform="translate(-59.043 -112.166)" fill="#f6851b" stroke="#f6851b" stroke-linecap="round" stroke-linejoin="round" stroke-width="1"/>
    <path id="Path_7939" data-name="Path 7939" d="M125.229,251.136l.075-2.332-.627-.552h-9.452l-.577.552.05,2.332-7.9-3.736,2.758,2.257,5.591,3.886h9.6l5.616-3.886,2.758-2.257Z" transform="translate(-56.195 -158.771)" fill="#c0ad9e" stroke="#c0ad9e" stroke-linecap="round" stroke-linejoin="round" stroke-width="1"/>
    <path id="Path_7940" data-name="Path 7940" d="M148.079,228.427l-1.2-.827H139.93l-1.2.827-.627,5.541.577-.552h9.452l.627.552Z" transform="translate(-79.648 -143.935)" fill="#161616" stroke="#161616" stroke-linecap="round" stroke-linejoin="round" stroke-width="1"/>
    <g id="Group_8426" data-name="Group 8426" transform="translate(31.8 35.5)">
      <path id="Path_7941" data-name="Path 7941" d="M203.073,55.232,205.2,45l-3.184-9.5L177.9,53.4l9.277,7.848,13.113,3.836L203.2,61.7l-1.254-.9,2.006-1.83-1.555-1.2,2.006-1.529Z" transform="translate(-141.269 -35.5)" fill="#763d16" stroke="#763d16" stroke-linecap="round" stroke-linejoin="round" stroke-width="1"/>
      <path id="Path_7942" data-name="Path 7942" d="M31.8,45l2.131,10.23-1.354,1,2.006,1.529-1.529,1.2,2.006,1.83-1.254.9,2.883,3.385L49.8,61.25,59.079,53.4,34.959,35.5Z" transform="translate(-31.8 -35.5)" fill="#763d16" stroke="#763d16" stroke-linecap="round" stroke-linejoin="round" stroke-width="1"/>
    </g>
    <path id="Path_7943" data-name="Path 7943" d="M222.169,142.036,209.056,138.2l3.987,5.992L207.1,155.726l7.823-.1h11.659Z" transform="translate(-131.347 -76.95)" fill="#f6851b" stroke="#f6851b" stroke-linecap="round" stroke-linejoin="round" stroke-width="1"/>
    <path id="Path_7944" data-name="Path 7944" d="M51.376,138.2l-13.113,3.836L33.9,155.626H45.534l7.8.1-5.917-11.534Z" transform="translate(-1.573 -76.95)" fill="#f6851b" stroke="#f6851b" stroke-linecap="round" stroke-linejoin="round" stroke-width="1"/>
    <path id="Path_7945" data-name="Path 7945" d="M137.886,90.572l.827-14.467,3.811-10.3H125.6l3.761,10.3.878,14.467.3,4.563.025,11.233h6.945l.05-11.233Z" transform="translate(-70.282 -22.703)" fill="#f6851b" stroke="#f6851b" stroke-linecap="round" stroke-linejoin="round" stroke-width="1"/>
  </g>
</svg>
