<svg xmlns="http://www.w3.org/2000/svg" width="70" height="42.903" viewBox="0 0 70 42.903">
  <path id="WalletConnect" d="M14.368,8.723a29.675,29.675,0,0,1,41.339,0l1.374,1.345a1.41,1.41,0,0,1,0,2.024l-4.7,4.6a.742.742,0,0,1-1.033,0l-1.891-1.851a20.7,20.7,0,0,0-28.839,0l-2.025,1.982a.742.742,0,0,1-1.033,0l-4.7-4.6a1.41,1.41,0,0,1,0-2.024Zm51.059,9.516,4.183,4.1a1.41,1.41,0,0,1,0,2.024L50.749,42.824a1.484,1.484,0,0,1-2.067,0h0L35.3,29.718a.371.371,0,0,0-.517,0h0L21.394,42.824a1.484,1.484,0,0,1-2.067,0h0L.466,24.358a1.41,1.41,0,0,1,0-2.024l4.183-4.1a1.484,1.484,0,0,1,2.067,0L20.1,31.345a.371.371,0,0,0,.517,0h0L34,18.239a1.484,1.484,0,0,1,2.067,0h0L49.457,31.345a.371.371,0,0,0,.517,0L63.36,18.239A1.484,1.484,0,0,1,65.427,18.239Z" transform="translate(-0.038 -0.34)" fill="#3b99fc"/>
</svg>
