<svg xmlns="http://www.w3.org/2000/svg" xmlns:xlink="http://www.w3.org/1999/xlink" width="40" height="40" viewBox="0 0 40 40">
  <defs>
    <clipPath id="clip-path">
      <rect id="Rectangle_6135" data-name="Rectangle 6135" width="40" height="40" transform="translate(281 388)" fill="#fff"/>
    </clipPath>
  </defs>
  <g id="AffiliateProgramIcon" transform="translate(-280 -388)">
    <g id="AffiliateProgramIcon-2" data-name="AffiliateProgramIcon" transform="translate(-1)" clip-path="url(#clip-path)">
      <g id="Group_11770" data-name="Group 11770" transform="translate(-72 108)">
        <g id="Group_11354" data-name="Group 11354" transform="translate(360.404 280)">
          <g id="Group_11353" data-name="Group 11353" transform="translate(0 0)">
            <path id="Exclusion_9" data-name="Exclusion 9" d="M12.807,25.615A12.807,12.807,0,0,1,3.751,3.751,12.753,12.753,0,0,1,19.02,1.628a13.429,13.429,0,0,1,4.44,4.066,12.528,12.528,0,0,1,2.156,7.113A12.807,12.807,0,0,1,12.807,25.615ZM8.913,12.875a5.475,5.475,0,0,0-5.234,5.463v1.7a1.769,1.769,0,0,0,.915,1.386A3.292,3.292,0,0,0,6.32,22a15.944,15.944,0,0,0,6.5,1.789A14.579,14.579,0,0,0,19.113,22c1.1,0,2.857-.9,2.857-1.96v-1.7a5.475,5.475,0,0,0-5.234-5.463l-1.951,7.815-1.307-5.553,1.307-2.286h-3.92l1.307,2.286-1.307,5.553ZM12.824,1.091A5.226,5.226,0,1,0,18.05,6.317,5.232,5.232,0,0,0,12.824,1.091Z" transform="translate(0 0)" fill="#fff"/>
          </g>
        </g>
        <g id="Group_11356" data-name="Group 11356" transform="translate(354 305.594)">
          <g id="Group_11353-2" data-name="Group 11353" transform="translate(0 0)">
            <path id="Exclusion_9-2" data-name="Exclusion 9" d="M5.6,11.207A5.6,5.6,0,0,1,1.642,1.642,5.577,5.577,0,0,1,8.321.713a5.877,5.877,0,0,1,1.943,1.778A5.487,5.487,0,0,1,11.207,5.6a5.6,5.6,0,0,1-5.6,5.6ZM3.9,5.633a2.4,2.4,0,0,0-2.29,2.39v.743c0,.489.7.858,1.156.858a7.025,7.025,0,0,0,2.846.783,6.381,6.381,0,0,0,2.752-.783c.482,0,1.249-.393,1.249-.858V8.023a2.394,2.394,0,0,0-2.29-2.39L6.468,9.052,5.9,6.622l.572-1H4.753l.572,1-.572,2.43ZM5.611.477A2.287,2.287,0,1,0,7.9,2.764,2.289,2.289,0,0,0,5.611.477Z" transform="translate(0 0)" fill="#fff"/>
          </g>
        </g>
        <g id="Group_11357" data-name="Group 11357" transform="translate(367.608 308.793)">
          <g id="Group_11353-3" data-name="Group 11353" transform="translate(0 0)">
            <path id="Exclusion_9-3" data-name="Exclusion 9" d="M5.6,11.207A5.6,5.6,0,0,1,1.642,1.642,5.577,5.577,0,0,1,8.321.713a5.877,5.877,0,0,1,1.943,1.778A5.487,5.487,0,0,1,11.207,5.6a5.6,5.6,0,0,1-5.6,5.6ZM3.9,5.633a2.4,2.4,0,0,0-2.29,2.39v.743c0,.489.7.858,1.156.858a7.025,7.025,0,0,0,2.846.783,6.381,6.381,0,0,0,2.752-.783c.482,0,1.249-.393,1.249-.858V8.023a2.394,2.394,0,0,0-2.29-2.39L6.468,9.052,5.9,6.622l.572-1H4.753l.572,1-.572,2.43ZM5.611.477A2.287,2.287,0,1,0,7.9,2.764,2.289,2.289,0,0,0,5.611.477Z" transform="translate(0 0)" fill="#fff"/>
          </g>
        </g>
        <g id="Group_11358" data-name="Group 11358" transform="translate(381.193 305.594)">
          <g id="Group_11353-4" data-name="Group 11353" transform="translate(0 0)">
            <path id="Exclusion_9-4" data-name="Exclusion 9" d="M5.6,11.207A5.6,5.6,0,0,1,1.642,1.642,5.577,5.577,0,0,1,8.321.713a5.877,5.877,0,0,1,1.943,1.778A5.487,5.487,0,0,1,11.207,5.6a5.6,5.6,0,0,1-5.6,5.6ZM3.9,5.633a2.4,2.4,0,0,0-2.29,2.39v.743c0,.489.7.858,1.156.858a7.025,7.025,0,0,0,2.846.783,6.381,6.381,0,0,0,2.752-.783c.482,0,1.249-.393,1.249-.858V8.023a2.394,2.394,0,0,0-2.29-2.39L6.468,9.052,5.9,6.622l.572-1H4.753l.572,1-.572,2.43ZM5.611.477A2.287,2.287,0,1,0,7.9,2.764,2.289,2.289,0,0,0,5.611.477Z" transform="translate(0 0)" fill="#fff"/>
          </g>
        </g>
      </g>
    </g>
  </g>
</svg>
