<svg xmlns="http://www.w3.org/2000/svg" width="83.44" height="38.501" viewBox="0 0 83.44 38.501">
  <g id="DexeInvestments" transform="translate(-78.5 -29.464)">
    <path id="Path_6308" data-name="Path 6308" d="M-45.944-33.6a11.172,11.172,0,0,1,8.423,3.537,12.14,12.14,0,0,1,3.38,8.72,12.14,12.14,0,0,1-3.38,8.72,12.229,12.229,0,0,1-1.935,1.64l-4.494,1.749a12.341,12.341,0,0,1-1.994.148H-55.68V-33.6Zm1.994,24.367,4.494-1.749-2.38-3.916a6.232,6.232,0,0,0,1.075-.929,7.717,7.717,0,0,0,2-5.516,7.717,7.717,0,0,0-2-5.516,6.8,6.8,0,0,0-5.183-2.119h-4.9v15.269H-46.6ZM-27.1-15.984q.911,3.292,4.938,3.292a4.62,4.62,0,0,0,3.922-1.751l3.642,2.1a8.686,8.686,0,0,1-7.635,3.747A9.42,9.42,0,0,1-29.2-11.221a8.974,8.974,0,0,1-2.627-6.619,9.053,9.053,0,0,1,2.592-6.6,8.913,8.913,0,0,1,6.654-2.644,8.349,8.349,0,0,1,6.356,2.662,9.242,9.242,0,0,1,2.5,6.584,10.577,10.577,0,0,1-.175,1.856Zm-.07-3.5h8.93a4.233,4.233,0,0,0-1.593-2.662,4.567,4.567,0,0,0-2.749-.876A4.752,4.752,0,0,0-25.6-22.1,4.435,4.435,0,0,0-27.173-19.486ZM8.3-9.085h-5.5L-1.958-17.07-6.72-9.085h-5.463l7.495-12.573L-11.8-33.6h5.463l4.378,7.354L2.42-33.6H7.883L.774-21.693Zm5.078-6.9q.911,3.292,4.938,3.292a4.62,4.62,0,0,0,3.922-1.751l3.642,2.1A8.686,8.686,0,0,1,18.25-8.595a9.42,9.42,0,0,1-6.969-2.627A8.974,8.974,0,0,1,8.654-17.84a9.053,9.053,0,0,1,2.592-6.6A8.913,8.913,0,0,1,17.9-27.086a8.349,8.349,0,0,1,6.356,2.662,9.242,9.242,0,0,1,2.5,6.584,10.577,10.577,0,0,1-.175,1.856Zm-.07-3.5h8.93a4.233,4.233,0,0,0-1.593-2.662,4.567,4.567,0,0,0-2.749-.876,4.752,4.752,0,0,0-3.012.928A4.435,4.435,0,0,0,13.312-19.486Z" transform="translate(134.68 63.564)" fill="#fff" stroke="rgba(0,0,0,0)" stroke-width="1"/>
    <path id="Path_10244" data-name="Path 10244" d="M3.68-32.2H4.8v11.214H3.68Zm7.674,3.012a3.013,3.013,0,0,1,2.3.889,3.343,3.343,0,0,1,.841,2.395v4.918H13.436V-25.9a2.309,2.309,0,0,0-.569-1.666,2.126,2.126,0,0,0-1.61-.593,2.52,2.52,0,0,0-1.874.729,3.089,3.089,0,0,0-.721,2.251v4.2H7.6V-29H8.662v1.25A2.962,2.962,0,0,1,11.354-29.188ZM22.632-29h1.121l-3.284,8.01H19.187L15.9-29h1.121l2.8,6.9Zm6.184-.192a3.633,3.633,0,0,1,2.876,1.258,4.373,4.373,0,0,1,1.1,2.972q0,.176-.032.5H25.723a2.873,2.873,0,0,0,1.033,1.93,3.3,3.3,0,0,0,2.155.713,3.151,3.151,0,0,0,1.578-.376,2.54,2.54,0,0,0,1-.985l.929.545a3.8,3.8,0,0,1-1.442,1.346,4.288,4.288,0,0,1-2.083.5,4.161,4.161,0,0,1-3.076-1.185,4.08,4.08,0,0,1-1.185-3.012,4.124,4.124,0,0,1,1.169-3A4.018,4.018,0,0,1,28.815-29.188Zm0,1.025a3.038,3.038,0,0,0-2.091.745,3.029,3.029,0,0,0-1,1.93H31.7a2.986,2.986,0,0,0-.977-1.97A2.828,2.828,0,0,0,28.815-28.163ZM35.383-26.9a.991.991,0,0,0,.481.865,3.786,3.786,0,0,0,1.169.5q.689.176,1.378.392a2.7,2.7,0,0,1,1.169.721,1.837,1.837,0,0,1,.481,1.322,2.027,2.027,0,0,1-.809,1.666,3.266,3.266,0,0,1-2.091.641,3.592,3.592,0,0,1-1.962-.513,2.742,2.742,0,0,1-1.129-1.33l.9-.529a1.876,1.876,0,0,0,.809.985,2.588,2.588,0,0,0,1.386.36,2.545,2.545,0,0,0,1.314-.312A1.047,1.047,0,0,0,39-23.1a.991.991,0,0,0-.481-.865,3.786,3.786,0,0,0-1.169-.5q-.689-.176-1.378-.392a2.7,2.7,0,0,1-1.169-.721,1.837,1.837,0,0,1-.481-1.322,2.055,2.055,0,0,1,.777-1.634,2.935,2.935,0,0,1,1.962-.657,3.276,3.276,0,0,1,1.714.441,2.7,2.7,0,0,1,1.089,1.193l-.881.513a1.864,1.864,0,0,0-1.922-1.121,2.1,2.1,0,0,0-1.185.328A1.058,1.058,0,0,0,35.383-26.9Zm10.765-1.073H43.842v4.854a1.376,1.376,0,0,0,.256.937,1.014,1.014,0,0,0,.769.288q.513.008,1.282-.024v.929a3.893,3.893,0,0,1-2.523-.24,2.009,2.009,0,0,1-.841-1.89v-4.854H41.1V-29h1.682v-1.922l1.057-.32V-29h2.307Zm10.7-1.218a2.862,2.862,0,0,1,2.171.865,3.249,3.249,0,0,1,.825,2.339v5H58.788v-5a2.255,2.255,0,0,0-.537-1.61,1.858,1.858,0,0,0-1.418-.569,2.094,2.094,0,0,0-1.61.665,2.973,2.973,0,0,0-.617,2.075v4.438H53.55v-5a2.341,2.341,0,0,0-.5-1.618,1.75,1.75,0,0,0-1.37-.561,2.225,2.225,0,0,0-1.634.673,2.814,2.814,0,0,0-.673,2.067v4.438H48.311V-29h1.057v1.169a2.744,2.744,0,0,1,2.451-1.362,2.487,2.487,0,0,1,2.435,1.458A2.826,2.826,0,0,1,56.85-29.188Zm9.147,0a3.633,3.633,0,0,1,2.876,1.258,4.373,4.373,0,0,1,1.1,2.972q0,.176-.032.5H62.905a2.873,2.873,0,0,0,1.033,1.93,3.3,3.3,0,0,0,2.155.713,3.151,3.151,0,0,0,1.578-.376,2.54,2.54,0,0,0,1-.985l.929.545A3.8,3.8,0,0,1,68.16-21.29a4.288,4.288,0,0,1-2.083.5A4.161,4.161,0,0,1,63-21.979a4.08,4.08,0,0,1-1.185-3.012,4.124,4.124,0,0,1,1.169-3A4.018,4.018,0,0,1,66-29.188Zm0,1.025a3.038,3.038,0,0,0-2.091.745,3.029,3.029,0,0,0-1,1.93h5.975a2.987,2.987,0,0,0-.977-1.97A2.828,2.828,0,0,0,66-28.163Zm9.8-1.025a3.013,3.013,0,0,1,2.3.889,3.343,3.343,0,0,1,.841,2.395v4.918H77.884V-25.9a2.309,2.309,0,0,0-.569-1.666,2.126,2.126,0,0,0-1.61-.593,2.52,2.52,0,0,0-1.874.729,3.089,3.089,0,0,0-.721,2.251v4.2H72.053V-29H73.11v1.25A2.962,2.962,0,0,1,75.8-29.188Zm9.836,1.218H83.331v4.854a1.376,1.376,0,0,0,.256.937,1.014,1.014,0,0,0,.769.288q.513.008,1.282-.024v.929a3.893,3.893,0,0,1-2.523-.24,2.009,2.009,0,0,1-.841-1.89v-4.854H80.591V-29h1.682v-1.922l1.057-.32V-29h2.307Z" transform="translate(75.595 88.76)" fill="#fff" opacity="0.998"/>
  </g>
</svg>
