<svg xmlns="http://www.w3.org/2000/svg" xmlns:xlink="http://www.w3.org/1999/xlink" width="40" height="40" viewBox="0 0 40 40">
  <defs>
    <clipPath id="clip-path">
      <rect id="Rectangle_6133" data-name="Rectangle 6133" width="40" height="40" transform="translate(280 329)" fill="#fff"/>
    </clipPath>
  </defs>
  <g id="InsuranceIcon" transform="translate(-280 -329)">
    <g id="InsuranceIcon-2" data-name="InsuranceIcon" clip-path="url(#clip-path)">
      <path id="Exclusion_14" data-name="Exclusion 14" d="M-3526.878,8734.615h0a32,32,0,0,1-5.859-3.087,26.581,26.581,0,0,1-9.542-10.651,35.666,35.666,0,0,1-2.977-18.867,71.156,71.156,0,0,0,10.055-3.045,50.81,50.81,0,0,0,8.288-4.35,37.814,37.814,0,0,0,7.784,4.35,67.665,67.665,0,0,0,10.483,3.056,30.449,30.449,0,0,1,.364,5.4,33.8,33.8,0,0,1-3.03,13.457,26.471,26.471,0,0,1-9.623,10.651,32.673,32.673,0,0,1-5.942,3.087Zm-4.358-15.529-2.161,1.243a6.032,6.032,0,0,0,2.256,2.834,7.617,7.617,0,0,0,3.766,1.217v2.374h1.7v-2.4a6.272,6.272,0,0,0,3.779-1.7,4.907,4.907,0,0,0,1.46-3.646,5.264,5.264,0,0,0-.406-2.133,3.835,3.835,0,0,0-1.269-1.552,10.153,10.153,0,0,0-1.594-.984c-.48-.231-1.124-.5-1.971-.812v-6.21a3.57,3.57,0,0,1,2.755,2.35l2.1-1.187a6.071,6.071,0,0,0-1.971-2.486,6.3,6.3,0,0,0-2.889-1.133v-2.4h-1.7v2.377a6.035,6.035,0,0,0-3.645,1.594,4.7,4.7,0,0,0-1.458,3.562,5.252,5.252,0,0,0,.392,2.094,3.82,3.82,0,0,0,1.2,1.525,9.115,9.115,0,0,0,1.552.984,19.41,19.41,0,0,0,1.958.8v6.535a4.257,4.257,0,0,1-3.86-2.837Zm5.561,2.782h0v-5.858a6.584,6.584,0,0,1,2.065,1.256,2.389,2.389,0,0,1,.662,1.767,2.678,2.678,0,0,1-.715,1.879,3.329,3.329,0,0,1-2.011.958Zm-1.7-8.99h0a5.912,5.912,0,0,1-2-1.216,2.33,2.33,0,0,1-.623-1.675,2.477,2.477,0,0,1,.717-1.821,3.219,3.219,0,0,1,1.9-.877v5.59Z" transform="translate(3826.498 -8365.615)" fill="#fff"/>
    </g>
  </g>
</svg>
