<svg xmlns="http://www.w3.org/2000/svg" xmlns:xlink="http://www.w3.org/1999/xlink" width="40" height="40" viewBox="0 0 40 40">
  <defs>
    <clipPath id="clip-path">
      <rect id="Rectangle_6132" data-name="Rectangle 6132" width="40" height="40" transform="translate(280 272.55)" fill="#fff"/>
    </clipPath>
  </defs>
  <g id="PaymentIcon" transform="translate(-280 -272.55)">
    <g id="PaymentsIcon" clip-path="url(#clip-path)">
      <path id="credit-card-solid" d="M0,59.778a3.334,3.334,0,0,0,3.333,3.333H36.667A3.334,3.334,0,0,0,40,59.778V47.556H0Zm13.333-4.722a.836.836,0,0,1,.833-.833h9.444a.836.836,0,0,1,.833.833v2.778a.836.836,0,0,1-.833.833H14.167a.836.836,0,0,1-.833-.833Zm-8.889,0a.836.836,0,0,1,.833-.833h5a.836.836,0,0,1,.833.833v2.778a.836.836,0,0,1-.833.833h-5a.836.836,0,0,1-.833-.833ZM40,35.333v3.333H0V35.333A3.334,3.334,0,0,1,3.333,32H36.667A3.334,3.334,0,0,1,40,35.333Z" transform="translate(280 245)" fill="#fff"/>
    </g>
  </g>
</svg>
