<svg xmlns="http://www.w3.org/2000/svg" width="40" height="40.002" viewBox="0 0 40 40.002">
  <g id="PortfolioIcon" transform="translate(0.002 -0.004)" fill="#f3f4f4">
    <path d="M 17.65399169921875 39.50582122802734 C 15.44321250915527 39.50580978393555 13.27405166625977 39.03908920288086 11.20677185058594 38.11859893798828 C 9.206592559814453 37.22798156738281 7.390032291412354 35.95462799072266 5.807571887969971 34.33388900756836 C 4.222032070159912 32.71001052856445 2.956272125244141 30.82415962219238 2.045462131500244 28.728759765625 C 1.100962042808533 26.55583953857422 0.5836920738220215 24.25588035583496 0.508012056350708 21.89275932312012 C 0.3622520864009857 17.33493995666504 1.804912090301514 12.91946983337402 4.570241928100586 9.459719657897949 C 7.29609203338623 6.049389839172363 11.08215236663818 3.828149795532227 15.23099231719971 3.205189943313599 C 15.258131980896 3.201099872589111 15.28529167175293 3.199039936065674 15.31197166442871 3.199039936065674 C 15.66172218322754 3.199039936065674 15.96851253509521 3.557199954986572 15.96851253509521 3.965499877929688 L 15.96851253509521 22.50489044189453 L 15.96851253509521 22.70315933227539 L 16.10439300537109 22.84754943847656 L 27.56465148925781 35.02563095092773 C 27.71739196777344 35.18793106079102 27.79667282104492 35.42433929443359 27.77674293518066 35.65802001953125 C 27.75864219665527 35.87020874023438 27.66480255126953 36.05023956298828 27.51251220703125 36.16493988037109 C 24.67511177062988 38.30350875854492 21.33777236938477 39.45824813842773 17.86113166809082 39.50442886352539 C 17.79198265075684 39.5053596496582 17.72296142578125 39.50582122802734 17.65399169921875 39.50582122802734 Z M 33.83272933959961 34.72750091552734 C 33.83270645141602 34.72750091552734 33.83269119262695 34.72750091552734 33.83267211914062 34.72750091552734 C 33.65156173706055 34.72748947143555 33.47277069091797 34.64788055419922 33.34214019775391 34.50905990600586 L 22.5153636932373 23.00489044189453 L 38.80594253540039 23.00489044189453 C 38.9941520690918 23.00489044189453 39.17861175537109 23.0922794342041 39.3120231628418 23.24464988708496 C 39.45413208007812 23.40696907043457 39.51944351196289 23.6215705871582 39.49120330810547 23.83342933654785 C 38.94913101196289 27.90813064575195 37.08986282348633 31.7144889831543 34.25589370727539 34.55149841308594 C 34.11058044433594 34.69694137573242 33.94557571411133 34.72750091552734 33.83272933959961 34.72750091552734 Z M 36.45154190063477 18.25466918945312 L 20.49791145324707 18.25466918945312 L 20.49791145324707 1.272369861602783 C 20.49791145324707 0.8557898998260498 20.79941177368164 0.503839910030365 21.15629196166992 0.503839910030365 C 21.16962242126465 0.503839910030365 21.18308258056641 0.504339873790741 21.19659233093262 0.5053299069404602 C 25.31969261169434 0.8075199127197266 29.2061824798584 2.690869808197021 32.14019393920898 5.808449745178223 C 35.08079147338867 8.933039665222168 36.85750198364258 13.0761194229126 37.14302062988281 17.47447967529297 C 37.15654373168945 17.68236923217773 37.08530044555664 17.88080024719238 36.94243240356445 18.03326034545898 C 36.81057357788086 18.17396926879883 36.63165283203125 18.25466918945312 36.45154190063477 18.25466918945312 Z" stroke="none"/>
    <path d="M 17.65399169921875 40.00582122802734 L 17.65399169921875 39.00582122802734 C 17.72075271606445 39.00582122802734 17.78756141662598 39.00537109375 17.8544921875 39.00447845458984 C 21.22408294677734 38.95972061157227 24.45966148376465 37.83977890014648 27.21169281005859 35.76554870605469 C 27.26383209228516 35.72628021240234 27.27582168579102 35.64754867553711 27.2785530090332 35.61552810668945 C 27.2864818572998 35.52259063720703 27.256591796875 35.42786026000977 27.20053291320801 35.36828994750977 L 15.74027252197266 23.19021034240723 L 15.46851253509521 22.90143013000488 L 15.46851253509521 22.50489044189453 L 15.46851253509521 3.965499877929688 C 15.46851253509521 3.796469926834106 15.34971237182617 3.699039936065674 15.31197166442871 3.699039936065674 C 15.31014251708984 3.699039936065674 15.30811214447021 3.699209928512573 15.30524253845215 3.699639797210693 C 11.2814416885376 4.303829669952393 7.607712268829346 6.460330009460449 4.960812091827393 9.771900177001953 C 2.269682168960571 13.13881015777588 0.8657920956611633 17.43774032592773 1.00776207447052 21.87674903869629 C 1.081402063369751 24.17643928527832 1.584812045097351 26.41473007202148 2.504012107849121 28.52943992614746 C 3.390522003173828 30.56893920898438 4.622372150421143 32.40431976318359 6.165322303771973 33.98458862304688 C 7.703402042388916 35.55986022949219 9.468011856079102 36.79706954956055 11.41015243530273 37.66183090209961 C 13.41300201416016 38.55363845825195 15.51373195648193 39.00582122802734 17.65399169921875 39.00582122802734 L 17.65399169921875 40.00582122802734 M 33.83271026611328 34.22750091552734 C 33.86804580688477 34.22749328613281 33.88766479492188 34.21263885498047 33.90215301513672 34.1981315612793 C 36.65901184082031 31.43832015991211 38.46788024902344 27.73402976989746 38.99558258056641 23.76736068725586 C 39.00817108154297 23.67289924621582 38.96355056762695 23.60568046569824 38.93583297729492 23.57402038574219 C 38.91763305664062 23.55323028564453 38.86855316162109 23.50489044189453 38.80594253540039 23.50489044189453 L 23.67252349853516 23.50489044189453 L 33.70625305175781 34.16640090942383 C 33.75814437866211 34.22153091430664 33.81196212768555 34.22749710083008 33.83271026611328 34.22750091552734 M 36.45154190063477 17.75466918945312 C 36.51177215576172 17.75466918945312 36.55975341796875 17.71039962768555 36.57759094238281 17.69137001037598 C 36.60500335693359 17.6621208190918 36.65008163452148 17.59926986694336 36.64407348632812 17.50687026977539 C 36.36606216430664 13.22418022155762 34.63724136352539 9.191299438476562 31.77608299255371 6.151129722595215 C 28.92810249328613 3.124959945678711 25.1579418182373 1.296999931335449 21.15629196166992 1.00383985042572 C 21.10928153991699 1.00383985042572 20.99791145324707 1.108059883117676 20.99791145324707 1.272369861602783 L 20.99791145324707 17.75466918945312 L 36.45154190063477 17.75466918945312 M 17.65398979187012 40.00581741333008 C 8.319000244140625 40.00580596923828 0.3264357447624207 31.84452819824219 0.008272083476185799 21.90876007080078 C -0.3034879267215729 12.16051959991455 6.39428186416626 4.026439666748047 15.15675163269043 2.710729837417603 C 15.20904350280762 2.702851295471191 15.26079559326172 2.699044227600098 15.31197452545166 2.699044227600098 C 15.94086170196533 2.699044227600098 16.4685115814209 3.275511741638184 16.4685115814209 3.965499877929688 L 16.4685115814209 22.50489044189453 L 27.92877197265625 34.68296813964844 C 28.43244171142578 35.21815872192383 28.39421272277832 36.12680816650391 27.81332206726074 36.5643310546875 C 24.99789237976074 38.68634033203125 21.57364273071289 39.95515823364258 17.86777114868164 40.00439071655273 C 17.79642868041992 40.00534057617188 17.72517967224121 40.00581741333008 17.65398979187012 40.00581741333008 Z M 33.83265686035156 35.22750091552734 C 33.52286911010742 35.22748947143555 33.21097564697266 35.09926223754883 32.97802352905273 34.85173034667969 L 21.35820198059082 22.50489044189453 L 38.80594253540039 22.50489044189453 C 39.50814056396484 22.50489044189453 40.08535385131836 23.160400390625 39.98681259155273 23.89950942993164 C 39.41255187988281 28.2161808013916 37.4552001953125 32.05625152587891 34.6096305847168 34.90486145019531 C 34.39252471923828 35.12217712402344 34.11346054077148 35.22751235961914 33.83265686035156 35.22750091552734 Z M 36.45154190063477 18.75466918945312 L 19.99791145324707 18.75466918945312 L 19.99791145324707 1.272369861602783 C 19.99791145324707 0.5857189297676086 20.51996803283691 0.003843836020678282 21.15629005432129 0.003843836020678282 C 21.18173789978027 0.003843836020678282 21.20741653442383 0.004776891320943832 21.23320198059082 0.006669890601187944 C 30.01699256896973 0.6504498720169067 37.03609085083008 8.108719825744629 37.64197158813477 17.44208908081055 C 37.68830108642578 18.15463066101074 37.12359237670898 18.75466918945312 36.45154190063477 18.75466918945312 Z" stroke="none" fill="#f4f4f4"/>
  </g>
</svg>
