<svg xmlns="http://www.w3.org/2000/svg" xmlns:xlink="http://www.w3.org/1999/xlink" width="40" height="40" viewBox="0 0 40 40">
  <defs>
    <clipPath id="clip-path">
      <rect id="Rectangle_6137" data-name="Rectangle 6137" width="40" height="40" transform="translate(281 506)" fill="#fff"/>
    </clipPath>
  </defs>
  <g id="SettingsIcon" transform="translate(-280 -506)">
    <g id="SettingsIcon-2" data-name="SettingsIcon" transform="translate(-1)" clip-path="url(#clip-path)">
      <path id="Path_10306" data-name="Path 10306" d="M38.382,11.057,34.947,9.073a15.533,15.533,0,0,0,0-5.661l3.435-1.984A.975.975,0,0,0,38.825.3a20.084,20.084,0,0,0-4.411-7.628.97.97,0,0,0-1.193-.185L29.786-5.53a15.217,15.217,0,0,0-4.9-2.83V-12.32a.966.966,0,0,0-.758-.943,20.273,20.273,0,0,0-8.806,0,.966.966,0,0,0-.758.943v3.967a15.7,15.7,0,0,0-4.9,2.83L6.232-7.506a.958.958,0,0,0-1.193.185A19.962,19.962,0,0,0,.627.308a.965.965,0,0,0,.444,1.129L4.506,3.421a15.533,15.533,0,0,0,0,5.661L1.071,11.065a.974.974,0,0,0-.444,1.129,20.083,20.083,0,0,0,4.411,7.628.97.97,0,0,0,1.193.185l3.435-1.984a15.218,15.218,0,0,0,4.9,2.83v3.967a.966.966,0,0,0,.758.943,20.27,20.27,0,0,0,8.806,0,.966.966,0,0,0,.758-.943V20.855a15.7,15.7,0,0,0,4.9-2.83l3.435,1.984a.958.958,0,0,0,1.193-.185,19.962,19.962,0,0,0,4.411-7.628A1,1,0,0,0,38.382,11.057ZM19.722,12.694a6.451,6.451,0,1,1,6.451-6.451A6.46,6.46,0,0,1,19.722,12.694Z" transform="translate(281.417 519.747)" fill="#fff"/>
    </g>
  </g>
</svg>
