<svg xmlns="http://www.w3.org/2000/svg" xmlns:xlink="http://www.w3.org/1999/xlink" width="40" height="40" viewBox="0 0 40 40">
  <defs>
    <clipPath id="clip-path">
      <rect id="Rectangle_6138" data-name="Rectangle 6138" width="40" height="40" transform="translate(281 568)" fill="#fff"/>
    </clipPath>
  </defs>
  <g id="SupportIcon" transform="translate(-280 -568)">
    <g id="SupportIcon-2" data-name="SupportIcon" transform="translate(-1)" clip-path="url(#clip-path)">
      <path id="headset-solid" d="M15,16.252a2.5,2.5,0,0,0-2.5-2.5h-1.25a5,5,0,0,0-5,5V22.5a5,5,0,0,0,5,5H12.5A2.5,2.5,0,0,0,15,25ZM28.753,27.5a5,5,0,0,0,5-5v-3.75a5,5,0,0,0-5-5H27.5a2.5,2.5,0,0,0-2.5,2.5V25a2.5,2.5,0,0,0,2.5,2.5ZM20,0C8.843,0,.358,9.285,0,20v1.25A1.25,1.25,0,0,0,1.25,22.5H2.5a1.25,1.25,0,0,0,1.25-1.25V20a16.252,16.252,0,0,1,32.5,0h-.009c.006.19.009,12.948.009,12.948a3.3,3.3,0,0,1-3.3,3.3H25a3.75,3.75,0,0,0-3.75-3.75h-2.5a3.75,3.75,0,0,0,0,7.5h14.2A7.054,7.054,0,0,0,40,32.95V20C39.646,9.285,31.161,0,20,0Z" transform="translate(281 568)" fill="#fff"/>
    </g>
  </g>
</svg>
