<svg xmlns="http://www.w3.org/2000/svg" xmlns:xlink="http://www.w3.org/1999/xlink" width="40" height="40" viewBox="0 0 40 40">
  <defs>
    <clipPath id="clip-path">
      <rect id="Rectangle_6136" data-name="Rectangle 6136" width="40" height="40" transform="translate(279 450)" fill="#fff"/>
    </clipPath>
  </defs>
  <g id="VotingIcon" transform="translate(-280 -450)">
    <g id="VotingIcon-2" data-name="VotingIcon" transform="translate(1)" clip-path="url(#clip-path)">
      <g id="Group_11769" data-name="Group 11769" transform="translate(33.35 -66.6)">
        <path id="Path_10382" data-name="Path 10382" d="M20.248-43.4a17.757,17.757,0,0,1,13.57,5.8,20.064,20.064,0,0,1,5.4,14.2,20.064,20.064,0,0,1-5.4,14.2,17.757,17.757,0,0,1-13.57,5.8H4.65v-40Zm0,34.967a12.884,12.884,0,0,0,10-4.285A15.311,15.311,0,0,0,34.132-23.4a15.311,15.311,0,0,0-3.885-10.684,12.884,12.884,0,0,0-10-4.285H9.964V-8.433Z" transform="translate(244 560)" fill="#fafafa"/>
        <path id="Path_10380" data-name="Path 10380" d="M29.239,3.909,26.125-4.817H8.92L5.807,3.909H.4L14.655-35H20.39L34.646,3.909ZM10.668-9.653H24.378L17.5-28.83Z" transform="translate(248.441 552.686)" fill="#fafafa"/>
        <path id="Path_10381" data-name="Path 10381" d="M8.864-2.387A4.661,4.661,0,0,1,5.421-.967a4.661,4.661,0,0,1-3.444-1.42A4.712,4.712,0,0,1,.57-5.831a4.706,4.706,0,0,1,1.407-3.45A4.672,4.672,0,0,1,5.421-10.7a4.694,4.694,0,0,1,3.45,1.414,4.694,4.694,0,0,1,1.414,3.45A4.689,4.689,0,0,1,8.864-2.387Zm-6.03-.844A3.513,3.513,0,0,0,5.421-2.186,3.479,3.479,0,0,0,8-3.238,3.547,3.547,0,0,0,9.038-5.831,3.563,3.563,0,0,0,8-8.437,3.479,3.479,0,0,0,5.421-9.489,3.479,3.479,0,0,0,2.841-8.437,3.563,3.563,0,0,0,1.8-5.831,3.582,3.582,0,0,0,2.835-3.232Z" transform="translate(260.558 544.035)" fill="#fafafa"/>
      </g>
    </g>
  </g>
</svg>
